rawline-800i.ufo
<glyph name="exclam" format="2">
  <advance width="632"/>
  <unicode hex="0021"/>
  <outline>
    <contour>
      <point x="145" y="578" type="line"/>
      <point x="332" y="1468" type="line"/>
      <point x="659" y="1468" type="line"/>
      <point x="473" y="578" type="line"/>
    </contour>
    <contour>
      <point x="20" y="0" type="line"/>
      <point x="94" y="340" type="line"/>
      <point x="422" y="340" type="line"/>
      <point x="348" y="0" type="line"/>
    </contour>
  </outline>
</glyph>
<glyph name="quotedbl" format="2">
  <advance width="874"/>
  <unicode hex="0022"/>
  <outline>
    <contour>
      <point x="197" y="1020" type="line"/>
      <point x="297" y="1487" type="line"/>
      <point x="573" y="1487" type="line"/>
      <point x="473" y="1020" type="line"/>
    </contour>
    <contour>
      <point x="565" y="1020" type="line"/>
      <point x="666" y="1487" type="line"/>
      <point x="942" y="1487" type="line"/>
      <point x="842" y="1020" type="line"/>
    </contour>
  </outline>
</glyph>
<glyph name="numbersign" format="2">
  <advance width="1449"/>
  <unicode hex="0023"/>
  <outline>
    <contour>
      <point x="1425" y="844" type="line"/>
      <point x="1126" y="844" type="line"/>
      <point x="1030" y="610" type="line"/>
      <point x="1280" y="610" type="line"/>
      <point x="1229" y="367" type="line"/>
      <point x="920" y="367" type="line"/>
      <point x="758" y="0" type="line"/>
      <point x="496" y="0" type="line"/>
      <point x="659" y="367" type="line"/>
      <point x="498" y="367" type="line"/>
      <point x="338" y="0" type="line"/>
      <point x="76" y="0" type="line"/>
      <point x="238" y="367" type="line"/>
      <point x="20" y="367" type="line"/>
      <point x="72" y="610" type="line"/>
      <point x="348" y="610" type="line"/>
      <point x="446" y="844" type="line"/>
      <point x="217" y="844" type="line"/>
      <point x="266" y="1069" type="line"/>
      <point x="551" y="1069" type="line"/>
      <point x="721" y="1454" type="line"/>
      <point x="983" y="1454" type="line"/>
      <point x="811" y="1069" type="line"/>
      <point x="973" y="1069" type="line"/>
      <point x="1141" y="1454" type="line"/>
      <point x="1403" y="1454" type="line"/>
      <point x="1231" y="1069" type="line"/>
      <point x="1475" y="1069" type="line"/>
    </contour>
    <contour>
      <point x="770" y="610" type="line"/>
      <point x="866" y="844" type="line"/>
      <point x="707" y="844" type="line"/>
      <point x="608" y="610" type="line"/>
    </contour>
  </outline>
</glyph>
<glyph name="dollar" format="2">
  <advance width="1269"/>
  <unicode hex="0024"/>
  <outline>
    <contour>
      <point x="807" y="868" type="qcurve" smooth="yes"/>
      <point x="893" y="839"/>
      <point x="1008" y="783"/>
      <point x="1106" y="702"/>
      <point x="1153" y="590"/>
      <point x="1153" y="516" type="qcurve" smooth="yes"/>
      <point x="1153" y="410"/>
      <point x="1088" y="235"/>
      <point x="979" y="116"/>
      <point x="829" y="32"/>
      <point x="667" y="-10"/>
      <point x="578" y="-14" type="qcurve"/>
      <point x="528" y="-252" type="line"/>
      <point x="385" y="-252" type="line"/>
      <point x="436" y="-12" type="line"/>
      <point x="305" y="0"/>
      <point x="60" y="92"/>
      <point x="-29" y="164" type="qcurve"/>
      <point x="180" y="457" type="line"/>
      <point x="186" y="442"/>
      <point x="276" y="377"/>
      <point x="442" y="303"/>
      <point x="526" y="291" type="qcurve"/>
      <point x="582" y="559" type="line"/>
      <point x="500" y="587"/>
      <point x="487" y="592" type="qcurve" smooth="yes"/>
      <point x="336" y="646"/>
      <point x="195" y="792"/>
      <point x="195" y="909" type="qcurve" smooth="yes"/>
      <point x="195" y="1028"/>
      <point x="286" y="1230"/>
      <point x="442" y="1368"/>
      <point x="641" y="1452"/>
      <point x="752" y="1462" type="qcurve"/>
      <point x="795" y="1669" type="line"/>
      <point x="934" y="1669" type="line"/>
      <point x="891" y="1462" type="line"/>
      <point x="1095" y="1442"/>
      <point x="1288" y="1307" type="qcurve"/>
      <point x="1083" y="1028" type="line"/>
      <point x="1078" y="1040"/>
      <point x="1004" y="1093"/>
      <point x="869" y="1153"/>
      <point x="803" y="1163" type="qcurve"/>
      <point x="745" y="889" type="line"/>
      <point x="746" y="889"/>
      <point x="793" y="872"/>
    </contour>
    <contour>
      <point x="563" y="1024" type="qcurve" smooth="yes"/>
      <point x="563" y="989"/>
      <point x="610" y="942"/>
      <point x="659" y="920" type="qcurve"/>
      <point x="711" y="1165" type="line"/>
      <point x="641" y="1157"/>
      <point x="563" y="1084"/>
    </contour>
    <contour>
      <point x="618" y="287" type="line"/>
      <point x="776" y="295"/>
      <point x="776" y="416" type="qcurve" smooth="yes"/>
      <point x="776" y="453"/>
      <point x="723" y="504"/>
      <point x="670" y="528" type="qcurve"/>
    </contour>
  </outline>
</glyph>
<glyph name="percent" format="2">
  <advance width="1617"/>
  <unicode hex="0025"/>
  <outline>
    <contour>
      <point x="180" y="1106" type="qcurve" smooth="yes"/>
      <point x="180" y="1203"/>
      <point x="296" y="1375"/>
      <point x="486" y="1475"/>
      <point x="590" y="1475" type="qcurve" smooth="yes"/>
      <point x="712" y="1475"/>
      <point x="866" y="1322"/>
      <point x="866" y="1210" type="qcurve" smooth="yes"/>
      <point x="866" y="1113"/>
      <point x="750" y="942"/>
      <point x="561" y="842"/>
      <point x="457" y="842" type="qcurve" smooth="yes"/>
      <point x="335" y="842"/>
      <point x="180" y="994"/>
    </contour>
    <contour>
      <point x="106" y="115" type="line"/>
      <point x="799" y="778" type="line"/>
      <point x="1440" y="1473" type="line"/>
      <point x="1559" y="1341" type="line"/>
      <point x="891" y="694" type="line"/>
      <point x="225" y="-18" type="line"/>
    </contour>
    <contour>
      <point x="639" y="1196" type="qcurve" smooth="yes"/>
      <point x="639" y="1248"/>
      <point x="593" y="1315"/>
      <point x="557" y="1315" type="qcurve" smooth="yes"/>
      <point x="502" y="1315"/>
      <point x="408" y="1195"/>
      <point x="408" y="1120" type="qcurve" smooth="yes"/>
      <point x="408" y="1069"/>
      <point x="453" y="1001"/>
      <point x="489" y="1001" type="qcurve" smooth="yes"/>
      <point x="544" y="1001"/>
      <point x="639" y="1121"/>
    </contour>
    <contour>
      <point x="799" y="244" type="qcurve" smooth="yes"/>
      <point x="799" y="341"/>
      <point x="915" y="512"/>
      <point x="1105" y="612"/>
      <point x="1210" y="612" type="qcurve" smooth="yes"/>
      <point x="1331" y="612"/>
      <point x="1485" y="460"/>
      <point x="1485" y="348" type="qcurve" smooth="yes"/>
      <point x="1485" y="251"/>
      <point x="1369" y="80"/>
      <point x="1180" y="-20"/>
      <point x="1075" y="-20" type="qcurve" smooth="yes"/>
      <point x="953" y="-20"/>
      <point x="799" y="132"/>
    </contour>
    <contour>
      <point x="1257" y="334" type="qcurve" smooth="yes"/>
      <point x="1257" y="385"/>
      <point x="1212" y="453"/>
      <point x="1176" y="453" type="qcurve" smooth="yes"/>
      <point x="1121" y="453"/>
      <point x="1026" y="333"/>
      <point x="1026" y="258" type="qcurve" smooth="yes"/>
      <point x="1026" y="206"/>
      <point x="1072" y="139"/>
      <point x="1110" y="139" type="qcurve" smooth="yes"/>
      <point x="1164" y="139"/>
      <point x="1257" y="259"/>
    </contour>
  </outline>
</glyph>
<glyph name="ampersand" format="2">
  <advance width="1458"/>
  <unicode hex="0026"/>
  <outline>
    <contour>
      <point x="1366" y="625" type="line"/>
      <point x="1221" y="625" type="line"/>
      <point x="1156" y="467"/>
      <point x="1065" y="348" type="qcurve"/>
      <point x="1307" y="0" type="line"/>
      <point x="883" y="0" type="line"/>
      <point x="811" y="106" type="line"/>
      <point x="614" y="-20"/>
      <point x="414" y="-20" type="qcurve" smooth="yes"/>
      <point x="230" y="-20"/>
      <point x="27" y="192"/>
      <point x="27" y="348" type="qcurve" smooth="yes"/>
      <point x="27" y="424"/>
      <point x="76" y="554"/>
      <point x="174" y="661"/>
      <point x="279" y="742"/>
      <point x="354" y="788" type="qcurve"/>
      <point x="305" y="869"/>
      <point x="260" y="993"/>
      <point x="260" y="1055" type="qcurve" smooth="yes"/>
      <point x="260" y="1173"/>
      <point x="393" y="1367"/>
      <point x="607" y="1473"/>
      <point x="729" y="1473" type="qcurve" smooth="yes"/>
      <point x="816" y="1473"/>
      <point x="963" y="1413"/>
      <point x="1074" y="1281"/>
      <point x="1096" y="1186" type="qcurve"/>
      <point x="866" y="1081" type="line"/>
      <point x="846" y="1155"/>
      <point x="758" y="1235"/>
      <point x="652" y="1235"/>
      <point x="567" y="1163"/>
      <point x="567" y="1110" type="qcurve" smooth="yes"/>
      <point x="567" y="1094"/>
      <point x="574" y="1065"/>
      <point x="601" y="1020"/>
      <point x="621" y="990"/>
      <point x="678" y="910"/>
      <point x="696" y="883" type="qcurve" smooth="yes"/>
      <point x="926" y="553" type="line"/>
      <point x="998" y="694"/>
      <point x="1020" y="852" type="qcurve"/>
      <point x="1397" y="852" type="line"/>
    </contour>
    <contour>
      <point x="504" y="229" type="qcurve" smooth="yes"/>
      <point x="594" y="229"/>
      <point x="690" y="287" type="qcurve"/>
      <point x="492" y="582" type="line"/>
      <point x="415" y="536"/>
      <point x="346" y="441"/>
      <point x="346" y="381" type="qcurve" smooth="yes"/>
      <point x="346" y="309"/>
      <point x="435" y="229"/>
    </contour>
  </outline>
</glyph>
<glyph name="quotesingle" format="2">
  <advance width="505"/>
  <unicode hex="0027"/>
  <outline>
    <contour>
      <point x="197" y="1018" type="line"/>
      <point x="297" y="1487" type="line"/>
      <point x="573" y="1487" type="line"/>
      <point x="473" y="1018" type="line"/>
    </contour>
  </outline>
</glyph>
<glyph name="parenleft" format="2">
  <advance width="653"/>
  <unicode hex="0028"/>
  <outline>
    <contour>
      <point x="563" y="1565" type="qcurve"/>
      <point x="791" y="1462" type="line"/>
      <point x="371" y="916"/>
      <point x="371" y="559" type="qcurve" smooth="yes"/>
      <point x="371" y="310"/>
      <point x="473" y="-4" type="qcurve"/>
      <point x="207" y="-121" type="line"/>
      <point x="143" y="30"/>
      <point x="63" y="385"/>
      <point x="63" y="543" type="qcurve" smooth="yes"/>
      <point x="63" y="630"/>
      <point x="96" y="801"/>
      <point x="168" y="975"/>
      <point x="246" y="1127"/>
      <point x="375" y="1315"/>
      <point x="481" y="1459"/>
    </contour>
  </outline>
</glyph>
<glyph name="parenright" format="2">
  <advance width="651"/>
  <unicode hex="0029"/>
  <outline>
    <contour>
      <point x="131" y="-121" type="qcurve"/>
      <point x="-82" y="-4" type="line"/>
      <point x="0" y="108"/>
      <point x="97" y="247"/>
      <point x="216" y="443"/>
      <point x="278" y="595"/>
      <point x="322" y="779"/>
      <point x="322" y="870" type="qcurve" smooth="yes"/>
      <point x="322" y="1025"/>
      <point x="254" y="1369"/>
      <point x="221" y="1462" type="qcurve"/>
      <point x="494" y="1565" type="line"/>
      <point x="631" y="1163"/>
      <point x="631" y="883" type="qcurve" smooth="yes"/>
      <point x="631" y="776"/>
      <point x="574" y="554"/>
      <point x="486" y="363"/>
      <point x="347" y="149"/>
      <point x="218" y="-18"/>
    </contour>
  </outline>
</glyph>
<glyph name="asterisk" format="2">
  <advance width="708"/>
  <unicode hex="002A"/>
  <outline>
    <contour>
      <point x="233" y="1044" type="line"/>
      <point x="358" y="1198" type="line"/>
      <point x="229" y="1241" type="line"/>
      <point x="301" y="1378" type="line"/>
      <point x="430" y="1309" type="line"/>
      <point x="453" y="1473" type="line"/>
      <point x="621" y="1473" type="line"/>
      <point x="575" y="1309" type="line"/>
      <point x="733" y="1378" type="line"/>
      <point x="745" y="1241" type="line"/>
      <point x="596" y="1198" type="line"/>
      <point x="659" y="1044" type="line"/>
      <point x="520" y="965" type="line"/>
      <point x="463" y="1126" type="line"/>
      <point x="338" y="965" type="line"/>
    </contour>
  </outline>
</glyph>
<glyph name="plus" format="2">
  <advance width="886"/>
  <unicode hex="002B"/>
  <outline>
    <contour>
      <point x="805" y="858" type="line"/>
      <point x="805" y="596" type="line"/>
      <point x="610" y="596" type="line"/>
      <point x="610" y="383" type="line"/>
      <point x="315" y="383" type="line"/>
      <point x="315" y="596" type="line"/>
      <point x="123" y="596" type="line"/>
      <point x="123" y="858" type="line"/>
      <point x="315" y="858" type="line"/>
      <point x="315" y="1071" type="line"/>
      <point x="610" y="1071" type="line"/>
      <point x="610" y="858" type="line"/>
    </contour>
  </outline>
</glyph>
<glyph name="comma" format="2">
  <advance width="495"/>
  <unicode hex="002C"/>
  <outline>
    <contour>
      <point x="-41" y="-276" type="line"/>
      <point x="82" y="4" type="line"/>
      <point x="-18" y="4" type="line"/>
      <point x="51" y="334" type="line"/>
      <point x="328" y="334" type="line"/>
      <point x="256" y="4" type="line"/>
      <point x="102" y="-276" type="line"/>
    </contour>
  </outline>
</glyph>
<glyph name="period" format="2">
  <advance width="487"/>
  <unicode hex="002E"/>
  <outline>
    <contour>
      <point x="-18" y="0" type="line"/>
      <point x="51" y="334" type="line"/>
      <point x="319" y="334" type="line"/>
      <point x="248" y="0" type="line"/>
    </contour>
  </outline>
</glyph>
<glyph name="slash" format="2">
  <advance width="1492"/>
  <unicode hex="002F"/>
  <outline>
    <contour>
      <point x="1602" y="1454" type="line"/>
      <point x="305" y="0" type="line"/>
      <point x="-55" y="0" type="line"/>
      <point x="1241" y="1454" type="line"/>
    </contour>
  </outline>
</glyph>
<glyph name="zero" format="2">
  <advance width="1396"/>
  <unicode hex="0030"/>
  <outline>
    <contour>
      <point x="84" y="573" type="qcurve" smooth="yes"/>
      <point x="84" y="722"/>
      <point x="211" y="1037"/>
      <point x="420" y="1291"/>
      <point x="717" y="1454"/>
      <point x="874" y="1454" type="qcurve" smooth="yes"/>
      <point x="972" y="1454"/>
      <point x="1135" y="1383"/>
      <point x="1244" y="1265"/>
      <point x="1320" y="1109"/>
      <point x="1354" y="942"/>
      <point x="1354" y="856" type="qcurve" smooth="yes"/>
      <point x="1354" y="737"/>
      <point x="1274" y="486"/>
      <point x="1127" y="262"/>
      <point x="934" y="84"/>
      <point x="690" y="-20"/>
      <point x="563" y="-20" type="qcurve" smooth="yes"/>
      <point x="466" y="-20"/>
      <point x="304" y="49"/>
      <point x="194" y="165"/>
      <point x="118" y="319"/>
      <point x="84" y="486"/>
    </contour>
    <contour>
      <point x="1012" y="923"/>
      <point x="973" y="1061"/>
      <point x="880" y="1155"/>
      <point x="813" y="1155" type="qcurve" smooth="yes"/>
      <point x="725" y="1155"/>
      <point x="573" y="1032"/>
      <point x="479" y="846"/>
      <point x="426" y="646"/>
      <point x="426" y="561" type="qcurve" smooth="yes"/>
      <point x="426" y="438"/>
      <point x="525" y="279"/>
      <point x="627" y="279" type="qcurve" smooth="yes"/>
      <point x="713" y="279"/>
      <point x="864" y="393"/>
      <point x="958" y="566"/>
      <point x="1012" y="757"/>
    </contour>
  </outline>
</glyph>
<glyph name="one" format="2">
  <advance width="1028"/>
  <unicode hex="0031"/>
  <outline>
    <contour>
      <point x="61" y="295" type="line"/>
      <point x="336" y="295" type="line"/>
      <point x="516" y="1145" type="line"/>
      <point x="471" y="1093"/>
      <point x="233" y="969"/>
      <point x="160" y="969" type="qcurve"/>
      <point x="225" y="1270" type="line"/>
      <point x="264" y="1270"/>
      <point x="366" y="1309"/>
      <point x="456" y="1364"/>
      <point x="535" y="1422"/>
      <point x="582" y="1463"/>
      <point x="584" y="1466" type="qcurve" smooth="yes"/>
      <point x="920" y="1466" type="line"/>
      <point x="670" y="295" type="line"/>
      <point x="918" y="295" type="line"/>
      <point x="854" y="0" type="line"/>
      <point x="0" y="0" type="line"/>
    </contour>
  </outline>
</glyph>
<glyph name="two" format="2">
  <advance width="1228"/>
  <unicode hex="0032"/>
  <outline>
    <contour>
      <point x="444" y="688" type="qcurve" smooth="yes"/>
      <point x="459" y="695"/>
      <point x="490" y="709" type="qcurve" smooth="yes"/>
      <point x="543" y="733"/>
      <point x="596" y="758"/>
      <point x="684" y="805"/>
      <point x="730" y="839"/>
      <point x="790" y="893"/>
      <point x="819" y="945"/>
      <point x="840" y="1014"/>
      <point x="840" y="1053" type="qcurve" smooth="yes"/>
      <point x="840" y="1113"/>
      <point x="771" y="1180"/>
      <point x="713" y="1180" type="qcurve" smooth="yes"/>
      <point x="631" y="1180"/>
      <point x="451" y="1085"/>
      <point x="375" y="1018" type="qcurve"/>
      <point x="217" y="1235" type="line"/>
      <point x="319" y="1327"/>
      <point x="643" y="1470"/>
      <point x="821" y="1470" type="qcurve" smooth="yes"/>
      <point x="1014" y="1470"/>
      <point x="1221" y="1282"/>
      <point x="1221" y="1116" type="qcurve" smooth="yes"/>
      <point x="1221" y="1010"/>
      <point x="1170" y="850"/>
      <point x="1056" y="722"/>
      <point x="923" y="629"/>
      <point x="815" y="571" type="qcurve" smooth="yes"/>
      <point x="743" y="534"/>
      <point x="652" y="481"/>
      <point x="558" y="412"/>
      <point x="505" y="337"/>
      <point x="496" y="295" type="qcurve"/>
      <point x="1057" y="295" type="line"/>
      <point x="993" y="0" type="line"/>
      <point x="-47" y="0" type="line"/>
      <point x="-22" y="119"/>
      <point x="32" y="289"/>
      <point x="107" y="439"/>
      <point x="210" y="550"/>
      <point x="349" y="645"/>
    </contour>
  </outline>
</glyph>
<glyph name="three" format="2">
  <advance width="1153"/>
  <unicode hex="0033"/>
  <outline>
    <contour>
      <point x="-4" y="244" type="qcurve"/>
      <point x="213" y="467" type="line"/>
      <point x="216" y="448"/>
      <point x="229" y="408"/>
      <point x="262" y="353"/>
      <point x="309" y="312"/>
      <point x="389" y="283"/>
      <point x="440" y="283" type="qcurve" smooth="yes"/>
      <point x="540" y="283"/>
      <point x="684" y="381"/>
      <point x="684" y="461" type="qcurve" smooth="yes"/>
      <point x="684" y="544"/>
      <point x="518" y="616"/>
      <point x="346" y="616" type="qcurve" smooth="yes"/>
      <point x="283" y="616" type="line"/>
      <point x="340" y="889" type="line"/>
      <point x="403" y="889" type="line" smooth="yes"/>
      <point x="509" y="889"/>
      <point x="674" y="927"/>
      <point x="780" y="1014"/>
      <point x="780" y="1077" type="qcurve" smooth="yes"/>
      <point x="780" y="1134"/>
      <point x="706" y="1186"/>
      <point x="657" y="1186" type="qcurve" smooth="yes"/>
      <point x="561" y="1186"/>
      <point x="399" y="1089"/>
      <point x="360" y="1034" type="qcurve"/>
      <point x="203" y="1276" type="line"/>
      <point x="292" y="1368"/>
      <point x="583" y="1473"/>
      <point x="723" y="1473" type="qcurve" smooth="yes"/>
      <point x="910" y="1473"/>
      <point x="1139" y="1281"/>
      <point x="1139" y="1130" type="qcurve" smooth="yes"/>
      <point x="1139" y="997"/>
      <point x="958" y="801"/>
      <point x="813" y="770" type="qcurve"/>
      <point x="912" y="752"/>
      <point x="1024" y="587"/>
      <point x="1024" y="469" type="qcurve" smooth="yes"/>
      <point x="1024" y="372"/>
      <point x="947" y="209"/>
      <point x="820" y="97"/>
      <point x="653" y="18"/>
      <point x="477" y="-18"/>
      <point x="389" y="-18" type="qcurve" smooth="yes"/>
      <point x="226" y="-18"/>
      <point x="27" y="115"/>
    </contour>
  </outline>
</glyph>
<glyph name="four" format="2">
  <advance width="1165"/>
  <unicode hex="0034"/>
  <outline>
    <contour>
      <point x="457" y="2" type="line"/>
      <point x="522" y="307" type="line"/>
      <point x="-10" y="307" type="line"/>
      <point x="51" y="600" type="line"/>
      <point x="868" y="1456" type="line"/>
      <point x="1094" y="1456" type="line"/>
      <point x="911" y="600" type="line"/>
      <point x="1083" y="600" type="line"/>
      <point x="1022" y="307" type="line"/>
      <point x="850" y="307" type="line"/>
      <point x="784" y="2" type="line"/>
    </contour>
    <contour>
      <point x="621" y="600" type="line"/>
      <point x="698" y="965" type="line"/>
      <point x="377" y="600" type="line"/>
    </contour>
  </outline>
</glyph>
<glyph name="five" format="2">
  <advance width="1130"/>
  <unicode hex="0035"/>
  <outline>
    <contour>
      <point x="-16" y="223" type="qcurve"/>
      <point x="209" y="426" type="line"/>
      <point x="249" y="353"/>
      <point x="380" y="268"/>
      <point x="453" y="268" type="qcurve" smooth="yes"/>
      <point x="553" y="268"/>
      <point x="688" y="409"/>
      <point x="688" y="514" type="qcurve" smooth="yes"/>
      <point x="688" y="583"/>
      <point x="617" y="666"/>
      <point x="555" y="666" type="qcurve" smooth="yes"/>
      <point x="505" y="666"/>
      <point x="409" y="615"/>
      <point x="377" y="571" type="qcurve"/>
      <point x="96" y="571" type="line"/>
      <point x="140" y="680"/>
      <point x="398" y="1345"/>
      <point x="444" y="1456" type="qcurve"/>
      <point x="1133" y="1456" type="line"/>
      <point x="1069" y="1157" type="line"/>
      <point x="618" y="1157" type="line"/>
      <point x="530" y="909" type="line"/>
      <point x="563" y="946"/>
      <point x="664" y="946" type="qcurve" smooth="yes"/>
      <point x="831" y="946"/>
      <point x="1032" y="738"/>
      <point x="1032" y="571" type="qcurve" smooth="yes"/>
      <point x="1032" y="405"/>
      <point x="859" y="133"/>
      <point x="565" y="-18"/>
      <point x="389" y="-18" type="qcurve" smooth="yes"/>
      <point x="238" y="-18"/>
      <point x="24" y="109"/>
    </contour>
  </outline>
</glyph>
<glyph name="six" format="2">
  <advance width="1212"/>
  <unicode hex="0036"/>
  <outline>
    <contour>
      <point x="1114" y="575" type="qcurve" smooth="yes"/>
      <point x="1114" y="746"/>
      <point x="897" y="969"/>
      <point x="721" y="969" type="qcurve" smooth="yes"/>
      <point x="563" y="969"/>
      <point x="455" y="852" type="qcurve"/>
      <point x="492" y="1008"/>
      <point x="657" y="1182"/>
      <point x="766" y="1182" type="qcurve" smooth="yes"/>
      <point x="838" y="1182"/>
      <point x="956" y="1108"/>
      <point x="991" y="1042" type="qcurve"/>
      <point x="1221" y="1251" type="line"/>
      <point x="1088" y="1466"/>
      <point x="831" y="1466" type="qcurve" smooth="yes"/>
      <point x="669" y="1466"/>
      <point x="388" y="1309"/>
      <point x="194" y="1041"/>
      <point x="84" y="675"/>
      <point x="84" y="469" type="qcurve" smooth="yes"/>
      <point x="84" y="238"/>
      <point x="291" y="-20"/>
      <point x="481" y="-20" type="qcurve" smooth="yes"/>
      <point x="645" y="-20"/>
      <point x="937" y="142"/>
      <point x="1114" y="418"/>
    </contour>
    <contour>
      <point x="385" y="444" type="qcurve" smooth="yes"/>
      <point x="385" y="550"/>
      <point x="540" y="711"/>
      <point x="637" y="711" type="qcurve" smooth="yes"/>
      <point x="707" y="711"/>
      <point x="795" y="608"/>
      <point x="795" y="530" type="qcurve" smooth="yes"/>
      <point x="795" y="424"/>
      <point x="635" y="256"/>
      <point x="541" y="256" type="qcurve" smooth="yes"/>
      <point x="473" y="256"/>
      <point x="385" y="365"/>
    </contour>
  </outline>
</glyph>
<glyph name="seven" format="2">
  <advance width="1155"/>
  <unicode hex="0037"/>
  <outline>
    <contour>
      <point x="752" y="1157" type="line"/>
      <point x="186" y="1157" type="line"/>
      <point x="250" y="1456" type="line"/>
      <point x="1333" y="1456" type="line"/>
      <point x="342" y="2" type="line"/>
      <point x="-27" y="2" type="line"/>
    </contour>
  </outline>
</glyph>
<glyph name="eight" format="2">
  <advance width="1202"/>
  <unicode hex="0038"/>
  <outline>
    <contour>
      <point x="463" y="-18" type="qcurve" smooth="yes"/>
      <point x="279" y="-18"/>
      <point x="39" y="198"/>
      <point x="39" y="371" type="qcurve" smooth="yes"/>
      <point x="39" y="445"/>
      <point x="88" y="579"/>
      <point x="172" y="678"/>
      <point x="256" y="748"/>
      <point x="305" y="776" type="qcurve"/>
      <point x="261" y="805"/>
      <point x="209" y="922"/>
      <point x="209" y="987" type="qcurve" smooth="yes"/>
      <point x="209" y="1072"/>
      <point x="281" y="1225"/>
      <point x="400" y="1334"/>
      <point x="549" y="1414"/>
      <point x="704" y="1454"/>
      <point x="776" y="1454" type="qcurve" smooth="yes"/>
      <point x="849" y="1454"/>
      <point x="989" y="1408"/>
      <point x="1104" y="1323"/>
      <point x="1174" y="1188"/>
      <point x="1174" y="1106" type="qcurve" smooth="yes"/>
      <point x="1174" y="1004"/>
      <point x="1047" y="820"/>
      <point x="961" y="776" type="qcurve"/>
      <point x="1013" y="736"/>
      <point x="1083" y="595"/>
      <point x="1083" y="508" type="qcurve" smooth="yes"/>
      <point x="1083" y="360"/>
      <point x="906" y="116"/>
      <point x="622" y="-18"/>
    </contour>
    <contour>
      <point x="655" y="887" type="qcurve" smooth="yes"/>
      <point x="721" y="887"/>
      <point x="834" y="979"/>
      <point x="834" y="1055" type="qcurve" smooth="yes"/>
      <point x="834" y="1105"/>
      <point x="769" y="1165"/>
      <point x="715" y="1165" type="qcurve" smooth="yes"/>
      <point x="646" y="1165"/>
      <point x="541" y="1068"/>
      <point x="541" y="999" type="qcurve" smooth="yes"/>
      <point x="541" y="947"/>
      <point x="609" y="887"/>
    </contour>
    <contour>
      <point x="604" y="641" type="qcurve" smooth="yes"/>
      <point x="514" y="641"/>
      <point x="381" y="518"/>
      <point x="381" y="426" type="qcurve" smooth="yes"/>
      <point x="381" y="362"/>
      <point x="464" y="279"/>
      <point x="526" y="279" type="qcurve" smooth="yes"/>
      <point x="614" y="279"/>
      <point x="752" y="408"/>
      <point x="752" y="498" type="qcurve" smooth="yes"/>
      <point x="752" y="565"/>
      <point x="669" y="641"/>
    </contour>
  </outline>
</glyph>
<glyph name="nine" format="2">
  <advance width="1214"/>
  <unicode hex="0039"/>
  <outline>
    <contour>
      <point x="539" y="475" type="qcurve" smooth="yes"/>
      <point x="699" y="475"/>
      <point x="805" y="594" type="qcurve"/>
      <point x="767" y="438"/>
      <point x="603" y="264"/>
      <point x="494" y="264" type="qcurve" smooth="yes"/>
      <point x="420" y="264"/>
      <point x="302" y="337"/>
      <point x="268" y="403" type="qcurve"/>
      <point x="39" y="195" type="line"/>
      <point x="104" y="90"/>
      <point x="302" y="-20"/>
      <point x="428" y="-20" type="qcurve" smooth="yes"/>
      <point x="590" y="-20"/>
      <point x="871" y="137"/>
      <point x="1064" y="405"/>
      <point x="1174" y="771"/>
      <point x="1174" y="977" type="qcurve" smooth="yes"/>
      <point x="1174" y="1208"/>
      <point x="968" y="1466"/>
      <point x="778" y="1466" type="qcurve" smooth="yes"/>
      <point x="614" y="1466"/>
      <point x="320" y="1304"/>
      <point x="143" y="1027"/>
      <point x="143" y="870" type="qcurve" smooth="yes"/>
      <point x="143" y="699"/>
      <point x="362" y="475"/>
    </contour>
    <contour>
      <point x="874" y="1001" type="qcurve" smooth="yes"/>
      <point x="874" y="894"/>
      <point x="719" y="735"/>
      <point x="623" y="735" type="qcurve" smooth="yes"/>
      <point x="553" y="735"/>
      <point x="465" y="838"/>
      <point x="465" y="915" type="qcurve" smooth="yes"/>
      <point x="465" y="1021"/>
      <point x="625" y="1190"/>
      <point x="719" y="1190" type="qcurve" smooth="yes"/>
      <point x="787" y="1190"/>
      <point x="874" y="1080"/>
    </contour>
  </outline>
</glyph>
<glyph name="colon" format="2">
  <advance width="550"/>
  <unicode hex="003A"/>
  <outline>
    <contour>
      <point x="166" y="729" type="line"/>
      <point x="238" y="1063" type="line"/>
      <point x="504" y="1063" type="line"/>
      <point x="432" y="729" type="line"/>
    </contour>
    <contour>
      <point x="12" y="0" type="line"/>
      <point x="82" y="334" type="line"/>
      <point x="350" y="334" type="line"/>
      <point x="279" y="0" type="line"/>
    </contour>
  </outline>
</glyph>
<glyph name="semicolon" format="2">
  <advance width="557"/>
  <unicode hex="003B"/>
  <outline>
    <contour>
      <point x="168" y="729" type="line"/>
      <point x="238" y="1063" type="line"/>
      <point x="506" y="1063" type="line"/>
      <point x="434" y="729" type="line"/>
    </contour>
    <contour>
      <point x="-12" y="-276" type="line"/>
      <point x="111" y="4" type="line"/>
      <point x="10" y="4" type="line"/>
      <point x="82" y="334" type="line"/>
      <point x="356" y="334" type="line"/>
      <point x="285" y="4" type="line"/>
      <point x="131" y="-276" type="line"/>
    </contour>
  </outline>
</glyph>
<glyph name="less" format="2">
  <advance width="1130"/>
  <unicode hex="003C"/>
  <outline>
    <contour>
      <point x="59" y="600" type="line"/>
      <point x="924" y="1124" type="line"/>
      <point x="924" y="776" type="line"/>
      <point x="535" y="530" type="line"/>
      <point x="924" y="299" type="line"/>
      <point x="924" y="-68" type="line"/>
      <point x="59" y="444" type="line"/>
    </contour>
  </outline>
</glyph>
<glyph name="equal" format="2">
  <advance width="999"/>
  <unicode hex="003D"/>
  <outline>
    <contour>
      <point x="162" y="668" type="line"/>
      <point x="162" y="877" type="line"/>
      <point x="813" y="877" type="line"/>
      <point x="813" y="668" type="line"/>
    </contour>
    <contour>
      <point x="162" y="254" type="line"/>
      <point x="162" y="463" type="line"/>
      <point x="813" y="463" type="line"/>
      <point x="813" y="254" type="line"/>
    </contour>
  </outline>
</glyph>
<glyph name="greater" format="2">
  <advance width="1130"/>
  <unicode hex="003E"/>
  <outline>
    <contour>
      <point x="1032" y="444" type="line"/>
      <point x="168" y="-68" type="line"/>
      <point x="168" y="299" type="line"/>
      <point x="557" y="530" type="line"/>
      <point x="168" y="776" type="line"/>
      <point x="168" y="1124" type="line"/>
      <point x="1032" y="600" type="line"/>
    </contour>
  </outline>
</glyph>
<glyph name="question" format="2">
  <advance width="974"/>
  <unicode hex="003F"/>
  <outline>
    <contour>
      <point x="188" y="502" type="line"/>
      <point x="210" y="610"/>
      <point x="304" y="758"/>
      <point x="410" y="813" type="qcurve" smooth="yes"/>
      <point x="475" y="845"/>
      <point x="552" y="887"/>
      <point x="637" y="944"/>
      <point x="681" y="994"/>
      <point x="711" y="1058"/>
      <point x="711" y="1094" type="qcurve" smooth="yes"/>
      <point x="711" y="1147"/>
      <point x="645" y="1208"/>
      <point x="594" y="1208" type="qcurve" smooth="yes"/>
      <point x="559" y="1208"/>
      <point x="494" y="1181"/>
      <point x="436" y="1128"/>
      <point x="403" y="1091"/>
      <point x="379" y="1061" type="qcurve"/>
      <point x="199" y="1208" type="line"/>
      <point x="275" y="1332"/>
      <point x="525" y="1473"/>
      <point x="664" y="1473" type="qcurve" smooth="yes"/>
      <point x="731" y="1473"/>
      <point x="850" y="1436"/>
      <point x="948" y="1361"/>
      <point x="1006" y="1232"/>
      <point x="1006" y="1149" type="qcurve" smooth="yes"/>
      <point x="1006" y="1065"/>
      <point x="967" y="933"/>
      <point x="890" y="834"/>
      <point x="806" y="765"/>
      <point x="745" y="729" type="qcurve" smooth="yes"/>
      <point x="716" y="712"/>
      <point x="626" y="666"/>
      <point x="566" y="634"/>
      <point x="502" y="590"/>
      <point x="464" y="535"/>
      <point x="457" y="502" type="qcurve"/>
    </contour>
    <contour>
      <point x="86" y="0" type="line"/>
      <point x="152" y="307" type="line"/>
      <point x="420" y="307" type="line"/>
      <point x="354" y="0" type="line"/>
    </contour>
  </outline>
</glyph>
<glyph name="at" format="2">
  <advance width="1671"/>
  <unicode hex="0040"/>
  <outline>
    <contour>
      <point x="1432" y="602" type="qcurve" smooth="yes"/>
      <point x="1432" y="827"/>
      <point x="1157" y="1110"/>
      <point x="922" y="1110" type="qcurve" smooth="yes"/>
      <point x="722" y="1110"/>
      <point x="377" y="905"/>
      <point x="172" y="548"/>
      <point x="172" y="336" type="qcurve" smooth="yes"/>
      <point x="172" y="103"/>
      <point x="422" y="-174"/>
      <point x="639" y="-174" type="qcurve" smooth="yes"/>
      <point x="777" y="-174"/>
      <point x="952" y="-96" type="qcurve"/>
      <point x="967" y="-217" type="line"/>
      <point x="786" y="-299"/>
      <point x="612" y="-299" type="qcurve" smooth="yes"/>
      <point x="351" y="-299"/>
      <point x="37" y="38"/>
      <point x="37" y="319" type="qcurve" smooth="yes"/>
      <point x="37" y="509"/>
      <point x="188" y="852"/>
      <point x="440" y="1093"/>
      <point x="775" y="1235"/>
      <point x="954" y="1235" type="qcurve" smooth="yes"/>
      <point x="1233" y="1235"/>
      <point x="1565" y="908"/>
      <point x="1565" y="639" type="qcurve" smooth="yes"/>
      <point x="1565" y="527"/>
      <point x="1504" y="292"/>
      <point x="1395" y="93"/>
      <point x="1227" y="-33"/>
      <point x="1130" y="-33" type="qcurve" smooth="yes"/>
      <point x="1057" y="-33"/>
      <point x="971" y="36"/>
      <point x="971" y="100" type="qcurve" smooth="yes"/>
      <point x="971" y="123"/>
      <point x="975" y="131" type="qcurve"/>
      <point x="816" y="-10"/>
      <point x="655" y="-10" type="qcurve" smooth="yes"/>
      <point x="505" y="-10"/>
      <point x="326" y="200"/>
      <point x="326" y="367" type="qcurve" smooth="yes"/>
      <point x="326" y="480"/>
      <point x="413" y="696"/>
      <point x="554" y="855"/>
      <point x="743" y="952"/>
      <point x="842" y="952" type="qcurve" smooth="yes"/>
      <point x="937" y="952"/>
      <point x="1068" y="862"/>
      <point x="1087" y="788" type="qcurve"/>
      <point x="1112" y="922" type="line"/>
      <point x="1266" y="922" type="line"/>
      <point x="1135" y="254" type="line" smooth="yes"/>
      <point x="1126" y="209"/>
      <point x="1126" y="186" type="qcurve" smooth="yes"/>
      <point x="1126" y="149"/>
      <point x="1161" y="109"/>
      <point x="1192" y="109" type="qcurve" smooth="yes"/>
      <point x="1255" y="109"/>
      <point x="1368" y="264"/>
      <point x="1432" y="492"/>
    </contour>
    <contour>
      <point x="971" y="342" type="qcurve"/>
      <point x="1010" y="592" type="line"/>
      <point x="996" y="672"/>
      <point x="898" y="770"/>
      <point x="827" y="770" type="qcurve" smooth="yes"/>
      <point x="772" y="770"/>
      <point x="661" y="710"/>
      <point x="573" y="610"/>
      <point x="518" y="466"/>
      <point x="518" y="389" type="qcurve" smooth="yes"/>
      <point x="518" y="283"/>
      <point x="624" y="147"/>
      <point x="721" y="147" type="qcurve" smooth="yes"/>
      <point x="805" y="147"/>
      <point x="933" y="251"/>
    </contour>
  </outline>
</glyph>
<glyph name="B" format="2">
  <advance width="1353"/>
  <unicode hex="0042"/>
  <outline>
    <contour>
      <point x="317" y="1454" type="line"/>
      <point x="1094" y="1454" type="line" smooth="yes"/>
      <point x="1209" y="1454"/>
      <point x="1339" y="1279"/>
      <point x="1339" y="1155" type="qcurve" smooth="yes"/>
      <point x="1339" y="1028"/>
      <point x="1188" y="799"/>
      <point x="1059" y="745" type="qcurve"/>
      <point x="1150" y="716"/>
      <point x="1249" y="567"/>
      <point x="1249" y="459" type="qcurve" smooth="yes"/>
      <point x="1249" y="347"/>
      <point x="1156" y="168"/>
      <point x="997" y="58"/>
      <point x="796" y="0"/>
      <point x="682" y="0" type="qcurve" smooth="yes"/>
      <point x="8" y="0" type="line"/>
    </contour>
    <contour>
      <point x="825" y="866" type="line" smooth="yes"/>
      <point x="889" y="866"/>
      <point x="989" y="968"/>
      <point x="989" y="1057" type="qcurve" smooth="yes"/>
      <point x="989" y="1108"/>
      <point x="940" y="1167"/>
      <point x="901" y="1167" type="qcurve" smooth="yes"/>
      <point x="592" y="1167" type="line"/>
      <point x="528" y="866" type="line"/>
    </contour>
    <contour>
      <point x="743" y="285" type="line" smooth="yes"/>
      <point x="811" y="285"/>
      <point x="918" y="397"/>
      <point x="918" y="479" type="qcurve" smooth="yes"/>
      <point x="918" y="532"/>
      <point x="865" y="602"/>
      <point x="823" y="602" type="qcurve" smooth="yes"/>
      <point x="471" y="602" type="line"/>
      <point x="406" y="285" type="line"/>
    </contour>
  </outline>
</glyph>
<glyph name="D" format="2">
  <advance width="1419"/>
  <unicode hex="0044"/>
  <anchor x="0" y="0" name="Anchor-11"/>
  <anchor x="680" y="727" name="Anchor-10"/>
  <anchor x="831" y="1452" name="Anchor-9"/>
  <anchor x="0" y="0" name="Anchor-8"/>
  <anchor x="522" y="0" name="Anchor-7"/>
  <outline>
    <contour>
      <point x="317" y="1454" type="line"/>
      <point x="838" y="1454" type="line" smooth="yes"/>
      <point x="976" y="1454"/>
      <point x="1192" y="1367"/>
      <point x="1326" y="1213"/>
      <point x="1395" y="1010"/>
      <point x="1395" y="889" type="qcurve" smooth="yes"/>
      <point x="1395" y="700"/>
      <point x="1262" y="369"/>
      <point x="1032" y="135"/>
      <point x="711" y="0"/>
      <point x="528" y="0" type="qcurve" smooth="yes"/>
      <point x="8" y="0" type="line"/>
    </contour>
    <contour>
      <point x="590" y="295" type="line" smooth="yes"/>
      <point x="690" y="295"/>
      <point x="863" y="384"/>
      <point x="980" y="534"/>
      <point x="1047" y="732"/>
      <point x="1047" y="840" type="qcurve" smooth="yes"/>
      <point x="1047" y="986"/>
      <point x="905" y="1159"/>
      <point x="774" y="1159" type="qcurve" smooth="yes"/>
      <point x="590" y="1159" type="line"/>
      <point x="406" y="295" type="line"/>
    </contour>
  </outline>
</glyph>
<glyph name="F" format="2">
  <advance width="1130"/>
  <unicode hex="0046"/>
  <outline>
    <contour>
      <point x="317" y="1454" type="line"/>
      <point x="1255" y="1454" type="line"/>
      <point x="1194" y="1159" type="line"/>
      <point x="590" y="1159" type="line"/>
      <point x="524" y="846" type="line"/>
      <point x="1020" y="846" type="line"/>
      <point x="963" y="573" type="line"/>
      <point x="465" y="573" type="line"/>
      <point x="344" y="0" type="line"/>
      <point x="8" y="0" type="line"/>
    </contour>
  </outline>
</glyph>
<glyph name="H" format="2">
  <advance width="1476"/>
  <unicode hex="0048"/>
  <anchor x="0" y="0" name="Anchor-11"/>
  <anchor x="780" y="727" name="Anchor-10"/>
  <anchor x="934" y="1454" name="Anchor-9"/>
  <anchor x="0" y="0" name="Anchor-8"/>
  <anchor x="625" y="0" name="Anchor-7"/>
  <outline>
    <contour>
      <point x="317" y="1454" type="line"/>
      <point x="653" y="1454" type="line"/>
      <point x="532" y="891" type="line"/>
      <point x="1059" y="891" type="line"/>
      <point x="1180" y="1454" type="line"/>
      <point x="1516" y="1454" type="line"/>
      <point x="1206" y="0" type="line"/>
      <point x="870" y="0" type="line"/>
      <point x="997" y="596" type="line"/>
      <point x="471" y="596" type="line"/>
      <point x="344" y="0" type="line"/>
      <point x="8" y="0" type="line"/>
    </contour>
  </outline>
</glyph>
<glyph name="I" format="2">
  <advance width="614"/>
  <unicode hex="0049"/>
  <anchor x="0" y="0" name="Anchor-11"/>
  <anchor x="0" y="0" name="Anchor-10"/>
  <anchor x="498" y="1454" name="Anchor-9"/>
  <anchor x="344" y="0" name="Anchor-8"/>
  <anchor x="188" y="0" name="Anchor-7"/>
  <outline>
    <contour>
      <point x="317" y="1454" type="line"/>
      <point x="653" y="1454" type="line"/>
      <point x="344" y="0" type="line"/>
      <point x="8" y="0" type="line"/>
    </contour>
  </outline>
</glyph>
<glyph name="J" format="2">
  <advance width="989"/>
  <unicode hex="004A"/>
  <anchor x="0" y="0" name="Anchor-11"/>
  <anchor x="0" y="0" name="Anchor-10"/>
  <anchor x="877" y="1450" name="Anchor-9"/>
  <anchor x="0" y="0" name="Anchor-8"/>
  <anchor x="0" y="0" name="Anchor-7"/>
  <outline>
    <contour>
      <point x="-92" y="68" type="qcurve"/>
      <point x="37" y="342" type="line"/>
      <point x="55" y="322"/>
      <point x="178" y="276"/>
      <point x="252" y="276" type="qcurve" smooth="yes"/>
      <point x="306" y="276"/>
      <point x="387" y="311"/>
      <point x="446" y="372"/>
      <point x="494" y="488"/>
      <point x="529" y="614"/>
      <point x="551" y="715" type="qcurve" smooth="yes"/>
      <point x="709" y="1454" type="line"/>
      <point x="1047" y="1454" type="line"/>
      <point x="889" y="715" type="line" smooth="yes"/>
      <point x="867" y="612"/>
      <point x="825" y="457"/>
      <point x="762" y="295"/>
      <point x="689" y="181"/>
      <point x="585" y="77"/>
      <point x="458" y="14"/>
      <point x="290" y="-23"/>
      <point x="188" y="-23" type="qcurve" smooth="yes"/>
      <point x="16" y="-23"/>
    </contour>
  </outline>
</glyph>
<glyph name="K" format="2">
  <advance width="1337"/>
  <unicode hex="004B"/>
  <anchor x="0" y="0" name="Anchor-11"/>
  <anchor x="0" y="0" name="Anchor-10"/>
  <anchor x="0" y="0" name="Anchor-9"/>
  <anchor x="0" y="0" name="Anchor-8"/>
  <anchor x="571" y="0" name="Anchor-7"/>
  <outline>
    <contour>
      <point x="317" y="1454" type="line"/>
      <point x="653" y="1454" type="line"/>
      <point x="520" y="827" type="line"/>
      <point x="1135" y="1454" type="line"/>
      <point x="1513" y="1454" type="line"/>
      <point x="860" y="805" type="line"/>
      <point x="1237" y="0" type="line"/>
      <point x="852" y="0" type="line"/>
      <point x="600" y="586" type="line"/>
      <point x="434" y="428" type="line"/>
      <point x="344" y="0" type="line"/>
      <point x="8" y="0" type="line"/>
    </contour>
  </outline>
</glyph>
<glyph name="L" format="2">
  <advance width="1153"/>
  <unicode hex="004C"/>
  <anchor x="922" y="1075" name="Anchor-11"/>
  <anchor x="616" y="727" name="Anchor-10"/>
  <anchor x="467" y="1454" name="Anchor-9"/>
  <anchor x="0" y="0" name="Anchor-8"/>
  <anchor x="504" y="0" name="Anchor-7"/>
  <outline>
    <contour>
      <point x="317" y="1454" type="line"/>
      <point x="653" y="1454" type="line"/>
      <point x="406" y="295" type="line"/>
      <point x="1063" y="295" type="line"/>
      <point x="1001" y="0" type="line"/>
      <point x="8" y="0" type="line"/>
    </contour>
  </outline>
</glyph>
<glyph name="M" format="2">
  <advance width="1689"/>
  <unicode hex="004D"/>
  <anchor x="0" y="0" name="Anchor-11"/>
  <anchor x="0" y="0" name="Anchor-10"/>
  <anchor x="1040" y="1454" name="Anchor-9"/>
  <anchor x="0" y="0" name="Anchor-8"/>
  <anchor x="731" y="0" name="Anchor-7"/>
  <outline>
    <contour>
      <point x="317" y="1454" type="line"/>
      <point x="682" y="1454" type="line"/>
      <point x="862" y="694" type="line"/>
      <point x="1366" y="1454" type="line"/>
      <point x="1731" y="1454" type="line"/>
      <point x="1421" y="0" type="line"/>
      <point x="1083" y="0" type="line"/>
      <point x="1270" y="870" type="line"/>
      <point x="854" y="238" type="line"/>
      <point x="674" y="238" type="line"/>
      <point x="530" y="870" type="line"/>
      <point x="344" y="0" type="line"/>
      <point x="8" y="0" type="line"/>
    </contour>
  </outline>
</glyph>
<glyph name="N" format="2">
  <advance width="1492"/>
  <unicode hex="004E"/>
  <anchor x="0" y="0" name="Anchor-11"/>
  <anchor x="0" y="0" name="Anchor-10"/>
  <anchor x="920" y="1450" name="Anchor-9"/>
  <anchor x="0" y="0" name="Anchor-8"/>
  <anchor x="629" y="0" name="Anchor-7"/>
  <outline>
    <contour>
      <point x="317" y="1454" type="line"/>
      <point x="580" y="1454" type="line"/>
      <point x="1016" y="600" type="line"/>
      <point x="1196" y="1454" type="line"/>
      <point x="1532" y="1454" type="line"/>
      <point x="1223" y="0" type="line"/>
      <point x="956" y="0" type="line"/>
      <point x="520" y="831" type="line"/>
      <point x="344" y="0" type="line"/>
      <point x="8" y="0" type="line"/>
    </contour>
  </outline>
</glyph>
<glyph name="Q" format="2">
  <advance width="1499"/>
  <unicode hex="0051"/>
  <outline>
    <contour>
      <point x="1479" y="854" type="qcurve" smooth="yes"/>
      <point x="1479" y="682"/>
      <point x="1320" y="350"/>
      <point x="1184" y="225" type="qcurve"/>
      <point x="1335" y="0" type="line"/>
      <point x="1018" y="0" type="line"/>
      <point x="969" y="76" type="line"/>
      <point x="795" y="-10"/>
      <point x="614" y="-10" type="qcurve" smooth="yes"/>
      <point x="486" y="-10"/>
      <point x="275" y="90"/>
      <point x="140" y="259"/>
      <point x="66" y="476"/>
      <point x="66" y="596" type="qcurve" smooth="yes"/>
      <point x="66" y="758"/>
      <point x="210" y="1076"/>
      <point x="446" y="1315"/>
      <point x="767" y="1464"/>
      <point x="934" y="1464" type="qcurve" smooth="yes"/>
      <point x="1062" y="1464"/>
      <point x="1273" y="1362"/>
      <point x="1407" y="1190"/>
      <point x="1479" y="973"/>
    </contour>
    <contour>
      <point x="682" y="289" type="qcurve" smooth="yes"/>
      <point x="750" y="289"/>
      <point x="811" y="311" type="qcurve"/>
      <point x="637" y="573" type="line"/>
      <point x="950" y="573" type="line"/>
      <point x="1018" y="473" type="line"/>
      <point x="1075" y="550"/>
      <point x="1137" y="740"/>
      <point x="1137" y="831" type="qcurve" smooth="yes"/>
      <point x="1137" y="974"/>
      <point x="997" y="1165"/>
      <point x="866" y="1165" type="qcurve" smooth="yes"/>
      <point x="765" y="1165"/>
      <point x="589" y="1065"/>
      <point x="475" y="907"/>
      <point x="410" y="716"/>
      <point x="410" y="623" type="qcurve" smooth="yes"/>
      <point x="410" y="481"/>
      <point x="550" y="289"/>
    </contour>
  </outline>
</glyph>
<glyph name="T" format="2">
  <advance width="1220"/>
  <unicode hex="0054"/>
  <anchor x="0" y="0" name="Anchor-11"/>
  <anchor x="0" y="0" name="Anchor-10"/>
  <anchor x="786" y="1450" name="Anchor-9"/>
  <anchor x="0" y="0" name="Anchor-8"/>
  <anchor x="481" y="0" name="Anchor-7"/>
  <outline>
    <contour>
      <point x="559" y="1159" type="line"/>
      <point x="143" y="1159" type="line"/>
      <point x="205" y="1454" type="line"/>
      <point x="1370" y="1454" type="line"/>
      <point x="1309" y="1159" type="line"/>
      <point x="895" y="1159" type="line"/>
      <point x="647" y="0" type="line"/>
      <point x="311" y="0" type="line"/>
    </contour>
  </outline>
</glyph>
<glyph name="U" format="2">
  <advance width="1468"/>
  <unicode hex="0055"/>
  <anchor x="1534" y="1323" name="Anchor-11"/>
  <anchor x="0" y="0" name="Anchor-10"/>
  <anchor x="907" y="1450" name="Anchor-9"/>
  <anchor x="727" y="0" name="Anchor-8"/>
  <anchor x="602" y="0" name="Anchor-7"/>
  <outline>
    <contour>
      <point x="113" y="483" type="qcurve" smooth="yes"/>
      <point x="113" y="594"/>
      <point x="137" y="711" type="qcurve" smooth="yes"/>
      <point x="297" y="1454" type="line"/>
      <point x="633" y="1454" type="line"/>
      <point x="473" y="711" type="line"/>
      <point x="455" y="608"/>
      <point x="455" y="545" type="qcurve" smooth="yes"/>
      <point x="455" y="427"/>
      <point x="556" y="287"/>
      <point x="664" y="287" type="qcurve" smooth="yes"/>
      <point x="739" y="287"/>
      <point x="866" y="358"/>
      <point x="955" y="481"/>
      <point x="1015" y="626"/>
      <point x="1034" y="711" type="qcurve" smooth="yes"/>
      <point x="1192" y="1454" type="line"/>
      <point x="1528" y="1454" type="line"/>
      <point x="1370" y="711" type="line" smooth="yes"/>
      <point x="1337" y="557"/>
      <point x="1208" y="299"/>
      <point x="1019" y="100"/>
      <point x="755" y="-12"/>
      <point x="600" y="-12" type="qcurve" smooth="yes"/>
      <point x="472" y="-12"/>
      <point x="280" y="63"/>
      <point x="167" y="199"/>
      <point x="113" y="374"/>
    </contour>
  </outline>
</glyph>
<glyph name="V" format="2">
  <advance width="1318"/>
  <unicode hex="0056"/>
  <outline>
    <contour>
      <point x="168" y="1454" type="line"/>
      <point x="522" y="1454" type="line"/>
      <point x="612" y="422" type="line"/>
      <point x="1139" y="1454" type="line"/>
      <point x="1491" y="1454" type="line"/>
      <point x="664" y="0" type="line"/>
      <point x="383" y="0" type="line"/>
    </contour>
  </outline>
</glyph>
<glyph name="Y" format="2">
  <advance width="1275"/>
  <unicode hex="0059"/>
  <anchor x="0" y="0" name="Anchor-11"/>
  <anchor x="0" y="0" name="Anchor-10"/>
  <anchor x="784" y="1450" name="Anchor-9"/>
  <anchor x="0" y="0" name="Anchor-8"/>
  <anchor x="0" y="0" name="Anchor-7"/>
  <outline>
    <contour>
      <point x="436" y="500" type="line"/>
      <point x="158" y="1454" type="line"/>
      <point x="522" y="1454" type="line"/>
      <point x="664" y="786" type="line"/>
      <point x="1096" y="1454" type="line"/>
      <point x="1460" y="1454" type="line"/>
      <point x="768" y="496" type="line"/>
      <point x="664" y="0" type="line"/>
      <point x="328" y="0" type="line"/>
    </contour>
  </outline>
</glyph>
<glyph name="Z" format="2">
  <advance width="1218"/>
  <unicode hex="005A"/>
  <anchor x="0" y="0" name="Anchor-11"/>
  <anchor x="0" y="0" name="Anchor-10"/>
  <anchor x="805" y="1454" name="Anchor-9"/>
  <anchor x="0" y="0" name="Anchor-8"/>
  <anchor x="496" y="0" name="Anchor-7"/>
  <outline>
    <contour>
      <point x="-20" y="252" type="line"/>
      <point x="870" y="1159" type="line"/>
      <point x="201" y="1159" type="line"/>
      <point x="262" y="1454" type="line"/>
      <point x="1323" y="1454" type="line"/>
      <point x="1268" y="1202" type="line"/>
      <point x="410" y="295" type="line"/>
      <point x="1083" y="295" type="line"/>
      <point x="1022" y="0" type="line"/>
      <point x="-74" y="0" type="line"/>
    </contour>
  </outline>
</glyph>
<glyph name="bracketleft" format="2">
  <advance width="659"/>
  <unicode hex="005B"/>
  <outline>
    <contour>
      <point x="-8" y="-82" type="line"/>
      <point x="332" y="1516" type="line"/>
      <point x="764" y="1516" type="line"/>
      <point x="709" y="1255" type="line"/>
      <point x="578" y="1255" type="line"/>
      <point x="350" y="178" type="line"/>
      <point x="479" y="178" type="line"/>
      <point x="426" y="-82" type="line"/>
    </contour>
  </outline>
</glyph>
<glyph name="bracketright" format="2">
  <advance width="661"/>
  <unicode hex="005D"/>
  <outline>
    <contour>
      <point x="-61" y="-82" type="line"/>
      <point x="-6" y="178" type="line"/>
      <point x="127" y="178" type="line"/>
      <point x="354" y="1255" type="line"/>
      <point x="223" y="1255" type="line"/>
      <point x="279" y="1516" type="line"/>
      <point x="711" y="1516" type="line"/>
      <point x="373" y="-82" type="line"/>
    </contour>
  </outline>
</glyph>
<glyph name="asciicircum" format="2">
  <advance width="1245"/>
  <unicode hex="005E"/>
  <outline>
    <contour>
      <point x="94" y="621" type="line"/>
      <point x="500" y="1454" type="line"/>
      <point x="772" y="1454" type="line"/>
      <point x="1176" y="621" type="line"/>
      <point x="909" y="621" type="line"/>
      <point x="637" y="1184" type="line"/>
      <point x="356" y="621" type="line"/>
    </contour>
  </outline>
</glyph>
<glyph name="underscore" format="2">
  <advance width="903"/>
  <unicode hex="005F"/>
  <outline>
    <contour>
      <point x="-90" y="-295" type="line"/>
      <point x="-29" y="0" type="line"/>
      <point x="668" y="0" type="line"/>
      <point x="606" y="-295" type="line"/>
    </contour>
  </outline>
</glyph>
<glyph name="grave" format="2">
  <advance width="602"/>
  <unicode hex="0060"/>
  <anchor x="508" y="1495" name="Anchor-13"/>
  <outline>
    <contour>
      <point x="305" y="1495" type="line"/>
      <point x="600" y="1495" type="line"/>
      <point x="645" y="1229" type="line"/>
      <point x="418" y="1196" type="line"/>
    </contour>
  </outline>
</glyph>
<glyph name="b" format="2">
  <advance width="1267"/>
  <unicode hex="0062"/>
  <outline>
    <contour>
      <point x="303" y="178" type="qcurve"/>
      <point x="266" y="0" type="line"/>
      <point x="-20" y="0" type="line"/>
      <point x="297" y="1495" type="line"/>
      <point x="625" y="1495" type="line"/>
      <point x="498" y="899" type="line"/>
      <point x="565" y="990"/>
      <point x="758" y="1096"/>
      <point x="862" y="1096" type="qcurve" smooth="yes"/>
      <point x="1026" y="1096"/>
      <point x="1210" y="853"/>
      <point x="1210" y="662" type="qcurve" smooth="yes"/>
      <point x="1210" y="524"/>
      <point x="1108" y="270"/>
      <point x="940" y="88"/>
      <point x="717" y="-20"/>
      <point x="600" y="-20" type="qcurve" smooth="yes"/>
      <point x="484" y="-20"/>
      <point x="333" y="83"/>
    </contour>
    <contour>
      <point x="866" y="596" type="qcurve" smooth="yes"/>
      <point x="866" y="691"/>
      <point x="776" y="817"/>
      <point x="700" y="817" type="qcurve" smooth="yes"/>
      <point x="632" y="817"/>
      <point x="490" y="712"/>
      <point x="442" y="631" type="qcurve"/>
      <point x="393" y="406" type="line"/>
      <point x="437" y="256"/>
      <point x="571" y="256" type="qcurve" smooth="yes"/>
      <point x="687" y="256"/>
      <point x="866" y="459"/>
    </contour>
  </outline>
</glyph>
<glyph name="f" format="2">
  <advance width="770"/>
  <unicode hex="0066"/>
  <outline>
    <contour>
      <point x="201" y="739" type="line"/>
      <point x="72" y="739" type="line"/>
      <point x="125" y="987" type="line"/>
      <point x="254" y="987" type="line"/>
      <point x="272" y="1075" type="line" smooth="yes"/>
      <point x="313" y="1275"/>
      <point x="564" y="1516"/>
      <point x="729" y="1516" type="qcurve" smooth="yes"/>
      <point x="853" y="1516"/>
      <point x="987" y="1452" type="qcurve"/>
      <point x="874" y="1206" type="line"/>
      <point x="810" y="1239"/>
      <point x="743" y="1239" type="qcurve" smooth="yes"/>
      <point x="689" y="1239"/>
      <point x="617" y="1161"/>
      <point x="602" y="1087" type="qcurve" smooth="yes"/>
      <point x="580" y="987" type="line"/>
      <point x="815" y="987" type="line"/>
      <point x="762" y="739" type="line"/>
      <point x="528" y="739" type="line"/>
      <point x="279" y="-436" type="line"/>
      <point x="-49" y="-436" type="line"/>
    </contour>
  </outline>
</glyph>
<glyph name="h" format="2">
  <advance width="1210"/>
  <unicode hex="0068"/>
  <anchor x="0" y="0" name="Anchor-11"/>
  <anchor x="606" y="537" name="Anchor-10"/>
  <anchor x="801" y="1454" name="Anchor-9"/>
  <anchor x="0" y="0" name="Anchor-8"/>
  <anchor x="492" y="0" name="Anchor-7"/>
  <outline>
    <contour>
      <point x="297" y="1495" type="line"/>
      <point x="625" y="1495" type="line"/>
      <point x="498" y="895" type="line"/>
      <point x="573" y="991"/>
      <point x="779" y="1096"/>
      <point x="891" y="1096" type="qcurve" smooth="yes"/>
      <point x="1143" y="1096"/>
      <point x="1143" y="848" type="qcurve" smooth="yes"/>
      <point x="1143" y="789"/>
      <point x="1124" y="688" type="qcurve" smooth="yes"/>
      <point x="979" y="0" type="line"/>
      <point x="651" y="0" type="line"/>
      <point x="780" y="604" type="line"/>
      <point x="788" y="666"/>
      <point x="788" y="684" type="qcurve" smooth="yes"/>
      <point x="788" y="807"/>
      <point x="682" y="807" type="qcurve" smooth="yes"/>
      <point x="629" y="807"/>
      <point x="481" y="698"/>
      <point x="438" y="616" type="qcurve"/>
      <point x="307" y="0" type="line"/>
      <point x="-20" y="0" type="line"/>
    </contour>
  </outline>
</glyph>
<glyph name="i" format="2">
  <advance width="548"/>
  <unicode hex="0069"/>
  <anchor x="0" y="0" name="Anchor-11"/>
  <anchor x="0" y="0" name="Anchor-10"/>
  <anchor x="0" y="0" name="Anchor-9"/>
  <anchor x="307" y="0" name="Anchor-8"/>
  <anchor x="156" y="0" name="Anchor-7"/>
  <outline>
    <contour>
      <point x="297" y="1495" type="line"/>
      <point x="625" y="1495" type="line"/>
      <point x="561" y="1198" type="line"/>
      <point x="233" y="1198" type="line"/>
    </contour>
    <contour>
      <point x="209" y="1075" type="line"/>
      <point x="537" y="1075" type="line"/>
      <point x="307" y="0" type="line"/>
      <point x="-20" y="0" type="line"/>
    </contour>
  </outline>
</glyph>
<glyph name="k" format="2">
  <advance width="1167"/>
  <unicode hex="006B"/>
  <anchor x="0" y="0" name="Anchor-11"/>
  <anchor x="0" y="0" name="Anchor-10"/>
  <anchor x="0" y="0" name="Anchor-9"/>
  <anchor x="0" y="0" name="Anchor-8"/>
  <anchor x="473" y="0" name="Anchor-7"/>
  <outline>
    <contour>
      <point x="1122" y="846" type="qcurve" smooth="yes"/>
      <point x="1122" y="711"/>
      <point x="970" y="481"/>
      <point x="831" y="406" type="qcurve"/>
      <point x="1014" y="0" type="line"/>
      <point x="666" y="0" type="line"/>
      <point x="485" y="465" type="line"/>
      <point x="644" y="495"/>
      <point x="827" y="633"/>
      <point x="827" y="717" type="qcurve" smooth="yes"/>
      <point x="827" y="760"/>
      <point x="778" y="809"/>
      <point x="737" y="809" type="qcurve" smooth="yes"/>
      <point x="650" y="809"/>
      <point x="461" y="622"/>
      <point x="410" y="487" type="qcurve"/>
      <point x="305" y="0" type="line"/>
      <point x="-20" y="0" type="line"/>
      <point x="297" y="1495" type="line"/>
      <point x="623" y="1495" type="line"/>
      <point x="477" y="807" type="line"/>
      <point x="561" y="941"/>
      <point x="773" y="1087"/>
      <point x="893" y="1087" type="qcurve" smooth="yes"/>
      <point x="1004" y="1087"/>
      <point x="1122" y="961"/>
    </contour>
  </outline>
</glyph>
<glyph name="l" format="2">
  <advance width="667"/>
  <unicode hex="006C"/>
  <anchor x="696" y="1075" name="Anchor-11"/>
  <anchor x="334" y="537" name="Anchor-10"/>
  <anchor x="444" y="1495" name="Anchor-9"/>
  <anchor x="0" y="0" name="Anchor-8"/>
  <anchor x="268" y="0" name="Anchor-7"/>
  <outline>
    <contour>
      <point x="23" y="182" type="qcurve" smooth="yes"/>
      <point x="23" y="229"/>
      <point x="33" y="268" type="qcurve" smooth="yes"/>
      <point x="293" y="1495" type="line"/>
      <point x="621" y="1495" type="line"/>
      <point x="383" y="383" type="line" smooth="yes"/>
      <point x="379" y="355"/>
      <point x="379" y="340" type="qcurve" smooth="yes"/>
      <point x="379" y="260"/>
      <point x="457" y="260" type="qcurve" smooth="yes"/>
      <point x="509" y="260"/>
      <point x="565" y="289" type="qcurve"/>
      <point x="555" y="43" type="line"/>
      <point x="489" y="15"/>
      <point x="326" y="-18"/>
      <point x="258" y="-18" type="qcurve" smooth="yes"/>
      <point x="143" y="-18"/>
      <point x="23" y="85"/>
    </contour>
  </outline>
</glyph>
<glyph name="q" format="2">
  <advance width="1265"/>
  <unicode hex="0071"/>
  <outline>
    <contour>
      <point x="733" y="174" type="line"/>
      <point x="592" y="-20"/>
      <point x="360" y="-20" type="qcurve" smooth="yes"/>
      <point x="205" y="-20"/>
      <point x="23" y="223"/>
      <point x="23" y="412" type="qcurve" smooth="yes"/>
      <point x="23" y="550"/>
      <point x="125" y="805"/>
      <point x="293" y="987"/>
      <point x="516" y="1096"/>
      <point x="633" y="1096" type="qcurve" smooth="yes"/>
      <point x="852" y="1096"/>
      <point x="930" y="899" type="qcurve"/>
      <point x="967" y="1075" type="line"/>
      <point x="1253" y="1075" type="line"/>
      <point x="932" y="-438" type="line"/>
      <point x="604" y="-438" type="line"/>
    </contour>
    <contour>
      <point x="782" y="401" type="qcurve"/>
      <point x="831" y="629" type="line"/>
      <point x="822" y="709"/>
      <point x="720" y="817"/>
      <point x="653" y="817" type="qcurve" smooth="yes"/>
      <point x="543" y="817"/>
      <point x="365" y="602"/>
      <point x="365" y="469" type="qcurve" smooth="yes"/>
      <point x="365" y="375"/>
      <point x="462" y="256"/>
      <point x="547" y="256" type="qcurve" smooth="yes"/>
      <point x="663" y="256"/>
    </contour>
  </outline>
</glyph>
<glyph name="r" format="2">
  <advance width="802"/>
  <unicode hex="0072"/>
  <anchor x="0" y="0" name="Anchor-11"/>
  <anchor x="0" y="0" name="Anchor-10"/>
  <anchor x="494" y="1069" name="Anchor-9"/>
  <anchor x="0" y="0" name="Anchor-8"/>
  <anchor x="147" y="0" name="Anchor-7"/>
  <outline>
    <contour>
      <point x="209" y="1075" type="line"/>
      <point x="510" y="1075" type="line"/>
      <point x="463" y="858" type="line"/>
      <point x="540" y="966"/>
      <point x="731" y="1090"/>
      <point x="823" y="1090" type="qcurve" smooth="yes"/>
      <point x="858" y="1090"/>
      <point x="870" y="1087" type="qcurve"/>
      <point x="809" y="795" type="line"/>
      <point x="695" y="793"/>
      <point x="501" y="717"/>
      <point x="444" y="645" type="qcurve"/>
      <point x="307" y="0" type="line"/>
      <point x="-20" y="0" type="line"/>
    </contour>
  </outline>
</glyph>
<glyph name="v" format="2">
  <advance width="1097"/>
  <unicode hex="0076"/>
  <outline>
    <contour>
      <point x="96" y="1075" type="line"/>
      <point x="436" y="1075" type="line"/>
      <point x="471" y="262" type="line"/>
      <point x="609" y="491"/>
      <point x="775" y="850"/>
      <point x="846" y="1075" type="qcurve"/>
      <point x="1143" y="1075" type="line"/>
      <point x="1003" y="568"/>
      <point x="563" y="0" type="qcurve"/>
      <point x="223" y="0" type="line"/>
    </contour>
  </outline>
</glyph>
<glyph name="braceleft" format="2">
  <advance width="679"/>
  <unicode hex="007B"/>
  <outline>
    <contour>
      <point x="616" y="1255" type="line"/>
      <point x="539" y="885" type="line" smooth="yes"/>
      <point x="522" y="809"/>
      <point x="432" y="737" type="qcurve"/>
      <point x="479" y="682"/>
      <point x="479" y="625" type="qcurve" smooth="yes"/>
      <point x="479" y="610"/>
      <point x="475" y="590" type="qcurve" smooth="yes"/>
      <point x="393" y="197" type="line"/>
      <point x="500" y="197" type="line"/>
      <point x="444" y="-63" type="line"/>
      <point x="88" y="-63" type="line" smooth="yes"/>
      <point x="53" y="-63"/>
      <point x="53" y="-23" type="qcurve" smooth="yes"/>
      <point x="53" y="-10"/>
      <point x="55" y="-2" type="qcurve" smooth="yes"/>
      <point x="158" y="479" type="line" smooth="yes"/>
      <point x="162" y="503"/>
      <point x="162" y="512" type="qcurve" smooth="yes"/>
      <point x="162" y="556"/>
      <point x="114" y="619"/>
      <point x="80" y="627" type="qcurve"/>
      <point x="127" y="852" type="line"/>
      <point x="168" y="852"/>
      <point x="257" y="945"/>
      <point x="268" y="995" type="qcurve" smooth="yes"/>
      <point x="365" y="1454" type="line" smooth="yes"/>
      <point x="372" y="1486"/>
      <point x="409" y="1516"/>
      <point x="424" y="1516" type="qcurve" smooth="yes"/>
      <point x="780" y="1516" type="line"/>
      <point x="723" y="1255" type="line"/>
    </contour>
  </outline>
</glyph>
<glyph name="bar" format="2">
  <advance width="700"/>
  <unicode hex="007C"/>
  <outline>
    <contour>
      <point x="221" y="-266" type="line"/>
      <point x="221" y="1587" type="line"/>
      <point x="498" y="1587" type="line"/>
      <point x="498" y="-266" type="line"/>
    </contour>
  </outline>
</glyph>
<glyph name="braceright" format="2">
  <advance width="686"/>
  <unicode hex="007D"/>
  <outline>
    <contour>
      <point x="236" y="1255" type="line"/>
      <point x="291" y="1516" type="line"/>
      <point x="645" y="1516" type="line" smooth="yes"/>
      <point x="658" y="1516"/>
      <point x="680" y="1496"/>
      <point x="680" y="1475" type="qcurve" smooth="yes"/>
      <point x="680" y="1462"/>
      <point x="678" y="1454" type="qcurve" smooth="yes"/>
      <point x="580" y="995" type="line" smooth="yes"/>
      <point x="575" y="970"/>
      <point x="575" y="967" type="qcurve" smooth="yes"/>
      <point x="575" y="922"/>
      <point x="624" y="852"/>
      <point x="659" y="852" type="qcurve"/>
      <point x="610" y="627" type="line"/>
      <point x="566" y="617"/>
      <point x="482" y="534"/>
      <point x="471" y="479" type="qcurve" smooth="yes"/>
      <point x="369" y="-2" type="line" smooth="yes"/>
      <point x="362" y="-34"/>
      <point x="326" y="-63"/>
      <point x="309" y="-63" type="qcurve" smooth="yes"/>
      <point x="-45" y="-63" type="line"/>
      <point x="10" y="197" type="line"/>
      <point x="117" y="197" type="line"/>
      <point x="201" y="590" type="line" smooth="yes"/>
      <point x="218" y="666"/>
      <point x="305" y="737" type="qcurve"/>
      <point x="260" y="798"/>
      <point x="260" y="848" type="qcurve" smooth="yes"/>
      <point x="260" y="873"/>
      <point x="264" y="885" type="qcurve" smooth="yes"/>
      <point x="344" y="1255" type="line"/>
    </contour>
  </outline>
</glyph>
<glyph name="asciitilde" format="2">
  <advance width="1157"/>
  <unicode hex="007E"/>
  <outline>
    <contour>
      <point x="397" y="752" type="qcurve" smooth="yes"/>
      <point x="449" y="752"/>
      <point x="554" y="718"/>
      <point x="626" y="677"/>
      <point x="719" y="643"/>
      <point x="760" y="643" type="qcurve" smooth="yes"/>
      <point x="793" y="643"/>
      <point x="847" y="663"/>
      <point x="877" y="692"/>
      <point x="898" y="724"/>
      <point x="905" y="744"/>
      <point x="905" y="748" type="qcurve"/>
      <point x="1081" y="748" type="line"/>
      <point x="1080" y="734"/>
      <point x="1059" y="674"/>
      <point x="1008" y="586"/>
      <point x="936" y="510"/>
      <point x="819" y="455"/>
      <point x="750" y="455" type="qcurve" smooth="yes"/>
      <point x="687" y="455"/>
      <point x="558" y="507"/>
      <point x="440" y="559"/>
      <point x="389" y="559" type="qcurve" smooth="yes"/>
      <point x="356" y="559"/>
      <point x="303" y="538"/>
      <point x="276" y="510"/>
      <point x="259" y="477"/>
      <point x="254" y="458"/>
      <point x="254" y="455" type="qcurve"/>
      <point x="76" y="455" type="line"/>
      <point x="77" y="475"/>
      <point x="98" y="541"/>
      <point x="148" y="627"/>
      <point x="218" y="701"/>
      <point x="331" y="752"/>
    </contour>
  </outline>
</glyph>
<glyph name="exclamdown" format="2">
  <advance width="632"/>
  <unicode hex="00A1"/>
  <outline>
    <contour>
      <point x="657" y="1456" type="line"/>
      <point x="586" y="1116" type="line"/>
      <point x="258" y="1116" type="line"/>
      <point x="330" y="1456" type="line"/>
    </contour>
    <contour>
      <point x="537" y="879" type="line"/>
      <point x="346" y="-12" type="line"/>
      <point x="18" y="-12" type="line"/>
      <point x="209" y="879" type="line"/>
    </contour>
  </outline>
</glyph>
<glyph name="cent" format="2">
  <advance width="1196"/>
  <unicode hex="00A2"/>
  <outline>
    <contour>
      <point x="365" y="-246" type="line"/>
      <point x="414" y="-18" type="line"/>
      <point x="305" y="-9"/>
      <point x="137" y="124"/>
      <point x="53" y="322"/>
      <point x="53" y="546"/>
      <point x="135" y="761"/>
      <point x="283" y="941"/>
      <point x="512" y="1070"/>
      <point x="649" y="1092" type="qcurve"/>
      <point x="698" y="1321" type="line"/>
      <point x="840" y="1321" type="line"/>
      <point x="791" y="1092" type="line"/>
      <point x="926" y="1087"/>
      <point x="1125" y="944"/>
      <point x="1165" y="811" type="qcurve"/>
      <point x="825" y="715" type="line"/>
      <point x="815" y="752"/>
      <point x="761" y="802"/>
      <point x="731" y="807" type="qcurve"/>
      <point x="614" y="264" type="line"/>
      <point x="708" y="291"/>
      <point x="752" y="362" type="qcurve"/>
      <point x="1051" y="264" type="line"/>
      <point x="992" y="175"/>
      <point x="800" y="40"/>
      <point x="623" y="-20"/>
      <point x="555" y="-20" type="qcurve"/>
      <point x="506" y="-246" type="line"/>
    </contour>
    <contour>
      <point x="477" y="281" type="qcurve"/>
      <point x="586" y="793" type="line"/>
      <point x="506" y="764"/>
      <point x="393" y="565"/>
      <point x="393" y="461" type="qcurve" smooth="yes"/>
      <point x="393" y="400"/>
      <point x="437" y="302"/>
    </contour>
  </outline>
</glyph>
<glyph name="sterling" format="2">
  <advance width="1114"/>
  <unicode hex="00A3"/>
  <outline>
    <contour>
      <point x="559" y="543" type="line"/>
      <point x="520" y="409"/>
      <point x="346" y="252" type="qcurve"/>
      <point x="442" y="281"/>
      <point x="504" y="281" type="qcurve" smooth="yes"/>
      <point x="547" y="281"/>
      <point x="711" y="248"/>
      <point x="754" y="248" type="qcurve" smooth="yes"/>
      <point x="805" y="248"/>
      <point x="891" y="276" type="qcurve"/>
      <point x="920" y="35" type="line"/>
      <point x="869" y="6"/>
      <point x="735" y="-31"/>
      <point x="678" y="-31" type="qcurve" smooth="yes"/>
      <point x="618" y="-31"/>
      <point x="376" y="33"/>
      <point x="311" y="33" type="qcurve" smooth="yes"/>
      <point x="194" y="33"/>
      <point x="33" y="-18" type="qcurve"/>
      <point x="14" y="215" type="line"/>
      <point x="111" y="282"/>
      <point x="249" y="452"/>
      <point x="276" y="543" type="qcurve"/>
      <point x="104" y="543" type="line"/>
      <point x="154" y="786" type="line"/>
      <point x="276" y="786" type="line"/>
      <point x="273" y="804"/>
      <point x="257" y="885"/>
      <point x="249" y="931"/>
      <point x="242" y="997"/>
      <point x="242" y="1024" type="qcurve" smooth="yes"/>
      <point x="242" y="1144"/>
      <point x="388" y="1348"/>
      <point x="623" y="1464"/>
      <point x="754" y="1464" type="qcurve" smooth="yes"/>
      <point x="878" y="1464"/>
      <point x="1082" y="1350"/>
      <point x="1139" y="1249" type="qcurve"/>
      <point x="930" y="1049" type="line"/>
      <point x="895" y="1114"/>
      <point x="762" y="1200"/>
      <point x="696" y="1200" type="qcurve" smooth="yes"/>
      <point x="625" y="1200"/>
      <point x="528" y="1097"/>
      <point x="528" y="1020" type="qcurve" smooth="yes"/>
      <point x="528" y="990"/>
      <point x="541" y="916"/>
      <point x="562" y="818"/>
      <point x="567" y="786" type="qcurve"/>
      <point x="934" y="786" type="line"/>
      <point x="881" y="543" type="line"/>
    </contour>
  </outline>
</glyph>
<glyph name="currency" format="2">
  <advance width="1187"/>
  <unicode hex="00A4"/>
  <outline>
    <contour>
      <point x="397" y="1026" type="line"/>
      <point x="492" y="1079"/>
      <point x="612" y="1079" type="qcurve" smooth="yes"/>
      <point x="726" y="1079"/>
      <point x="823" y="1028" type="qcurve"/>
      <point x="965" y="1171" type="line"/>
      <point x="1092" y="1044" type="line"/>
      <point x="956" y="909" type="line"/>
      <point x="1020" y="814"/>
      <point x="1020" y="692" type="qcurve" smooth="yes"/>
      <point x="1020" y="568"/>
      <point x="954" y="471" type="qcurve"/>
      <point x="1092" y="336" type="line"/>
      <point x="975" y="219" type="line"/>
      <point x="827" y="356" type="line"/>
      <point x="739" y="305"/>
      <point x="612" y="305" type="qcurve" smooth="yes"/>
      <point x="488" y="305"/>
      <point x="393" y="358" type="qcurve"/>
      <point x="246" y="219" type="line"/>
      <point x="129" y="336" type="line"/>
      <point x="266" y="475" type="line"/>
      <point x="205" y="574"/>
      <point x="205" y="692" type="qcurve" smooth="yes"/>
      <point x="205" y="813"/>
      <point x="264" y="905" type="qcurve"/>
      <point x="129" y="1044" type="line"/>
      <point x="256" y="1171" type="line"/>
    </contour>
    <contour>
      <point x="686" y="504"/>
      <point x="784" y="608"/>
      <point x="784" y="776"/>
      <point x="687" y="879"/>
      <point x="537" y="879"/>
      <point x="440" y="775"/>
      <point x="440" y="690" type="qcurve" smooth="yes"/>
      <point x="440" y="608"/>
      <point x="538" y="504"/>
    </contour>
  </outline>
</glyph>
<glyph name="yen" format="2">
  <advance width="1433"/>
  <unicode hex="00A5"/>
  <outline>
    <contour>
      <point x="1106" y="852" type="line"/>
      <point x="1237" y="852" type="line"/>
      <point x="1192" y="641" type="line"/>
      <point x="952" y="641" type="line"/>
      <point x="848" y="496" type="line"/>
      <point x="834" y="432" type="line"/>
      <point x="1149" y="432" type="line"/>
      <point x="1106" y="221" type="line"/>
      <point x="788" y="221" type="line"/>
      <point x="741" y="0" type="line"/>
      <point x="408" y="0" type="line"/>
      <point x="453" y="221" type="line"/>
      <point x="141" y="221" type="line"/>
      <point x="186" y="432" type="line"/>
      <point x="500" y="432" type="line"/>
      <point x="514" y="500" type="line"/>
      <point x="473" y="641" type="line"/>
      <point x="231" y="641" type="line"/>
      <point x="276" y="852" type="line"/>
      <point x="412" y="852" type="line"/>
      <point x="236" y="1454" type="line"/>
      <point x="600" y="1454" type="line"/>
      <point x="741" y="786" type="line"/>
      <point x="1171" y="1454" type="line"/>
      <point x="1538" y="1454" type="line"/>
    </contour>
  </outline>
</glyph>
<glyph name="brokenbar" format="2">
  <advance width="684"/>
  <unicode hex="00A6"/>
  <outline>
    <contour>
      <point x="492" y="1587" type="line"/>
      <point x="492" y="788" type="line"/>
      <point x="213" y="788" type="line"/>
      <point x="213" y="1587" type="line"/>
    </contour>
    <contour>
      <point x="492" y="532" type="line"/>
      <point x="492" y="-266" type="line"/>
      <point x="213" y="-266" type="line"/>
      <point x="213" y="532" type="line"/>
    </contour>
  </outline>
</glyph>
<glyph name="section" format="2">
  <advance width="1073"/>
  <unicode hex="00A7"/>
  <outline>
    <contour>
      <point x="922" y="334" type="qcurve" smooth="yes"/>
      <point x="922" y="226"/>
      <point x="846" y="47"/>
      <point x="727" y="-68"/>
      <point x="575" y="-147"/>
      <point x="431" y="-180"/>
      <point x="365" y="-180" type="qcurve" smooth="yes"/>
      <point x="289" y="-180"/>
      <point x="151" y="-133"/>
      <point x="56" y="-60"/>
      <point x="-7" y="10"/>
      <point x="-25" y="43" type="qcurve"/>
      <point x="227" y="244" type="line"/>
      <point x="300" y="131"/>
      <point x="416" y="131" type="qcurve" smooth="yes"/>
      <point x="478" y="131"/>
      <point x="567" y="199"/>
      <point x="567" y="256" type="qcurve" smooth="yes"/>
      <point x="567" y="282"/>
      <point x="537" y="311"/>
      <point x="505" y="319"/>
      <point x="477" y="322" type="qcurve" smooth="yes"/>
      <point x="307" y="335"/>
      <point x="133" y="498"/>
      <point x="133" y="627" type="qcurve" smooth="yes"/>
      <point x="133" y="670"/>
      <point x="151" y="750"/>
      <point x="169" y="788"/>
      <point x="200" y="841"/>
      <point x="201" y="842" type="qcurve" smooth="yes"/>
      <point x="170" y="897"/>
      <point x="170" y="995" type="qcurve" smooth="yes"/>
      <point x="170" y="1113"/>
      <point x="314" y="1330"/>
      <point x="556" y="1464"/>
      <point x="690" y="1464" type="qcurve" smooth="yes"/>
      <point x="759" y="1464"/>
      <point x="878" y="1425"/>
      <point x="955" y="1370"/>
      <point x="1022" y="1288"/>
      <point x="1056" y="1227"/>
      <point x="1073" y="1190" type="qcurve"/>
      <point x="797" y="1071" type="line"/>
      <point x="762" y="1174"/>
      <point x="651" y="1174" type="qcurve" smooth="yes"/>
      <point x="588" y="1174"/>
      <point x="506" y="1103"/>
      <point x="506" y="1044" type="qcurve" smooth="yes"/>
      <point x="506" y="1003"/>
      <point x="558" y="973"/>
      <point x="604" y="971" type="qcurve" smooth="yes"/>
      <point x="674" y="969"/>
      <point x="798" y="936"/>
      <point x="908" y="871"/>
      <point x="973" y="756"/>
      <point x="973" y="680" type="qcurve" smooth="yes"/>
      <point x="973" y="567"/>
      <point x="897" y="457" type="qcurve"/>
      <point x="922" y="412"/>
    </contour>
    <contour>
      <point x="610" y="537" type="qcurve"/>
      <point x="629" y="550"/>
      <point x="653" y="602"/>
      <point x="653" y="627" type="qcurve" smooth="yes"/>
      <point x="653" y="669"/>
      <point x="597" y="709"/>
      <point x="561" y="709" type="qcurve" smooth="yes"/>
      <point x="537" y="709"/>
      <point x="492" y="718"/>
      <point x="487" y="723" type="qcurve"/>
      <point x="446" y="686"/>
      <point x="446" y="631" type="qcurve" smooth="yes"/>
      <point x="446" y="598"/>
      <point x="486" y="561"/>
      <point x="533" y="552"/>
      <point x="597" y="542"/>
    </contour>
  </outline>
</glyph>
<glyph name="dieresis" format="2">
  <advance width="894"/>
  <unicode hex="00A8"/>
  <anchor x="647" y="1479" name="Anchor-13"/>
  <outline>
    <contour>
      <point x="246" y="1214" type="line"/>
      <point x="303" y="1479" type="line"/>
      <point x="571" y="1479" type="line"/>
      <point x="516" y="1214" type="line"/>
    </contour>
    <contour>
      <point x="666" y="1214" type="line"/>
      <point x="723" y="1479" type="line"/>
      <point x="989" y="1479" type="line"/>
      <point x="936" y="1214" type="line"/>
    </contour>
  </outline>
</glyph>
<glyph name="copyright" format="2">
  <advance width="1757"/>
  <unicode hex="00A9"/>
  <outline>
    <contour>
      <point x="121" y="727" type="qcurve" smooth="yes"/>
      <point x="121" y="883"/>
      <point x="239" y="1157"/>
      <point x="443" y="1352"/>
      <point x="731" y="1464"/>
      <point x="895" y="1464" type="qcurve" smooth="yes"/>
      <point x="1063" y="1464"/>
      <point x="1357" y="1352"/>
      <point x="1566" y="1157"/>
      <point x="1686" y="883"/>
      <point x="1686" y="727" type="qcurve" smooth="yes"/>
      <point x="1686" y="570"/>
      <point x="1566" y="295"/>
      <point x="1357" y="99"/>
      <point x="1063" y="-14"/>
      <point x="895" y="-14" type="qcurve" smooth="yes"/>
      <point x="731" y="-14"/>
      <point x="443" y="99"/>
      <point x="239" y="295"/>
      <point x="121" y="570"/>
    </contour>
    <contour>
      <point x="1559" y="725" type="qcurve" smooth="yes"/>
      <point x="1559" y="898"/>
      <point x="1387" y="1184"/>
      <point x="1082" y="1350"/>
      <point x="895" y="1350" type="qcurve" smooth="yes"/>
      <point x="759" y="1350"/>
      <point x="518" y="1253"/>
      <point x="347" y="1086"/>
      <point x="248" y="856"/>
      <point x="248" y="727" type="qcurve" smooth="yes"/>
      <point x="248" y="554"/>
      <point x="415" y="267"/>
      <point x="713" y="100"/>
      <point x="895" y="100" type="qcurve" smooth="yes"/>
      <point x="1080" y="100"/>
      <point x="1383" y="257"/>
      <point x="1559" y="544"/>
    </contour>
    <contour>
      <point x="381" y="725" type="qcurve" smooth="yes"/>
      <point x="381" y="822"/>
      <point x="450" y="998"/>
      <point x="579" y="1137"/>
      <point x="785" y="1219"/>
      <point x="911" y="1219" type="qcurve" smooth="yes"/>
      <point x="1080" y="1219"/>
      <point x="1329" y="1070"/>
      <point x="1389" y="942" type="qcurve"/>
      <point x="1071" y="844" type="line"/>
      <point x="1019" y="942"/>
      <point x="909" y="942" type="qcurve" smooth="yes"/>
      <point x="824" y="942"/>
      <point x="717" y="820"/>
      <point x="717" y="725" type="qcurve" smooth="yes"/>
      <point x="717" y="627"/>
      <point x="833" y="510"/>
      <point x="911" y="510" type="qcurve" smooth="yes"/>
      <point x="961" y="510"/>
      <point x="1048" y="563"/>
      <point x="1073" y="608" type="qcurve"/>
      <point x="1393" y="512" type="line"/>
      <point x="1336" y="389"/>
      <point x="1085" y="233"/>
      <point x="913" y="233" type="qcurve" smooth="yes"/>
      <point x="792" y="233"/>
      <point x="590" y="311"/>
      <point x="455" y="445"/>
      <point x="381" y="624"/>
    </contour>
  </outline>
</glyph>
<glyph name="ordfeminine" format="2">
  <advance width="878"/>
  <unicode hex="00AA"/>
  <anchor x="0" y="0" name="Anchor-11"/>
  <anchor x="0" y="0" name="Anchor-10"/>
  <anchor x="391" y="1063" name="Anchor-9"/>
  <anchor x="0" y="0" name="Anchor-8"/>
  <anchor x="786" y="23" name="Anchor-7"/>
  <outline>
    <contour>
      <point x="133" y="881" type="qcurve" smooth="yes"/>
      <point x="133" y="1007"/>
      <point x="335" y="1176"/>
      <point x="481" y="1176" type="qcurve" smooth="yes"/>
      <point x="570" y="1176"/>
      <point x="621" y="1145" type="qcurve"/>
      <point x="627" y="1176" type="line" smooth="yes"/>
      <point x="631" y="1208"/>
      <point x="631" y="1217" type="qcurve" smooth="yes"/>
      <point x="631" y="1303"/>
      <point x="528" y="1303" type="qcurve" smooth="yes"/>
      <point x="432" y="1303"/>
      <point x="299" y="1221" type="qcurve"/>
      <point x="262" y="1366" type="line"/>
      <point x="413" y="1462"/>
      <point x="584" y="1462" type="qcurve" smooth="yes"/>
      <point x="718" y="1462"/>
      <point x="858" y="1347"/>
      <point x="858" y="1237" type="qcurve" smooth="yes"/>
      <point x="858" y="1201"/>
      <point x="848" y="1149" type="qcurve" smooth="yes"/>
      <point x="811" y="967" type="line" smooth="yes"/>
      <point x="807" y="947"/>
      <point x="807" y="940" type="qcurve" smooth="yes"/>
      <point x="807" y="920"/>
      <point x="828" y="903"/>
      <point x="852" y="901" type="qcurve"/>
      <point x="809" y="702" type="line"/>
      <point x="751" y="690"/>
      <point x="705" y="690" type="qcurve" smooth="yes"/>
      <point x="586" y="690"/>
      <point x="586" y="784" type="qcurve" smooth="yes"/>
      <point x="586" y="803"/>
      <point x="588" y="821" type="qcurve"/>
      <point x="464" y="688"/>
      <point x="324" y="688" type="qcurve" smooth="yes"/>
      <point x="239" y="688"/>
      <point x="133" y="797"/>
    </contour>
    <contour>
      <point x="580" y="954" type="qcurve" smooth="yes"/>
      <point x="594" y="1022" type="line"/>
      <point x="552" y="1047"/>
      <point x="496" y="1047" type="qcurve" smooth="yes"/>
      <point x="438" y="1047"/>
      <point x="354" y="979"/>
      <point x="354" y="930" type="qcurve" smooth="yes"/>
      <point x="354" y="899"/>
      <point x="396" y="858"/>
      <point x="428" y="858" type="qcurve" smooth="yes"/>
      <point x="471" y="858"/>
      <point x="571" y="919"/>
    </contour>
  </outline>
</glyph>
<glyph name="guillemotleft" format="2">
  <advance width="1349"/>
  <unicode hex="00AB"/>
  <outline>
    <contour>
      <point x="66" y="600" type="line"/>
      <point x="678" y="995" type="line"/>
      <point x="623" y="731" type="line"/>
      <point x="307" y="530" type="line"/>
      <point x="539" y="344" type="line"/>
      <point x="483" y="80" type="line"/>
      <point x="31" y="444" type="line"/>
    </contour>
    <contour>
      <point x="702" y="600" type="line"/>
      <point x="1315" y="995" type="line"/>
      <point x="1260" y="731" type="line"/>
      <point x="946" y="530" type="line"/>
      <point x="1178" y="344" type="line"/>
      <point x="1122" y="80" type="line"/>
      <point x="670" y="444" type="line"/>
    </contour>
  </outline>
</glyph>
<glyph name="logicalnot" format="2">
  <advance width="1232"/>
  <unicode hex="00AC"/>
  <outline>
    <contour>
      <point x="1155" y="850" type="line"/>
      <point x="1018" y="201" type="line"/>
      <point x="741" y="201" type="line"/>
      <point x="817" y="555" type="line"/>
      <point x="94" y="555" type="line"/>
      <point x="156" y="850" type="line"/>
    </contour>
  </outline>
</glyph>
<glyph name="registered" format="2">
  <advance width="1757"/>
  <unicode hex="00AE"/>
  <outline>
    <contour>
      <point x="121" y="727" type="qcurve" smooth="yes"/>
      <point x="121" y="883"/>
      <point x="238" y="1157"/>
      <point x="443" y="1352"/>
      <point x="733" y="1464"/>
      <point x="899" y="1464" type="qcurve" smooth="yes"/>
      <point x="1120" y="1464"/>
      <point x="1481" y="1273"/>
      <point x="1686" y="935"/>
      <point x="1686" y="727" type="qcurve" smooth="yes"/>
      <point x="1686" y="570"/>
      <point x="1566" y="295"/>
      <point x="1357" y="99"/>
      <point x="1065" y="-14"/>
      <point x="733" y="-14"/>
      <point x="443" y="99"/>
      <point x="238" y="295"/>
      <point x="121" y="570"/>
    </contour>
    <contour>
      <point x="1552" y="723" type="qcurve" smooth="yes"/>
      <point x="1552" y="896"/>
      <point x="1384" y="1183"/>
      <point x="1084" y="1350"/>
      <point x="714" y="1350"/>
      <point x="418" y="1183"/>
      <point x="254" y="898"/>
      <point x="254" y="725" type="qcurve" smooth="yes"/>
      <point x="254" y="596"/>
      <point x="350" y="365"/>
      <point x="519" y="197"/>
      <point x="760" y="98"/>
      <point x="899" y="98" type="qcurve" smooth="yes"/>
      <point x="1082" y="98"/>
      <point x="1380" y="258"/>
      <point x="1552" y="545"/>
    </contour>
    <contour>
      <point x="559" y="1176" type="line"/>
      <point x="963" y="1176" type="line" smooth="yes"/>
      <point x="1084" y="1176"/>
      <point x="1253" y="987"/>
      <point x="1253" y="872" type="qcurve" smooth="yes"/>
      <point x="1253" y="792"/>
      <point x="1172" y="651"/>
      <point x="1106" y="616" type="qcurve"/>
      <point x="1311" y="287" type="line"/>
      <point x="1055" y="287" type="line"/>
      <point x="877" y="573" type="line"/>
      <point x="788" y="573" type="line"/>
      <point x="788" y="287" type="line"/>
      <point x="559" y="287" type="line"/>
    </contour>
    <contour>
      <point x="940" y="770" type="line" smooth="yes"/>
      <point x="980" y="770"/>
      <point x="1028" y="820"/>
      <point x="1028" y="872" type="qcurve" smooth="yes"/>
      <point x="1028" y="925"/>
      <point x="975" y="975"/>
      <point x="936" y="975" type="qcurve" smooth="yes"/>
      <point x="788" y="975" type="line"/>
      <point x="788" y="770" type="line"/>
    </contour>
  </outline>
</glyph>
<glyph name="macron" format="2">
  <advance width="800"/>
  <unicode hex="00AF"/>
  <anchor x="598" y="1468" name="Anchor-13"/>
  <outline>
    <contour>
      <point x="258" y="1270" type="line"/>
      <point x="299" y="1468" type="line"/>
      <point x="895" y="1468" type="line"/>
      <point x="854" y="1270" type="line"/>
    </contour>
  </outline>
</glyph>
<glyph name="degree" format="2">
  <advance width="583"/>
  <unicode hex="00B0"/>
  <outline>
    <contour>
      <point x="199" y="1204" type="qcurve" smooth="yes"/>
      <point x="199" y="1313"/>
      <point x="359" y="1483"/>
      <point x="473" y="1483" type="qcurve" smooth="yes"/>
      <point x="553" y="1483"/>
      <point x="649" y="1383"/>
      <point x="649" y="1305" type="qcurve" smooth="yes"/>
      <point x="649" y="1190"/>
      <point x="489" y="1032"/>
      <point x="375" y="1032" type="qcurve" smooth="yes"/>
      <point x="294" y="1032"/>
      <point x="199" y="1127"/>
    </contour>
    <contour>
      <point x="492" y="1272" type="qcurve" smooth="yes"/>
      <point x="492" y="1300"/>
      <point x="462" y="1327"/>
      <point x="438" y="1327" type="qcurve" smooth="yes"/>
      <point x="407" y="1327"/>
      <point x="354" y="1277"/>
      <point x="354" y="1245" type="qcurve" smooth="yes"/>
      <point x="354" y="1220"/>
      <point x="384" y="1186"/>
      <point x="410" y="1186" type="qcurve" smooth="yes"/>
      <point x="440" y="1186"/>
      <point x="492" y="1239"/>
    </contour>
  </outline>
</glyph>
<glyph name="plusminus" format="2">
  <advance width="1075"/>
  <unicode hex="00B1"/>
  <outline>
    <contour>
      <point x="891" y="911" type="line"/>
      <point x="891" y="651" type="line"/>
      <point x="664" y="651" type="line"/>
      <point x="664" y="403" type="line"/>
      <point x="369" y="403" type="line"/>
      <point x="369" y="651" type="line"/>
      <point x="141" y="651" type="line"/>
      <point x="141" y="911" type="line"/>
      <point x="369" y="911" type="line"/>
      <point x="369" y="1159" type="line"/>
      <point x="664" y="1159" type="line"/>
      <point x="664" y="911" type="line"/>
    </contour>
    <contour>
      <point x="139" y="33" type="line"/>
      <point x="139" y="293" type="line"/>
      <point x="889" y="293" type="line"/>
      <point x="889" y="33" type="line"/>
    </contour>
  </outline>
</glyph>
<glyph name="twosuperior" format="2">
  <advance width="847"/>
  <unicode hex="00B2"/>
  <outline>
    <contour>
      <point x="90" y="784" type="line"/>
      <point x="127" y="948"/>
      <point x="268" y="1120"/>
      <point x="428" y="1190" type="qcurve" smooth="yes"/>
      <point x="448" y="1199"/>
      <point x="541" y="1236"/>
      <point x="589" y="1256"/>
      <point x="659" y="1295"/>
      <point x="695" y="1329"/>
      <point x="723" y="1379"/>
      <point x="723" y="1407" type="qcurve" smooth="yes"/>
      <point x="723" y="1452"/>
      <point x="660" y="1503"/>
      <point x="604" y="1503" type="qcurve" smooth="yes"/>
      <point x="475" y="1503"/>
      <point x="348" y="1393" type="qcurve"/>
      <point x="262" y="1534" type="line"/>
      <point x="316" y="1590"/>
      <point x="538" y="1675"/>
      <point x="659" y="1675" type="qcurve" smooth="yes"/>
      <point x="793" y="1675"/>
      <point x="938" y="1557"/>
      <point x="938" y="1454" type="qcurve" smooth="yes"/>
      <point x="938" y="1207"/>
      <point x="629" y="1108" type="qcurve" smooth="yes"/>
      <point x="543" y="1077"/>
      <point x="452" y="1015"/>
      <point x="444" y="971" type="qcurve"/>
      <point x="838" y="971" type="line"/>
      <point x="795" y="784" type="line"/>
    </contour>
  </outline>
</glyph>
<glyph name="threesuperior" format="2">
  <advance width="817"/>
  <unicode hex="00B3"/>
  <outline>
    <contour>
      <point x="119" y="926" type="qcurve"/>
      <point x="244" y="1051" type="line"/>
      <point x="309" y="952"/>
      <point x="442" y="952" type="qcurve" smooth="yes"/>
      <point x="518" y="952"/>
      <point x="621" y="1013"/>
      <point x="621" y="1071" type="qcurve" smooth="yes"/>
      <point x="621" y="1115"/>
      <point x="530" y="1157"/>
      <point x="428" y="1157" type="qcurve" smooth="yes"/>
      <point x="381" y="1157" type="line"/>
      <point x="418" y="1325" type="line"/>
      <point x="463" y="1325" type="line" smooth="yes"/>
      <point x="578" y="1325"/>
      <point x="674" y="1376"/>
      <point x="674" y="1430" type="qcurve" smooth="yes"/>
      <point x="674" y="1469"/>
      <point x="609" y="1505"/>
      <point x="567" y="1505" type="qcurve" smooth="yes"/>
      <point x="438" y="1505"/>
      <point x="338" y="1413" type="qcurve"/>
      <point x="258" y="1556" type="line"/>
      <point x="315" y="1612"/>
      <point x="523" y="1675"/>
      <point x="623" y="1675" type="qcurve" smooth="yes"/>
      <point x="750" y="1675"/>
      <point x="897" y="1560"/>
      <point x="897" y="1466" type="qcurve" smooth="yes"/>
      <point x="897" y="1384"/>
      <point x="789" y="1270"/>
      <point x="700" y="1251" type="qcurve"/>
      <point x="760" y="1241"/>
      <point x="825" y="1139"/>
      <point x="825" y="1067" type="qcurve" smooth="yes"/>
      <point x="825" y="992"/>
      <point x="755" y="875"/>
      <point x="636" y="806"/>
      <point x="492" y="772"/>
      <point x="412" y="772" type="qcurve" smooth="yes"/>
      <point x="296" y="772"/>
      <point x="136" y="852"/>
    </contour>
  </outline>
</glyph>
<glyph name="acute" format="2">
  <advance width="600"/>
  <unicode hex="00B4"/>
  <anchor x="492" y="1495" name="Anchor-13"/>
  <outline>
    <contour>
      <point x="467" y="1200" type="line"/>
      <point x="250" y="1229" type="line"/>
      <point x="406" y="1495" type="line"/>
      <point x="702" y="1495" type="line"/>
    </contour>
  </outline>
</glyph>
<glyph name="mu" format="2">
  <advance width="1331"/>
  <unicode hex="00B5"/>
  <outline>
    <contour>
      <point x="231" y="1075" type="line"/>
      <point x="559" y="1075" type="line"/>
      <point x="428" y="459" type="line" smooth="yes"/>
      <point x="418" y="407"/>
      <point x="418" y="377" type="qcurve" smooth="yes"/>
      <point x="418" y="256"/>
      <point x="526" y="256" type="qcurve" smooth="yes"/>
      <point x="580" y="256"/>
      <point x="705" y="332"/>
      <point x="764" y="412" type="qcurve"/>
      <point x="903" y="1075" type="line"/>
      <point x="1231" y="1075" type="line"/>
      <point x="1081" y="369" type="line" smooth="yes"/>
      <point x="1077" y="341"/>
      <point x="1077" y="330" type="qcurve" smooth="yes"/>
      <point x="1077" y="302"/>
      <point x="1108" y="278"/>
      <point x="1145" y="276" type="qcurve"/>
      <point x="1085" y="0" type="line"/>
      <point x="994" y="-16"/>
      <point x="932" y="-16" type="qcurve" smooth="yes"/>
      <point x="760" y="-16"/>
      <point x="760" y="115" type="qcurve" smooth="yes"/>
      <point x="760" y="149"/>
      <point x="766" y="186" type="qcurve"/>
      <point x="726" y="118"/>
      <point x="530" y="-20"/>
      <point x="446" y="-20" type="qcurve" smooth="yes"/>
      <point x="390" y="-20"/>
      <point x="329" y="32"/>
      <point x="326" y="78" type="qcurve"/>
      <point x="238" y="-436" type="line"/>
      <point x="-90" y="-436" type="line"/>
    </contour>
  </outline>
</glyph>
<glyph name="paragraph" format="2">
  <advance width="1345"/>
  <unicode hex="00B6"/>
  <outline>
    <contour>
      <point x="805" y="1454" type="qcurve" smooth="yes"/>
      <point x="1434" y="1454" type="line"/>
      <point x="1382" y="1210" type="line"/>
      <point x="1245" y="1210" type="line"/>
      <point x="952" y="-164" type="line"/>
      <point x="676" y="-164" type="line"/>
      <point x="797" y="408" type="line"/>
      <point x="723" y="408" type="line"/>
      <point x="602" y="-164" type="line"/>
      <point x="324" y="-164" type="line"/>
      <point x="446" y="408" type="line"/>
      <point x="296" y="408"/>
      <point x="125" y="619"/>
      <point x="125" y="793" type="qcurve" smooth="yes"/>
      <point x="125" y="1095"/>
      <point x="492" y="1454"/>
    </contour>
    <contour>
      <point x="498" y="649" type="qcurve"/>
      <point x="618" y="1210" type="line"/>
      <point x="532" y="1202"/>
      <point x="399" y="965"/>
      <point x="399" y="817" type="qcurve" smooth="yes"/>
      <point x="399" y="746"/>
      <point x="454" y="655"/>
    </contour>
    <contour>
      <point x="971" y="1210" type="line"/>
      <point x="893" y="1210" type="line"/>
      <point x="774" y="649" type="line"/>
      <point x="850" y="649" type="line"/>
    </contour>
  </outline>
</glyph>
<glyph name="periodcentered" format="2">
  <advance width="487"/>
  <unicode hex="00B7"/>
  <outline>
    <contour>
      <point x="82" y="492" type="line"/>
      <point x="154" y="831" type="line"/>
      <point x="422" y="831" type="line"/>
      <point x="350" y="492" type="line"/>
    </contour>
  </outline>
</glyph>
<glyph name="cedilla" format="2">
  <advance width="645"/>
  <unicode hex="00B8"/>
  <outline>
    <contour>
      <point x="117" y="-430" type="qcurve" smooth="yes"/>
      <point x="7" y="-430"/>
      <point x="-88" y="-365" type="qcurve"/>
      <point x="27" y="-195" type="line"/>
      <point x="62" y="-236"/>
      <point x="109" y="-236" type="qcurve" smooth="yes"/>
      <point x="151" y="-236"/>
      <point x="209" y="-178"/>
      <point x="209" y="-129" type="qcurve" smooth="yes"/>
      <point x="209" y="-66"/>
      <point x="162" y="0" type="qcurve"/>
      <point x="279" y="66" type="line"/>
      <point x="387" y="-50"/>
      <point x="387" y="-168" type="qcurve" smooth="yes"/>
      <point x="387" y="-275"/>
      <point x="242" y="-430"/>
    </contour>
  </outline>
</glyph>
<glyph name="onesuperior" format="2">
  <advance width="612"/>
  <unicode hex="00B9"/>
  <outline>
    <contour>
      <point x="645" y="975" type="line"/>
      <point x="604" y="786" type="line"/>
      <point x="131" y="786" type="line"/>
      <point x="172" y="975" type="line"/>
      <point x="322" y="975" type="line"/>
      <point x="426" y="1473" type="line"/>
      <point x="396" y="1440"/>
      <point x="263" y="1366"/>
      <point x="221" y="1366" type="qcurve"/>
      <point x="262" y="1556" type="line"/>
      <point x="298" y="1556"/>
      <point x="401" y="1615"/>
      <point x="467" y="1670"/>
      <point x="469" y="1675" type="qcurve"/>
      <point x="662" y="1675" type="line"/>
      <point x="512" y="975" type="line"/>
    </contour>
  </outline>
</glyph>
<glyph name="ordmasculine" format="2">
  <advance width="872"/>
  <unicode hex="00BA"/>
  <anchor x="0" y="0" name="Anchor-11"/>
  <anchor x="0" y="0" name="Anchor-10"/>
  <anchor x="463" y="1063" name="Anchor-9"/>
  <anchor x="0" y="0" name="Anchor-8"/>
  <anchor x="461" y="0" name="Anchor-7"/>
  <outline>
    <contour>
      <point x="154" y="995" type="qcurve" smooth="yes"/>
      <point x="154" y="1084"/>
      <point x="220" y="1252"/>
      <point x="337" y="1383"/>
      <point x="513" y="1462"/>
      <point x="614" y="1462" type="qcurve" smooth="yes"/>
      <point x="757" y="1462"/>
      <point x="909" y="1288"/>
      <point x="909" y="1155" type="qcurve" smooth="yes"/>
      <point x="909" y="1067"/>
      <point x="843" y="900"/>
      <point x="727" y="768"/>
      <point x="551" y="688"/>
      <point x="449" y="688" type="qcurve" smooth="yes"/>
      <point x="307" y="688"/>
      <point x="154" y="863"/>
    </contour>
    <contour>
      <point x="672" y="1124" type="qcurve" smooth="yes"/>
      <point x="672" y="1188"/>
      <point x="618" y="1264"/>
      <point x="571" y="1264" type="qcurve" smooth="yes"/>
      <point x="500" y="1264"/>
      <point x="391" y="1122"/>
      <point x="391" y="1024" type="qcurve" smooth="yes"/>
      <point x="391" y="962"/>
      <point x="446" y="887"/>
      <point x="492" y="887" type="qcurve" smooth="yes"/>
      <point x="563" y="887"/>
      <point x="672" y="1027"/>
    </contour>
  </outline>
</glyph>
<glyph name="guillemotright" format="2">
  <advance width="1349"/>
  <unicode hex="00BB"/>
  <outline>
    <contour>
      <point x="606" y="444" type="line"/>
      <point x="0" y="80" type="line"/>
      <point x="55" y="344" type="line"/>
      <point x="367" y="530" type="line"/>
      <point x="137" y="731" type="line"/>
      <point x="193" y="995" type="line"/>
      <point x="639" y="600" type="line"/>
    </contour>
    <contour>
      <point x="1243" y="444" type="line"/>
      <point x="637" y="80" type="line"/>
      <point x="692" y="344" type="line"/>
      <point x="1004" y="530" type="line"/>
      <point x="774" y="731" type="line"/>
      <point x="831" y="995" type="line"/>
      <point x="1276" y="600" type="line"/>
    </contour>
  </outline>
</glyph>
<glyph name="onequarter" format="2">
  <advance width="1837"/>
  <unicode hex="00BC"/>
  <outline>
    <contour>
      <point x="608" y="797" type="line"/>
      <point x="569" y="608" type="line"/>
      <point x="94" y="608" type="line"/>
      <point x="135" y="797" type="line"/>
      <point x="285" y="797" type="line"/>
      <point x="391" y="1294" type="line"/>
      <point x="360" y="1261"/>
      <point x="226" y="1188"/>
      <point x="184" y="1188" type="qcurve"/>
      <point x="225" y="1378" type="line"/>
      <point x="261" y="1378"/>
      <point x="364" y="1437"/>
      <point x="430" y="1492"/>
      <point x="432" y="1497" type="qcurve"/>
      <point x="627" y="1497" type="line"/>
      <point x="475" y="797" type="line"/>
    </contour>
    <contour>
      <point x="137" y="115" type="line"/>
      <point x="827" y="778" type="line"/>
      <point x="1470" y="1473" type="line"/>
      <point x="1589" y="1341" type="line"/>
      <point x="920" y="694" type="line"/>
      <point x="254" y="-18" type="line"/>
    </contour>
    <contour>
      <point x="1331" y="61" type="line"/>
      <point x="1235" y="197" type="line"/>
      <point x="987" y="227" type="line"/>
      <point x="1192" y="520" type="line"/>
      <point x="1614" y="883" type="line"/>
      <point x="1702" y="731" type="line"/>
      <point x="1649" y="352" type="line"/>
      <point x="1708" y="319" type="line"/>
      <point x="1647" y="197" type="line"/>
      <point x="1567" y="135" type="line"/>
      <point x="1501" y="2" type="line"/>
    </contour>
    <contour>
      <point x="1288" y="352" type="line"/>
      <point x="1427" y="461" type="line"/>
      <point x="1346" y="514" type="line"/>
    </contour>
  </outline>
</glyph>
<glyph name="onehalf" format="2">
  <advance width="1890"/>
  <unicode hex="00BD"/>
  <outline>
    <contour>
      <point x="608" y="797" type="line"/>
      <point x="569" y="608" type="line"/>
      <point x="94" y="608" type="line"/>
      <point x="135" y="797" type="line"/>
      <point x="285" y="797" type="line"/>
      <point x="391" y="1294" type="line"/>
      <point x="360" y="1261"/>
      <point x="226" y="1188"/>
      <point x="184" y="1188" type="qcurve"/>
      <point x="225" y="1378" type="line"/>
      <point x="261" y="1378"/>
      <point x="364" y="1437"/>
      <point x="430" y="1492"/>
      <point x="432" y="1497" type="qcurve"/>
      <point x="627" y="1497" type="line"/>
      <point x="475" y="797" type="line"/>
    </contour>
    <contour>
      <point x="137" y="115" type="line"/>
      <point x="827" y="778" type="line"/>
      <point x="1470" y="1473" type="line"/>
      <point x="1589" y="1341" type="line"/>
      <point x="920" y="694" type="line"/>
      <point x="254" y="-18" type="line"/>
    </contour>
    <contour>
      <point x="1004" y="-2" type="line"/>
      <point x="1040" y="163"/>
      <point x="1174" y="333"/>
      <point x="1327" y="403" type="qcurve" smooth="yes"/>
      <point x="1345" y="411"/>
      <point x="1438" y="450"/>
      <point x="1482" y="469"/>
      <point x="1551" y="509"/>
      <point x="1585" y="543"/>
      <point x="1612" y="594"/>
      <point x="1612" y="623" type="qcurve" smooth="yes"/>
      <point x="1612" y="666"/>
      <point x="1552" y="717"/>
      <point x="1499" y="717" type="qcurve" smooth="yes"/>
      <point x="1375" y="717"/>
      <point x="1251" y="606" type="qcurve"/>
      <point x="1169" y="748" type="line"/>
      <point x="1219" y="804"/>
      <point x="1433" y="889"/>
      <point x="1552" y="889" type="qcurve" smooth="yes"/>
      <point x="1682" y="889"/>
      <point x="1821" y="772"/>
      <point x="1821" y="668" type="qcurve" smooth="yes"/>
      <point x="1821" y="422"/>
      <point x="1524" y="322" type="qcurve" smooth="yes"/>
      <point x="1361" y="266"/>
      <point x="1343" y="186" type="qcurve"/>
      <point x="1724" y="186" type="line"/>
      <point x="1681" y="-2" type="line"/>
    </contour>
  </outline>
</glyph>
<glyph name="threequarters" format="2">
  <advance width="2039"/>
  <unicode hex="00BE"/>
  <outline>
    <contour>
      <point x="86" y="748" type="qcurve"/>
      <point x="211" y="872" type="line"/>
      <point x="279" y="774"/>
      <point x="410" y="774" type="qcurve" smooth="yes"/>
      <point x="486" y="774"/>
      <point x="590" y="835"/>
      <point x="590" y="893" type="qcurve" smooth="yes"/>
      <point x="590" y="937"/>
      <point x="499" y="979"/>
      <point x="395" y="979" type="qcurve" smooth="yes"/>
      <point x="350" y="979" type="line"/>
      <point x="385" y="1147" type="line"/>
      <point x="430" y="1147" type="line" smooth="yes"/>
      <point x="547" y="1147"/>
      <point x="643" y="1197"/>
      <point x="643" y="1251" type="qcurve" smooth="yes"/>
      <point x="643" y="1290"/>
      <point x="578" y="1327"/>
      <point x="537" y="1327" type="qcurve" smooth="yes"/>
      <point x="403" y="1327"/>
      <point x="305" y="1233" type="qcurve"/>
      <point x="225" y="1378" type="line"/>
      <point x="283" y="1434"/>
      <point x="491" y="1497"/>
      <point x="590" y="1497" type="qcurve" smooth="yes"/>
      <point x="718" y="1497"/>
      <point x="864" y="1381"/>
      <point x="864" y="1288" type="qcurve" smooth="yes"/>
      <point x="864" y="1206"/>
      <point x="758" y="1092"/>
      <point x="668" y="1073" type="qcurve"/>
      <point x="728" y="1061"/>
      <point x="795" y="960"/>
      <point x="795" y="889" type="qcurve" smooth="yes"/>
      <point x="795" y="814"/>
      <point x="724" y="696"/>
      <point x="605" y="627"/>
      <point x="461" y="592"/>
      <point x="381" y="592" type="qcurve" smooth="yes"/>
      <point x="264" y="592"/>
      <point x="103" y="672"/>
    </contour>
    <contour>
      <point x="340" y="115" type="line"/>
      <point x="1030" y="778" type="line"/>
      <point x="1673" y="1473" type="line"/>
      <point x="1792" y="1341" type="line"/>
      <point x="1122" y="694" type="line"/>
      <point x="457" y="-18" type="line"/>
    </contour>
    <contour>
      <point x="1534" y="61" type="line"/>
      <point x="1438" y="197" type="line"/>
      <point x="1190" y="227" type="line"/>
      <point x="1395" y="520" type="line"/>
      <point x="1817" y="883" type="line"/>
      <point x="1905" y="731" type="line"/>
      <point x="1851" y="352" type="line"/>
      <point x="1911" y="319" type="line"/>
      <point x="1849" y="197" type="line"/>
      <point x="1769" y="135" type="line"/>
      <point x="1704" y="2" type="line"/>
    </contour>
    <contour>
      <point x="1491" y="352" type="line"/>
      <point x="1630" y="461" type="line"/>
      <point x="1548" y="514" type="line"/>
    </contour>
  </outline>
</glyph>
<glyph name="questiondown" format="2">
  <advance width="962"/>
  <unicode hex="00BF"/>
  <outline>
    <contour>
      <point x="842" y="1036" type="line"/>
      <point x="776" y="729" type="line"/>
      <point x="508" y="729" type="line"/>
      <point x="573" y="1036" type="line"/>
    </contour>
    <contour>
      <point x="739" y="535" type="line"/>
      <point x="729" y="483"/>
      <point x="702" y="405"/>
      <point x="653" y="322"/>
      <point x="574" y="252"/>
      <point x="518" y="223" type="qcurve" smooth="yes"/>
      <point x="453" y="190"/>
      <point x="377" y="149"/>
      <point x="291" y="92"/>
      <point x="247" y="43"/>
      <point x="217" y="-21"/>
      <point x="217" y="-57" type="qcurve" smooth="yes"/>
      <point x="217" y="-110"/>
      <point x="283" y="-172"/>
      <point x="334" y="-172" type="qcurve" smooth="yes"/>
      <point x="369" y="-172"/>
      <point x="434" y="-145"/>
      <point x="492" y="-92"/>
      <point x="525" y="-55"/>
      <point x="549" y="-25" type="qcurve"/>
      <point x="729" y="-172" type="line"/>
      <point x="653" y="-296"/>
      <point x="403" y="-436"/>
      <point x="264" y="-436" type="qcurve" smooth="yes"/>
      <point x="197" y="-436"/>
      <point x="78" y="-399"/>
      <point x="-20" y="-324"/>
      <point x="-78" y="-196"/>
      <point x="-78" y="-113" type="qcurve" smooth="yes"/>
      <point x="-78" y="-29"/>
      <point x="-40" y="103"/>
      <point x="37" y="202"/>
      <point x="121" y="271"/>
      <point x="182" y="307" type="qcurve" smooth="yes"/>
      <point x="211" y="324"/>
      <point x="301" y="370"/>
      <point x="362" y="403"/>
      <point x="426" y="447"/>
      <point x="464" y="502"/>
      <point x="471" y="535" type="qcurve"/>
    </contour>
  </outline>
</glyph>
<glyph name="Aacute" format="2">
  <advance width="1312"/>
  <unicode hex="00C1"/>
  <anchor x="0" y="0" name="Anchor-11"/>
  <anchor x="0" y="0" name="Anchor-10"/>
  <anchor x="1004" y="1880" name="Anchor-9"/>
  <anchor x="1184" y="0" name="Anchor-8"/>
  <anchor x="543" y="0" name="Anchor-7"/>
  <outline>
    <contour>
      <point x="979" y="1585" type="line"/>
      <point x="762" y="1614" type="line"/>
      <point x="918" y="1880" type="line"/>
      <point x="1214" y="1880" type="line"/>
    </contour>
    <contour>
      <point x="690" y="1454" type="line"/>
      <point x="995" y="1454" type="line"/>
      <point x="1184" y="0" type="line"/>
      <point x="840" y="0" type="line"/>
      <point x="809" y="326" type="line"/>
      <point x="395" y="326" type="line"/>
      <point x="229" y="0" type="line"/>
      <point x="-117" y="0" type="line"/>
    </contour>
    <contour>
      <point x="803" y="557" type="line"/>
      <point x="762" y="1071" type="line"/>
      <point x="496" y="557" type="line"/>
    </contour>
  </outline>
</glyph>
<glyph name="Atilde" format="2">
  <advance width="1312"/>
  <unicode hex="00C3"/>
  <anchor x="0" y="0" name="Anchor-11"/>
  <anchor x="0" y="0" name="Anchor-10"/>
  <anchor x="934" y="1874" name="Anchor-9"/>
  <anchor x="1184" y="0" name="Anchor-8"/>
  <anchor x="543" y="0" name="Anchor-7"/>
  <outline>
    <contour>
      <point x="766" y="1677" type="qcurve" smooth="yes"/>
      <point x="741" y="1677"/>
      <point x="700" y="1658"/>
      <point x="677" y="1631"/>
      <point x="661" y="1601"/>
      <point x="655" y="1582"/>
      <point x="655" y="1579" type="qcurve"/>
      <point x="477" y="1579" type="line"/>
      <point x="481" y="1599"/>
      <point x="511" y="1666"/>
      <point x="569" y="1749"/>
      <point x="640" y="1821"/>
      <point x="740" y="1870"/>
      <point x="793" y="1870" type="qcurve" smooth="yes"/>
      <point x="835" y="1870"/>
      <point x="906" y="1839"/>
      <point x="946" y="1803"/>
      <point x="1002" y="1772"/>
      <point x="1032" y="1772" type="qcurve" smooth="yes"/>
      <point x="1057" y="1772"/>
      <point x="1100" y="1793"/>
      <point x="1126" y="1819"/>
      <point x="1147" y="1853"/>
      <point x="1153" y="1868"/>
      <point x="1155" y="1874" type="qcurve"/>
      <point x="1329" y="1874" type="line"/>
      <point x="1326" y="1859"/>
      <point x="1296" y="1796"/>
      <point x="1238" y="1711"/>
      <point x="1165" y="1635"/>
      <point x="1060" y="1583"/>
      <point x="1006" y="1583" type="qcurve" smooth="yes"/>
      <point x="966" y="1583"/>
      <point x="895" y="1612"/>
      <point x="852" y="1648"/>
      <point x="794" y="1677"/>
    </contour>
    <contour>
      <point x="690" y="1454" type="line"/>
      <point x="995" y="1454" type="line"/>
      <point x="1184" y="0" type="line"/>
      <point x="840" y="0" type="line"/>
      <point x="809" y="326" type="line"/>
      <point x="395" y="326" type="line"/>
      <point x="229" y="0" type="line"/>
      <point x="-117" y="0" type="line"/>
    </contour>
    <contour>
      <point x="803" y="557" type="line"/>
      <point x="762" y="1071" type="line"/>
      <point x="496" y="557" type="line"/>
    </contour>
  </outline>
</glyph>
<glyph name="Adieresis" format="2">
  <advance width="1312"/>
  <unicode hex="00C4"/>
  <anchor x="0" y="0" name="Anchor-11"/>
  <anchor x="0" y="0" name="Anchor-10"/>
  <anchor x="932" y="1858" name="Anchor-9"/>
  <anchor x="1184" y="0" name="Anchor-8"/>
  <anchor x="543" y="0" name="Anchor-7"/>
  <outline>
    <contour>
      <point x="530" y="1593" type="line"/>
      <point x="588" y="1858" type="line"/>
      <point x="856" y="1858" type="line"/>
      <point x="801" y="1593" type="line"/>
    </contour>
    <contour>
      <point x="950" y="1593" type="line"/>
      <point x="1008" y="1858" type="line"/>
      <point x="1274" y="1858" type="line"/>
      <point x="1221" y="1593" type="line"/>
    </contour>
    <contour>
      <point x="690" y="1454" type="line"/>
      <point x="995" y="1454" type="line"/>
      <point x="1184" y="0" type="line"/>
      <point x="840" y="0" type="line"/>
      <point x="809" y="326" type="line"/>
      <point x="395" y="326" type="line"/>
      <point x="229" y="0" type="line"/>
      <point x="-117" y="0" type="line"/>
    </contour>
    <contour>
      <point x="803" y="557" type="line"/>
      <point x="762" y="1071" type="line"/>
      <point x="496" y="557" type="line"/>
    </contour>
  </outline>
</glyph>
<glyph name="Aring" format="2">
  <advance width="1312"/>
  <unicode hex="00C5"/>
  <anchor x="0" y="0" name="Anchor-11"/>
  <anchor x="0" y="0" name="Anchor-10"/>
  <anchor x="934" y="1874" name="Anchor-9"/>
  <anchor x="1184" y="0" name="Anchor-8"/>
  <anchor x="543" y="0" name="Anchor-7"/>
  <outline>
    <contour>
      <point x="936" y="1874" type="qcurve" smooth="yes"/>
      <point x="1022" y="1874"/>
      <point x="1116" y="1804"/>
      <point x="1116" y="1739" type="qcurve" smooth="yes"/>
      <point x="1116" y="1645"/>
      <point x="978" y="1540"/>
      <point x="864" y="1540" type="qcurve" smooth="yes"/>
      <point x="778" y="1540"/>
      <point x="682" y="1609"/>
      <point x="682" y="1673" type="qcurve" smooth="yes"/>
      <point x="682" y="1768"/>
      <point x="823" y="1874"/>
    </contour>
    <contour>
      <point x="821" y="1696" type="qcurve" smooth="yes"/>
      <point x="821" y="1669"/>
      <point x="856" y="1636"/>
      <point x="885" y="1636" type="qcurve" smooth="yes"/>
      <point x="922" y="1636"/>
      <point x="981" y="1685"/>
      <point x="981" y="1720" type="qcurve" smooth="yes"/>
      <point x="981" y="1745"/>
      <point x="944" y="1778"/>
      <point x="915" y="1778" type="qcurve" smooth="yes"/>
      <point x="876" y="1778"/>
      <point x="821" y="1731"/>
    </contour>
    <contour>
      <point x="690" y="1454" type="line"/>
      <point x="995" y="1454" type="line"/>
      <point x="1184" y="0" type="line"/>
      <point x="840" y="0" type="line"/>
      <point x="809" y="326" type="line"/>
      <point x="395" y="326" type="line"/>
      <point x="229" y="0" type="line"/>
      <point x="-117" y="0" type="line"/>
    </contour>
    <contour>
      <point x="803" y="557" type="line"/>
      <point x="762" y="1071" type="line"/>
      <point x="496" y="557" type="line"/>
    </contour>
  </outline>
</glyph>
<glyph name="Ccedilla" format="2">
  <advance width="1353"/>
  <unicode hex="00C7"/>
  <anchor x="0" y="0" name="Anchor-11"/>
  <anchor x="0" y="0" name="Anchor-10"/>
  <anchor x="872" y="1454" name="Anchor-9"/>
  <anchor x="0" y="0" name="Anchor-8"/>
  <anchor x="563" y="0" name="Anchor-7"/>
  <outline>
    <contour>
      <point x="684" y="287" type="qcurve" smooth="yes"/>
      <point x="778" y="287"/>
      <point x="965" y="387"/>
      <point x="1022" y="487" type="qcurve"/>
      <point x="1264" y="326" type="line"/>
      <point x="1174" y="179"/>
      <point x="835" y="1"/>
      <point x="659" y="-10" type="qcurve"/>
      <point x="709" y="-88"/>
      <point x="709" y="-168" type="qcurve" smooth="yes"/>
      <point x="709" y="-275"/>
      <point x="563" y="-430"/>
      <point x="438" y="-430" type="qcurve" smooth="yes"/>
      <point x="328" y="-430"/>
      <point x="233" y="-365" type="qcurve"/>
      <point x="348" y="-195" type="line"/>
      <point x="383" y="-236"/>
      <point x="430" y="-236" type="qcurve" smooth="yes"/>
      <point x="472" y="-236"/>
      <point x="530" y="-178"/>
      <point x="530" y="-129" type="qcurve" smooth="yes"/>
      <point x="530" y="-66"/>
      <point x="483" y="0" type="qcurve"/>
      <point x="487" y="2" type="line"/>
      <point x="356" y="32"/>
      <point x="162" y="218"/>
      <point x="68" y="465"/>
      <point x="68" y="604" type="qcurve" smooth="yes"/>
      <point x="68" y="725"/>
      <point x="149" y="972"/>
      <point x="304" y="1191"/>
      <point x="511" y="1362"/>
      <point x="782" y="1462"/>
      <point x="928" y="1462" type="qcurve" smooth="yes"/>
      <point x="1124" y="1462"/>
      <point x="1380" y="1290"/>
      <point x="1421" y="1145" type="qcurve"/>
      <point x="1128" y="967" type="line"/>
      <point x="1089" y="1163"/>
      <point x="862" y="1163" type="qcurve" smooth="yes"/>
      <point x="776" y="1163"/>
      <point x="626" y="1097"/>
      <point x="521" y="989"/>
      <point x="446" y="849"/>
      <point x="410" y="702"/>
      <point x="410" y="631" type="qcurve" smooth="yes"/>
      <point x="410" y="484"/>
      <point x="553" y="287"/>
    </contour>
  </outline>
</glyph>
<glyph name="Ecircumflex" format="2">
  <advance width="1179"/>
  <unicode hex="00CA"/>
  <anchor x="0" y="0" name="Anchor-11"/>
  <anchor x="0" y="0" name="Anchor-10"/>
  <anchor x="860" y="1874" name="Anchor-9"/>
  <anchor x="983" y="0" name="Anchor-8"/>
  <anchor x="477" y="0" name="Anchor-7"/>
  <outline>
    <contour>
      <point x="498" y="1653" type="line"/>
      <point x="760" y="1874" type="line"/>
      <point x="995" y="1874" type="line"/>
      <point x="1163" y="1653" type="line"/>
      <point x="979" y="1579" type="line"/>
      <point x="842" y="1708" type="line"/>
      <point x="649" y="1579" type="line"/>
    </contour>
    <contour>
      <point x="317" y="1454" type="line"/>
      <point x="1274" y="1454" type="line"/>
      <point x="1210" y="1159" type="line"/>
      <point x="590" y="1159" type="line"/>
      <point x="530" y="877" type="line"/>
      <point x="1063" y="877" type="line"/>
      <point x="1006" y="604" type="line"/>
      <point x="473" y="604" type="line"/>
      <point x="406" y="295" type="line"/>
      <point x="1044" y="295" type="line"/>
      <point x="983" y="0" type="line"/>
      <point x="8" y="0" type="line"/>
    </contour>
  </outline>
</glyph>
<glyph name="Igrave" format="2">
  <advance width="614"/>
  <unicode hex="00CC"/>
  <anchor x="0" y="0" name="Anchor-11"/>
  <anchor x="0" y="0" name="Anchor-10"/>
  <anchor x="471" y="1874" name="Anchor-9"/>
  <anchor x="344" y="0" name="Anchor-8"/>
  <anchor x="188" y="0" name="Anchor-7"/>
  <outline>
    <contour>
      <point x="268" y="1874" type="line"/>
      <point x="563" y="1874" type="line"/>
      <point x="608" y="1608" type="line"/>
      <point x="381" y="1575" type="line"/>
    </contour>
    <contour>
      <point x="317" y="1454" type="line"/>
      <point x="653" y="1454" type="line"/>
      <point x="344" y="0" type="line"/>
      <point x="8" y="0" type="line"/>
    </contour>
  </outline>
</glyph>
<glyph name="Iacute" format="2">
  <advance width="614"/>
  <unicode hex="00CD"/>
  <anchor x="0" y="0" name="Anchor-11"/>
  <anchor x="0" y="0" name="Anchor-10"/>
  <anchor x="655" y="1880" name="Anchor-9"/>
  <anchor x="344" y="0" name="Anchor-8"/>
  <anchor x="188" y="0" name="Anchor-7"/>
  <outline>
    <contour>
      <point x="631" y="1585" type="line"/>
      <point x="414" y="1614" type="line"/>
      <point x="569" y="1880" type="line"/>
      <point x="866" y="1880" type="line"/>
    </contour>
    <contour>
      <point x="317" y="1454" type="line"/>
      <point x="653" y="1454" type="line"/>
      <point x="344" y="0" type="line"/>
      <point x="8" y="0" type="line"/>
    </contour>
  </outline>
</glyph>
<glyph name="Icircumflex" format="2">
  <advance width="614"/>
  <unicode hex="00CE"/>
  <anchor x="0" y="0" name="Anchor-11"/>
  <anchor x="0" y="0" name="Anchor-10"/>
  <anchor x="571" y="1874" name="Anchor-9"/>
  <anchor x="344" y="0" name="Anchor-8"/>
  <anchor x="188" y="0" name="Anchor-7"/>
  <outline>
    <contour>
      <point x="209" y="1653" type="line"/>
      <point x="471" y="1874" type="line"/>
      <point x="707" y="1874" type="line"/>
      <point x="874" y="1653" type="line"/>
      <point x="690" y="1579" type="line"/>
      <point x="553" y="1708" type="line"/>
      <point x="360" y="1579" type="line"/>
    </contour>
    <contour>
      <point x="317" y="1454" type="line"/>
      <point x="653" y="1454" type="line"/>
      <point x="344" y="0" type="line"/>
      <point x="8" y="0" type="line"/>
    </contour>
  </outline>
</glyph>
<glyph name="Idieresis" format="2">
  <advance width="614"/>
  <unicode hex="00CF"/>
  <anchor x="0" y="0" name="Anchor-11"/>
  <anchor x="0" y="0" name="Anchor-10"/>
  <anchor x="584" y="1858" name="Anchor-9"/>
  <anchor x="344" y="0" name="Anchor-8"/>
  <anchor x="188" y="0" name="Anchor-7"/>
  <outline>
    <contour>
      <point x="182" y="1593" type="line"/>
      <point x="240" y="1858" type="line"/>
      <point x="508" y="1858" type="line"/>
      <point x="453" y="1593" type="line"/>
    </contour>
    <contour>
      <point x="602" y="1593" type="line"/>
      <point x="659" y="1858" type="line"/>
      <point x="926" y="1858" type="line"/>
      <point x="872" y="1593" type="line"/>
    </contour>
    <contour>
      <point x="317" y="1454" type="line"/>
      <point x="653" y="1454" type="line"/>
      <point x="344" y="0" type="line"/>
      <point x="8" y="0" type="line"/>
    </contour>
  </outline>
</glyph>
<glyph name="Ntilde" format="2">
  <advance width="1492"/>
  <unicode hex="00D1"/>
  <anchor x="0" y="0" name="Anchor-11"/>
  <anchor x="0" y="0" name="Anchor-10"/>
  <anchor x="1008" y="1870" name="Anchor-9"/>
  <anchor x="0" y="0" name="Anchor-8"/>
  <anchor x="629" y="0" name="Anchor-7"/>
  <outline>
    <contour>
      <point x="840" y="1673" type="qcurve" smooth="yes"/>
      <point x="815" y="1673"/>
      <point x="774" y="1654"/>
      <point x="751" y="1627"/>
      <point x="735" y="1597"/>
      <point x="729" y="1578"/>
      <point x="729" y="1575" type="qcurve"/>
      <point x="551" y="1575" type="line"/>
      <point x="555" y="1596"/>
      <point x="585" y="1662"/>
      <point x="642" y="1745"/>
      <point x="713" y="1817"/>
      <point x="813" y="1866"/>
      <point x="866" y="1866" type="qcurve" smooth="yes"/>
      <point x="908" y="1866"/>
      <point x="979" y="1835"/>
      <point x="1020" y="1798"/>
      <point x="1076" y="1767"/>
      <point x="1106" y="1767" type="qcurve" smooth="yes"/>
      <point x="1131" y="1767"/>
      <point x="1174" y="1788"/>
      <point x="1200" y="1814"/>
      <point x="1221" y="1849"/>
      <point x="1227" y="1864"/>
      <point x="1229" y="1870" type="qcurve"/>
      <point x="1403" y="1870" type="line"/>
      <point x="1400" y="1855"/>
      <point x="1370" y="1792"/>
      <point x="1311" y="1707"/>
      <point x="1238" y="1631"/>
      <point x="1133" y="1579"/>
      <point x="1079" y="1579" type="qcurve" smooth="yes"/>
      <point x="1039" y="1579"/>
      <point x="968" y="1608"/>
      <point x="926" y="1644"/>
      <point x="868" y="1673"/>
    </contour>
    <contour>
      <point x="317" y="1454" type="line"/>
      <point x="580" y="1454" type="line"/>
      <point x="1016" y="600" type="line"/>
      <point x="1196" y="1454" type="line"/>
      <point x="1532" y="1454" type="line"/>
      <point x="1223" y="0" type="line"/>
      <point x="956" y="0" type="line"/>
      <point x="520" y="831" type="line"/>
      <point x="344" y="0" type="line"/>
      <point x="8" y="0" type="line"/>
    </contour>
  </outline>
</glyph>
<glyph name="multiply" format="2">
  <advance width="1015"/>
  <unicode hex="00D7"/>
  <outline>
    <contour>
      <point x="891" y="371" type="line"/>
      <point x="686" y="168" type="line"/>
      <point x="489" y="362" type="line"/>
      <point x="295" y="168" type="line"/>
      <point x="92" y="371" type="line"/>
      <point x="287" y="565" type="line"/>
      <point x="102" y="752" type="line"/>
      <point x="307" y="954" type="line"/>
      <point x="492" y="770" type="line"/>
      <point x="676" y="954" type="line"/>
      <point x="879" y="752" type="line"/>
      <point x="694" y="567" type="line"/>
    </contour>
  </outline>
</glyph>
<glyph name="Oslash" format="2">
  <advance width="1501"/>
  <unicode hex="00D8"/>
  <anchor x="1225" y="1325" name="Anchor-11"/>
  <anchor x="766" y="727" name="Anchor-10"/>
  <anchor x="934" y="1450" name="Anchor-9"/>
  <anchor x="739" y="0" name="Anchor-8"/>
  <anchor x="645" y="0" name="Anchor-7"/>
  <outline>
    <contour>
      <point x="1604" y="1454" type="line"/>
      <point x="1386" y="1210" type="line"/>
      <point x="1481" y="1051"/>
      <point x="1481" y="854" type="qcurve" smooth="yes"/>
      <point x="1481" y="693"/>
      <point x="1338" y="377"/>
      <point x="1103" y="137"/>
      <point x="783" y="-12"/>
      <point x="616" y="-12" type="qcurve" smooth="yes"/>
      <point x="468" y="-12"/>
      <point x="354" y="51" type="qcurve"/>
      <point x="307" y="0" type="line"/>
      <point x="-53" y="0" type="line"/>
      <point x="162" y="240" type="line"/>
      <point x="68" y="397"/>
      <point x="68" y="596" type="qcurve" smooth="yes"/>
      <point x="68" y="758"/>
      <point x="212" y="1075"/>
      <point x="447" y="1314"/>
      <point x="768" y="1462"/>
      <point x="936" y="1462" type="qcurve" smooth="yes"/>
      <point x="1080" y="1462"/>
      <point x="1194" y="1399" type="qcurve"/>
      <point x="1243" y="1454" type="line"/>
    </contour>
    <contour>
      <point x="412" y="623" type="qcurve" smooth="yes"/>
      <point x="412" y="569"/>
      <point x="420" y="530" type="qcurve"/>
      <point x="969" y="1145" type="line"/>
      <point x="922" y="1163"/>
      <point x="866" y="1163" type="qcurve" smooth="yes"/>
      <point x="765" y="1163"/>
      <point x="590" y="1064"/>
      <point x="476" y="906"/>
      <point x="412" y="716"/>
    </contour>
    <contour>
      <point x="1137" y="831" type="qcurve" smooth="yes"/>
      <point x="1137" y="878"/>
      <point x="1128" y="922" type="qcurve"/>
      <point x="580" y="305" type="line"/>
      <point x="626" y="287"/>
      <point x="682" y="287" type="qcurve" smooth="yes"/>
      <point x="764" y="287"/>
      <point x="911" y="353"/>
      <point x="1018" y="464"/>
      <point x="1097" y="604"/>
      <point x="1137" y="757"/>
    </contour>
  </outline>
</glyph>
<glyph name="Udieresis" format="2">
  <advance width="1468"/>
  <unicode hex="00DC"/>
  <anchor x="1534" y="1323" name="Anchor-11"/>
  <anchor x="0" y="0" name="Anchor-10"/>
  <anchor x="993" y="1853" name="Anchor-9"/>
  <anchor x="727" y="0" name="Anchor-8"/>
  <anchor x="602" y="0" name="Anchor-7"/>
  <outline>
    <contour>
      <point x="592" y="1589" type="line"/>
      <point x="649" y="1853" type="line"/>
      <point x="918" y="1853" type="line"/>
      <point x="862" y="1589" type="line"/>
    </contour>
    <contour>
      <point x="1012" y="1589" type="line"/>
      <point x="1069" y="1853" type="line"/>
      <point x="1335" y="1853" type="line"/>
      <point x="1282" y="1589" type="line"/>
    </contour>
    <contour>
      <point x="113" y="483" type="qcurve" smooth="yes"/>
      <point x="113" y="594"/>
      <point x="137" y="711" type="qcurve" smooth="yes"/>
      <point x="297" y="1454" type="line"/>
      <point x="633" y="1454" type="line"/>
      <point x="473" y="711" type="line"/>
      <point x="455" y="608"/>
      <point x="455" y="545" type="qcurve" smooth="yes"/>
      <point x="455" y="427"/>
      <point x="556" y="287"/>
      <point x="664" y="287" type="qcurve" smooth="yes"/>
      <point x="739" y="287"/>
      <point x="866" y="358"/>
      <point x="955" y="481"/>
      <point x="1015" y="626"/>
      <point x="1034" y="711" type="qcurve" smooth="yes"/>
      <point x="1192" y="1454" type="line"/>
      <point x="1528" y="1454" type="line"/>
      <point x="1370" y="711" type="line" smooth="yes"/>
      <point x="1337" y="557"/>
      <point x="1208" y="299"/>
      <point x="1019" y="100"/>
      <point x="755" y="-12"/>
      <point x="600" y="-12" type="qcurve" smooth="yes"/>
      <point x="472" y="-12"/>
      <point x="280" y="63"/>
      <point x="167" y="199"/>
      <point x="113" y="374"/>
    </contour>
  </outline>
</glyph>
<glyph name="Thorn" format="2">
  <advance width="1196"/>
  <unicode hex="00DE"/>
  <outline>
    <contour>
      <point x="317" y="1454" type="line"/>
      <point x="653" y="1454" type="line"/>
      <point x="600" y="1200" type="line"/>
      <point x="823" y="1200" type="line" smooth="yes"/>
      <point x="932" y="1200"/>
      <point x="1101" y="1083"/>
      <point x="1186" y="899"/>
      <point x="1186" y="793" type="qcurve" smooth="yes"/>
      <point x="1186" y="710"/>
      <point x="1129" y="541"/>
      <point x="1023" y="396"/>
      <point x="886" y="282"/>
      <point x="714" y="217"/>
      <point x="625" y="217" type="qcurve" smooth="yes"/>
      <point x="389" y="217" type="line"/>
      <point x="344" y="0" type="line"/>
      <point x="8" y="0" type="line"/>
    </contour>
    <contour>
      <point x="670" y="512" type="line" smooth="yes"/>
      <point x="735" y="512"/>
      <point x="846" y="662"/>
      <point x="846" y="758" type="qcurve" smooth="yes"/>
      <point x="846" y="824"/>
      <point x="787" y="907"/>
      <point x="743" y="907" type="qcurve" smooth="yes"/>
      <point x="537" y="907" type="line"/>
      <point x="453" y="512" type="line"/>
    </contour>
  </outline>
</glyph>
<glyph name="germandbls" format="2">
  <advance width="1110"/>
  <unicode hex="00DF"/>
  <outline>
    <contour>
      <point x="428" y="289" type="line"/>
      <point x="538" y="289"/>
      <point x="686" y="406"/>
      <point x="686" y="510" type="qcurve" smooth="yes"/>
      <point x="686" y="576"/>
      <point x="603" y="653"/>
      <point x="551" y="653" type="qcurve" smooth="yes"/>
      <point x="508" y="653" type="line"/>
      <point x="571" y="946" type="line"/>
      <point x="610" y="946" type="line" smooth="yes"/>
      <point x="674" y="946"/>
      <point x="743" y="1036"/>
      <point x="743" y="1092" type="qcurve" smooth="yes"/>
      <point x="743" y="1136"/>
      <point x="693" y="1186"/>
      <point x="653" y="1186" type="qcurve" smooth="yes"/>
      <point x="542" y="1186"/>
      <point x="508" y="1018" type="qcurve" smooth="yes"/>
      <point x="291" y="0" type="line"/>
      <point x="-20" y="0" type="line"/>
      <point x="209" y="1075" type="line" smooth="yes"/>
      <point x="232" y="1185"/>
      <point x="388" y="1362"/>
      <point x="616" y="1462"/>
      <point x="743" y="1462" type="qcurve" smooth="yes"/>
      <point x="892" y="1462"/>
      <point x="1071" y="1314"/>
      <point x="1071" y="1186" type="qcurve" smooth="yes"/>
      <point x="1071" y="1069"/>
      <point x="933" y="860"/>
      <point x="850" y="825" type="qcurve"/>
      <point x="934" y="793"/>
      <point x="1028" y="633"/>
      <point x="1028" y="522" type="qcurve" smooth="yes"/>
      <point x="1028" y="407"/>
      <point x="949" y="223"/>
      <point x="820" y="104"/>
      <point x="645" y="24"/>
      <point x="463" y="-11"/>
      <point x="365" y="-12" type="qcurve"/>
    </contour>
  </outline>
</glyph>
<glyph name="atilde" format="2">
  <advance width="1298"/>
  <unicode hex="00E3"/>
  <anchor x="0" y="0" name="Anchor-11"/>
  <anchor x="0" y="0" name="Anchor-10"/>
  <anchor x="852" y="1495" name="Anchor-9"/>
  <anchor x="1094" y="0" name="Anchor-8"/>
  <anchor x="535" y="0" name="Anchor-7"/>
  <outline>
    <contour>
      <point x="684" y="1298" type="qcurve" smooth="yes"/>
      <point x="659" y="1298"/>
      <point x="618" y="1279"/>
      <point x="595" y="1252"/>
      <point x="579" y="1222"/>
      <point x="573" y="1203"/>
      <point x="573" y="1200" type="qcurve"/>
      <point x="395" y="1200" type="line"/>
      <point x="399" y="1220"/>
      <point x="429" y="1287"/>
      <point x="487" y="1370"/>
      <point x="558" y="1442"/>
      <point x="658" y="1491"/>
      <point x="711" y="1491" type="qcurve" smooth="yes"/>
      <point x="753" y="1491"/>
      <point x="824" y="1460"/>
      <point x="864" y="1424"/>
      <point x="920" y="1393"/>
      <point x="950" y="1393" type="qcurve" smooth="yes"/>
      <point x="975" y="1393"/>
      <point x="1018" y="1414"/>
      <point x="1044" y="1440"/>
      <point x="1065" y="1474"/>
      <point x="1071" y="1489"/>
      <point x="1073" y="1495" type="qcurve"/>
      <point x="1247" y="1495" type="line"/>
      <point x="1244" y="1480"/>
      <point x="1214" y="1417"/>
      <point x="1156" y="1332"/>
      <point x="1083" y="1256"/>
      <point x="978" y="1204"/>
      <point x="924" y="1204" type="qcurve" smooth="yes"/>
      <point x="884" y="1204"/>
      <point x="813" y="1233"/>
      <point x="770" y="1269"/>
      <point x="712" y="1298"/>
    </contour>
    <contour>
      <point x="23" y="416" type="qcurve" smooth="yes"/>
      <point x="23" y="549"/>
      <point x="119" y="800"/>
      <point x="278" y="984"/>
      <point x="494" y="1096"/>
      <point x="608" y="1096" type="qcurve" smooth="yes"/>
      <point x="711" y="1096"/>
      <point x="861" y="989"/>
      <point x="889" y="899" type="qcurve"/>
      <point x="926" y="1069" type="line"/>
      <point x="1255" y="1069" type="line"/>
      <point x="1104" y="369" type="line" smooth="yes"/>
      <point x="1100" y="333"/>
      <point x="1100" y="326" type="qcurve" smooth="yes"/>
      <point x="1100" y="301"/>
      <point x="1124" y="277"/>
      <point x="1151" y="276" type="qcurve"/>
      <point x="1094" y="0" type="line"/>
      <point x="1013" y="-16"/>
      <point x="954" y="-16" type="qcurve" smooth="yes"/>
      <point x="780" y="-16"/>
      <point x="780" y="121" type="qcurve" smooth="yes"/>
      <point x="780" y="140"/>
      <point x="786" y="178" type="qcurve"/>
      <point x="713" y="81"/>
      <point x="510" y="-20"/>
      <point x="403" y="-20" type="qcurve" smooth="yes"/>
      <point x="228" y="-20"/>
      <point x="23" y="224"/>
    </contour>
    <contour>
      <point x="786" y="406" type="qcurve"/>
      <point x="834" y="631" type="line"/>
      <point x="824" y="712"/>
      <point x="722" y="817"/>
      <point x="655" y="817" type="qcurve" smooth="yes"/>
      <point x="543" y="817"/>
      <point x="369" y="603"/>
      <point x="369" y="469" type="qcurve" smooth="yes"/>
      <point x="369" y="375"/>
      <point x="466" y="256"/>
      <point x="551" y="256" type="qcurve" smooth="yes"/>
      <point x="612" y="256"/>
      <point x="739" y="337"/>
    </contour>
  </outline>
</glyph>
<glyph name="egrave" format="2">
  <advance width="1142"/>
  <unicode hex="00E8"/>
  <anchor x="0" y="0" name="Anchor-11"/>
  <anchor x="0" y="0" name="Anchor-10"/>
  <anchor x="678" y="1489" name="Anchor-9"/>
  <anchor x="637" y="0" name="Anchor-8"/>
  <anchor x="473" y="0" name="Anchor-7"/>
  <outline>
    <contour>
      <point x="815" y="1223" type="line"/>
      <point x="588" y="1190" type="line"/>
      <point x="475" y="1489" type="line"/>
      <point x="770" y="1489" type="line"/>
    </contour>
    <contour>
      <point x="475" y="432" type="qcurve" smooth="yes"/>
      <point x="404" y="432"/>
      <point x="365" y="434" type="qcurve"/>
      <point x="365" y="420" type="line" smooth="yes"/>
      <point x="365" y="215"/>
      <point x="535" y="215" type="qcurve" smooth="yes"/>
      <point x="608" y="215"/>
      <point x="734" y="284"/>
      <point x="772" y="346" type="qcurve"/>
      <point x="1030" y="264" type="line"/>
      <point x="944" y="137"/>
      <point x="638" y="-20"/>
      <point x="475" y="-20" type="qcurve" smooth="yes"/>
      <point x="268" y="-20"/>
      <point x="25" y="231"/>
      <point x="25" y="434" type="qcurve" smooth="yes"/>
      <point x="25" y="568"/>
      <point x="133" y="812"/>
      <point x="316" y="990"/>
      <point x="574" y="1096"/>
      <point x="717" y="1096" type="qcurve" smooth="yes"/>
      <point x="901" y="1096"/>
      <point x="1114" y="933"/>
      <point x="1114" y="788" type="qcurve" smooth="yes"/>
      <point x="1114" y="613"/>
      <point x="792" y="432"/>
    </contour>
    <contour>
      <point x="664" y="860" type="qcurve" smooth="yes"/>
      <point x="577" y="860"/>
      <point x="440" y="737"/>
      <point x="403" y="637" type="qcurve"/>
      <point x="426" y="635"/>
      <point x="475" y="635" type="qcurve" smooth="yes"/>
      <point x="651" y="635"/>
      <point x="799" y="695"/>
      <point x="799" y="760" type="qcurve" smooth="yes"/>
      <point x="799" y="807"/>
      <point x="725" y="860"/>
    </contour>
  </outline>
</glyph>
<glyph name="igrave" format="2">
  <advance width="548"/>
  <unicode hex="00EC"/>
  <anchor x="0" y="0" name="Anchor-11"/>
  <anchor x="0" y="0" name="Anchor-10"/>
  <anchor x="406" y="1487" name="Anchor-9"/>
  <anchor x="379" y="20" name="Anchor-8"/>
  <anchor x="143" y="0" name="Anchor-7"/>
  <outline>
    <contour>
      <point x="203" y="1487" type="line"/>
      <point x="498" y="1487" type="line"/>
      <point x="543" y="1221" type="line"/>
      <point x="315" y="1188" type="line"/>
    </contour>
    <contour>
      <point x="209" y="1075" type="line"/>
      <point x="537" y="1075" type="line"/>
      <point x="307" y="0" type="line"/>
      <point x="-20" y="0" type="line"/>
    </contour>
  </outline>
</glyph>
<glyph name="iacute" format="2">
  <advance width="548"/>
  <unicode hex="00ED"/>
  <anchor x="0" y="0" name="Anchor-11"/>
  <anchor x="0" y="0" name="Anchor-10"/>
  <anchor x="528" y="1501" name="Anchor-9"/>
  <anchor x="379" y="20" name="Anchor-8"/>
  <anchor x="143" y="0" name="Anchor-7"/>
  <outline>
    <contour>
      <point x="504" y="1206" type="line"/>
      <point x="287" y="1235" type="line"/>
      <point x="442" y="1501" type="line"/>
      <point x="739" y="1501" type="line"/>
    </contour>
    <contour>
      <point x="209" y="1075" type="line"/>
      <point x="537" y="1075" type="line"/>
      <point x="307" y="0" type="line"/>
      <point x="-20" y="0" type="line"/>
    </contour>
  </outline>
</glyph>
<glyph name="icircumflex" format="2">
  <advance width="548"/>
  <unicode hex="00EE"/>
  <anchor x="0" y="0" name="Anchor-11"/>
  <anchor x="0" y="0" name="Anchor-10"/>
  <anchor x="444" y="1495" name="Anchor-9"/>
  <anchor x="379" y="20" name="Anchor-8"/>
  <anchor x="143" y="0" name="Anchor-7"/>
  <outline>
    <contour>
      <point x="82" y="1274" type="line"/>
      <point x="344" y="1495" type="line"/>
      <point x="580" y="1495" type="line"/>
      <point x="748" y="1274" type="line"/>
      <point x="563" y="1200" type="line"/>
      <point x="426" y="1329" type="line"/>
      <point x="233" y="1200" type="line"/>
    </contour>
    <contour>
      <point x="209" y="1075" type="line"/>
      <point x="537" y="1075" type="line"/>
      <point x="307" y="0" type="line"/>
      <point x="-20" y="0" type="line"/>
    </contour>
  </outline>
</glyph>
<glyph name="eth" format="2">
  <advance width="1222"/>
  <unicode hex="00F0"/>
  <outline>
    <contour>
      <point x="1214" y="1333" type="line"/>
      <point x="1057" y="1255" type="line"/>
      <point x="1176" y="1040"/>
      <point x="1176" y="772" type="qcurve" smooth="yes"/>
      <point x="1176" y="596"/>
      <point x="1069" y="298"/>
      <point x="881" y="94"/>
      <point x="620" y="-20"/>
      <point x="469" y="-20" type="qcurve" smooth="yes"/>
      <point x="264" y="-20"/>
      <point x="16" y="209"/>
      <point x="16" y="391" type="qcurve" smooth="yes"/>
      <point x="16" y="504"/>
      <point x="114" y="718"/>
      <point x="275" y="873"/>
      <point x="488" y="967"/>
      <point x="598" y="967" type="qcurve" smooth="yes"/>
      <point x="683" y="967"/>
      <point x="826" y="897"/>
      <point x="868" y="836" type="qcurve"/>
      <point x="865" y="913"/>
      <point x="854" y="967" type="qcurve" smooth="yes"/>
      <point x="837" y="1055"/>
      <point x="791" y="1145" type="qcurve"/>
      <point x="616" y="1057" type="line"/>
      <point x="551" y="1182" type="line"/>
      <point x="711" y="1262" type="line"/>
      <point x="606" y="1389"/>
      <point x="432" y="1495" type="qcurve"/>
      <point x="836" y="1495" type="line"/>
      <point x="908" y="1453"/>
      <point x="979" y="1372" type="qcurve"/>
      <point x="1149" y="1458" type="line"/>
    </contour>
    <contour>
      <point x="530" y="256" type="qcurve" smooth="yes"/>
      <point x="640" y="256"/>
      <point x="799" y="416"/>
      <point x="799" y="528" type="qcurve" smooth="yes"/>
      <point x="799" y="607"/>
      <point x="707" y="705"/>
      <point x="627" y="705" type="qcurve" smooth="yes"/>
      <point x="516" y="705"/>
      <point x="358" y="547"/>
      <point x="358" y="434" type="qcurve" smooth="yes"/>
      <point x="358" y="355"/>
      <point x="451" y="256"/>
    </contour>
  </outline>
</glyph>
<glyph name="ntilde" format="2">
  <advance width="1210"/>
  <unicode hex="00F1"/>
  <anchor x="0" y="0" name="Anchor-11"/>
  <anchor x="0" y="0" name="Anchor-10"/>
  <anchor x="842" y="1489" name="Anchor-9"/>
  <anchor x="0" y="0" name="Anchor-8"/>
  <anchor x="487" y="0" name="Anchor-7"/>
  <outline>
    <contour>
      <point x="674" y="1292" type="qcurve" smooth="yes"/>
      <point x="649" y="1292"/>
      <point x="608" y="1273"/>
      <point x="585" y="1246"/>
      <point x="569" y="1216"/>
      <point x="563" y="1197"/>
      <point x="563" y="1194" type="qcurve"/>
      <point x="385" y="1194" type="line"/>
      <point x="389" y="1215"/>
      <point x="419" y="1281"/>
      <point x="476" y="1364"/>
      <point x="547" y="1436"/>
      <point x="647" y="1485"/>
      <point x="700" y="1485" type="qcurve" smooth="yes"/>
      <point x="742" y="1485"/>
      <point x="813" y="1454"/>
      <point x="854" y="1417"/>
      <point x="910" y="1386"/>
      <point x="940" y="1386" type="qcurve" smooth="yes"/>
      <point x="965" y="1386"/>
      <point x="1008" y="1407"/>
      <point x="1034" y="1433"/>
      <point x="1055" y="1468"/>
      <point x="1061" y="1483"/>
      <point x="1063" y="1489" type="qcurve"/>
      <point x="1237" y="1489" type="line"/>
      <point x="1234" y="1474"/>
      <point x="1204" y="1411"/>
      <point x="1145" y="1326"/>
      <point x="1072" y="1250"/>
      <point x="967" y="1198"/>
      <point x="913" y="1198" type="qcurve" smooth="yes"/>
      <point x="873" y="1198"/>
      <point x="802" y="1227"/>
      <point x="760" y="1263"/>
      <point x="702" y="1292"/>
    </contour>
    <contour>
      <point x="209" y="1075" type="line"/>
      <point x="504" y="1075" type="line"/>
      <point x="465" y="895" type="line"/>
      <point x="540" y="991"/>
      <point x="768" y="1096"/>
      <point x="901" y="1096" type="qcurve" smooth="yes"/>
      <point x="1143" y="1096"/>
      <point x="1143" y="848" type="qcurve" smooth="yes"/>
      <point x="1143" y="785"/>
      <point x="1124" y="688" type="qcurve" smooth="yes"/>
      <point x="979" y="0" type="line"/>
      <point x="651" y="0" type="line"/>
      <point x="780" y="604" type="line" smooth="yes"/>
      <point x="788" y="645"/>
      <point x="788" y="686" type="qcurve" smooth="yes"/>
      <point x="788" y="747"/>
      <point x="736" y="807"/>
      <point x="690" y="807" type="qcurve" smooth="yes"/>
      <point x="630" y="807"/>
      <point x="481" y="697"/>
      <point x="438" y="616" type="qcurve"/>
      <point x="307" y="0" type="line"/>
      <point x="-20" y="0" type="line"/>
    </contour>
  </outline>
</glyph>
<glyph name="divide" format="2">
  <advance width="1050"/>
  <unicode hex="00F7"/>
  <outline>
    <contour>
      <point x="389" y="872" type="line"/>
      <point x="389" y="1165" type="line"/>
      <point x="666" y="1165" type="line"/>
      <point x="666" y="872" type="line"/>
    </contour>
    <contour>
      <point x="113" y="492" type="line"/>
      <point x="113" y="752" type="line"/>
      <point x="940" y="752" type="line"/>
      <point x="940" y="492" type="line"/>
    </contour>
    <contour>
      <point x="389" y="78" type="line"/>
      <point x="389" y="371" type="line"/>
      <point x="666" y="371" type="line"/>
      <point x="666" y="78" type="line"/>
    </contour>
  </outline>
</glyph>
<glyph name="oslash" format="2">
  <advance width="1210"/>
  <unicode hex="00F8"/>
  <outline>
    <contour>
      <point x="1231" y="1085" type="line"/>
      <point x="1067" y="932" type="line"/>
      <point x="1153" y="814"/>
      <point x="1153" y="647" type="qcurve" smooth="yes"/>
      <point x="1153" y="521"/>
      <point x="1053" y="281"/>
      <point x="878" y="94"/>
      <point x="618" y="-20"/>
      <point x="469" y="-20" type="qcurve" smooth="yes"/>
      <point x="298" y="-20"/>
      <point x="188" y="63" type="qcurve"/>
      <point x="109" y="-10" type="line"/>
      <point x="-68" y="-10" type="line"/>
      <point x="104" y="150" type="line"/>
      <point x="23" y="265"/>
      <point x="23" y="428" type="qcurve" smooth="yes"/>
      <point x="23" y="555"/>
      <point x="124" y="795"/>
      <point x="299" y="982"/>
      <point x="559" y="1096"/>
      <point x="707" y="1096" type="qcurve" smooth="yes"/>
      <point x="866" y="1096"/>
      <point x="981" y="1018" type="qcurve"/>
      <point x="1053" y="1085" type="line"/>
    </contour>
    <contour>
      <point x="647" y="817" type="qcurve" smooth="yes"/>
      <point x="535" y="817"/>
      <point x="365" y="612"/>
      <point x="365" y="467" type="qcurve" smooth="yes"/>
      <point x="365" y="432"/>
      <point x="371" y="397" type="qcurve"/>
      <point x="748" y="782" type="line"/>
      <point x="707" y="817"/>
    </contour>
    <contour>
      <point x="528" y="256" type="qcurve" smooth="yes"/>
      <point x="641" y="256"/>
      <point x="813" y="461"/>
      <point x="813" y="606" type="qcurve" smooth="yes"/>
      <point x="813" y="646"/>
      <point x="803" y="684" type="qcurve"/>
      <point x="424" y="297" type="line"/>
      <point x="465" y="256"/>
    </contour>
  </outline>
</glyph>
<glyph name="yacute" format="2">
  <advance width="1087"/>
  <unicode hex="00FD"/>
  <anchor x="0" y="0" name="Anchor-11"/>
  <anchor x="0" y="0" name="Anchor-10"/>
  <anchor x="770" y="1495" name="Anchor-9"/>
  <anchor x="0" y="0" name="Anchor-8"/>
  <anchor x="731" y="0" name="Anchor-7"/>
  <outline>
    <contour>
      <point x="745" y="1200" type="line"/>
      <point x="528" y="1229" type="line"/>
      <point x="684" y="1495" type="line"/>
      <point x="981" y="1495" type="line"/>
    </contour>
    <contour>
      <point x="-102" y="-227" type="line"/>
      <point x="21" y="-221"/>
      <point x="136" y="-171"/>
      <point x="193" y="-98" type="qcurve" smooth="yes"/>
      <point x="252" y="-23" type="line"/>
      <point x="92" y="1075" type="line"/>
      <point x="426" y="1075" type="line"/>
      <point x="485" y="281" type="line"/>
      <point x="555" y="395" type="line" smooth="yes"/>
      <point x="749" y="711"/>
      <point x="827" y="1075" type="qcurve"/>
      <point x="1143" y="1075" type="line"/>
      <point x="1087" y="875"/>
      <point x="921" y="535"/>
      <point x="721" y="211" type="qcurve" smooth="yes"/>
      <point x="557" y="-53" type="line" smooth="yes"/>
      <point x="414" y="-284"/>
      <point x="134" y="-471"/>
      <point x="-63" y="-473" type="qcurve"/>
    </contour>
  </outline>
</glyph>
<glyph name="thorn" format="2">
  <advance width="1253"/>
  <unicode hex="00FE"/>
  <outline>
    <contour>
      <point x="-115" y="-436" type="line"/>
      <point x="287" y="1454" type="line"/>
      <point x="625" y="1454" type="line"/>
      <point x="518" y="965" type="line"/>
      <point x="652" y="1096"/>
      <point x="836" y="1096" type="qcurve" smooth="yes"/>
      <point x="1006" y="1096"/>
      <point x="1208" y="847"/>
      <point x="1208" y="657" type="qcurve" smooth="yes"/>
      <point x="1208" y="481"/>
      <point x="1048" y="167"/>
      <point x="782" y="-20"/>
      <point x="633" y="-20" type="qcurve" smooth="yes"/>
      <point x="520" y="-20"/>
      <point x="371" y="82"/>
      <point x="344" y="174" type="qcurve"/>
      <point x="213" y="-436" type="line"/>
    </contour>
    <contour>
      <point x="580" y="256" type="qcurve" smooth="yes"/>
      <point x="690" y="256"/>
      <point x="866" y="472"/>
      <point x="866" y="604" type="qcurve" smooth="yes"/>
      <point x="866" y="698"/>
      <point x="767" y="817"/>
      <point x="682" y="817" type="qcurve" smooth="yes"/>
      <point x="622" y="817"/>
      <point x="496" y="738"/>
      <point x="449" y="670" type="qcurve"/>
      <point x="401" y="449" type="line"/>
      <point x="415" y="366"/>
      <point x="514" y="256"/>
    </contour>
  </outline>
</glyph>
<glyph name="Amacron" format="2">
  <advance width="1312"/>
  <unicode hex="0100"/>
  <anchor x="0" y="0" name="Anchor-11"/>
  <anchor x="0" y="0" name="Anchor-10"/>
  <anchor x="930" y="1847" name="Anchor-9"/>
  <anchor x="1184" y="0" name="Anchor-8"/>
  <anchor x="543" y="0" name="Anchor-7"/>
  <outline>
    <contour>
      <point x="590" y="1649" type="line"/>
      <point x="631" y="1847" type="line"/>
      <point x="1227" y="1847" type="line"/>
      <point x="1186" y="1649" type="line"/>
    </contour>
    <contour>
      <point x="690" y="1454" type="line"/>
      <point x="995" y="1454" type="line"/>
      <point x="1184" y="0" type="line"/>
      <point x="840" y="0" type="line"/>
      <point x="809" y="326" type="line"/>
      <point x="395" y="326" type="line"/>
      <point x="229" y="0" type="line"/>
      <point x="-117" y="0" type="line"/>
    </contour>
    <contour>
      <point x="803" y="557" type="line"/>
      <point x="762" y="1071" type="line"/>
      <point x="496" y="557" type="line"/>
    </contour>
  </outline>
</glyph>
<glyph name="amacron" format="2">
  <advance width="1298"/>
  <unicode hex="0101"/>
  <anchor x="0" y="0" name="Anchor-11"/>
  <anchor x="0" y="0" name="Anchor-10"/>
  <anchor x="848" y="1468" name="Anchor-9"/>
  <anchor x="1094" y="0" name="Anchor-8"/>
  <anchor x="535" y="0" name="Anchor-7"/>
  <outline>
    <contour>
      <point x="508" y="1270" type="line"/>
      <point x="549" y="1468" type="line"/>
      <point x="1145" y="1468" type="line"/>
      <point x="1104" y="1270" type="line"/>
    </contour>
    <contour>
      <point x="23" y="416" type="qcurve" smooth="yes"/>
      <point x="23" y="549"/>
      <point x="119" y="800"/>
      <point x="278" y="984"/>
      <point x="494" y="1096"/>
      <point x="608" y="1096" type="qcurve" smooth="yes"/>
      <point x="711" y="1096"/>
      <point x="861" y="989"/>
      <point x="889" y="899" type="qcurve"/>
      <point x="926" y="1069" type="line"/>
      <point x="1255" y="1069" type="line"/>
      <point x="1104" y="369" type="line" smooth="yes"/>
      <point x="1100" y="333"/>
      <point x="1100" y="326" type="qcurve" smooth="yes"/>
      <point x="1100" y="301"/>
      <point x="1124" y="277"/>
      <point x="1151" y="276" type="qcurve"/>
      <point x="1094" y="0" type="line"/>
      <point x="1013" y="-16"/>
      <point x="954" y="-16" type="qcurve" smooth="yes"/>
      <point x="780" y="-16"/>
      <point x="780" y="121" type="qcurve" smooth="yes"/>
      <point x="780" y="140"/>
      <point x="786" y="178" type="qcurve"/>
      <point x="713" y="81"/>
      <point x="510" y="-20"/>
      <point x="403" y="-20" type="qcurve" smooth="yes"/>
      <point x="228" y="-20"/>
      <point x="23" y="224"/>
    </contour>
    <contour>
      <point x="786" y="406" type="qcurve"/>
      <point x="834" y="631" type="line"/>
      <point x="824" y="712"/>
      <point x="722" y="817"/>
      <point x="655" y="817" type="qcurve" smooth="yes"/>
      <point x="543" y="817"/>
      <point x="369" y="603"/>
      <point x="369" y="469" type="qcurve" smooth="yes"/>
      <point x="369" y="375"/>
      <point x="466" y="256"/>
      <point x="551" y="256" type="qcurve" smooth="yes"/>
      <point x="612" y="256"/>
      <point x="739" y="337"/>
    </contour>
  </outline>
</glyph>
<glyph name="Aogonek" format="2">
  <advance width="1312"/>
  <unicode hex="0104"/>
  <anchor x="0" y="0" name="Anchor-11"/>
  <anchor x="0" y="0" name="Anchor-10"/>
  <anchor x="846" y="1454" name="Anchor-9"/>
  <anchor x="1184" y="0" name="Anchor-8"/>
  <anchor x="543" y="0" name="Anchor-7"/>
  <outline>
    <contour>
      <point x="1026" y="-182" type="qcurve" smooth="yes"/>
      <point x="1026" y="-245"/>
      <point x="1118" y="-248" type="qcurve"/>
      <point x="1018" y="-426" type="line"/>
      <point x="921" y="-411"/>
      <point x="815" y="-318"/>
      <point x="815" y="-194"/>
      <point x="906" y="-61"/>
      <point x="993" y="0" type="qcurve"/>
      <point x="840" y="0" type="line"/>
      <point x="809" y="326" type="line"/>
      <point x="395" y="326" type="line"/>
      <point x="229" y="0" type="line"/>
      <point x="-117" y="0" type="line"/>
      <point x="690" y="1454" type="line"/>
      <point x="995" y="1454" type="line"/>
      <point x="1184" y="0" type="line"/>
      <point x="1026" y="-116"/>
    </contour>
    <contour>
      <point x="496" y="557" type="line"/>
      <point x="803" y="557" type="line"/>
      <point x="762" y="1071" type="line"/>
    </contour>
  </outline>
</glyph>
<glyph name="aogonek" format="2">
  <advance width="1298"/>
  <unicode hex="0105"/>
  <anchor x="0" y="0" name="Anchor-11"/>
  <anchor x="0" y="0" name="Anchor-10"/>
  <anchor x="764" y="1075" name="Anchor-9"/>
  <anchor x="1094" y="0" name="Anchor-8"/>
  <anchor x="535" y="0" name="Anchor-7"/>
  <outline>
    <contour>
      <point x="1100" y="326" type="qcurve" smooth="yes"/>
      <point x="1100" y="301"/>
      <point x="1124" y="277"/>
      <point x="1151" y="276" type="qcurve"/>
      <point x="1094" y="0" type="line"/>
      <point x="936" y="-116"/>
      <point x="936" y="-182" type="qcurve" smooth="yes"/>
      <point x="936" y="-245"/>
      <point x="1028" y="-248" type="qcurve"/>
      <point x="928" y="-426" type="line"/>
      <point x="831" y="-411"/>
      <point x="725" y="-318"/>
      <point x="725" y="-256" type="qcurve" smooth="yes"/>
      <point x="725" y="-130"/>
      <point x="889" y="-10" type="qcurve"/>
      <point x="780" y="12"/>
      <point x="780" y="121" type="qcurve" smooth="yes"/>
      <point x="780" y="140"/>
      <point x="786" y="178" type="qcurve"/>
      <point x="713" y="81"/>
      <point x="510" y="-20"/>
      <point x="403" y="-20" type="qcurve" smooth="yes"/>
      <point x="228" y="-20"/>
      <point x="23" y="224"/>
      <point x="23" y="416" type="qcurve" smooth="yes"/>
      <point x="23" y="549"/>
      <point x="119" y="800"/>
      <point x="278" y="984"/>
      <point x="494" y="1096"/>
      <point x="608" y="1096" type="qcurve" smooth="yes"/>
      <point x="711" y="1096"/>
      <point x="861" y="989"/>
      <point x="889" y="899" type="qcurve"/>
      <point x="926" y="1069" type="line"/>
      <point x="1255" y="1069" type="line"/>
      <point x="1104" y="369" type="line" smooth="yes"/>
      <point x="1100" y="333"/>
    </contour>
    <contour>
      <point x="786" y="406" type="qcurve"/>
      <point x="834" y="631" type="line"/>
      <point x="824" y="712"/>
      <point x="722" y="817"/>
      <point x="655" y="817" type="qcurve" smooth="yes"/>
      <point x="543" y="817"/>
      <point x="369" y="603"/>
      <point x="369" y="469" type="qcurve" smooth="yes"/>
      <point x="369" y="375"/>
      <point x="466" y="256"/>
      <point x="551" y="256" type="qcurve" smooth="yes"/>
      <point x="612" y="256"/>
      <point x="739" y="337"/>
    </contour>
  </outline>
</glyph>
<glyph name="cacute" format="2">
  <advance width="1122"/>
  <unicode hex="0107"/>
  <anchor x="0" y="0" name="Anchor-11"/>
  <anchor x="0" y="0" name="Anchor-10"/>
  <anchor x="864" y="1495" name="Anchor-9"/>
  <anchor x="0" y="0" name="Anchor-8"/>
  <anchor x="487" y="0" name="Anchor-7"/>
  <outline>
    <contour>
      <point x="840" y="1200" type="line"/>
      <point x="623" y="1229" type="line"/>
      <point x="778" y="1495" type="line"/>
      <point x="1075" y="1495" type="line"/>
    </contour>
    <contour>
      <point x="23" y="558"/>
      <point x="123" y="797"/>
      <point x="298" y="983"/>
      <point x="558" y="1096"/>
      <point x="707" y="1096" type="qcurve" smooth="yes"/>
      <point x="881" y="1096"/>
      <point x="1095" y="943"/>
      <point x="1130" y="811" type="qcurve"/>
      <point x="793" y="715" type="line"/>
      <point x="754" y="817"/>
      <point x="647" y="817" type="qcurve" smooth="yes"/>
      <point x="535" y="817"/>
      <point x="362" y="616"/>
      <point x="362" y="469" type="qcurve" smooth="yes"/>
      <point x="362" y="374"/>
      <point x="453" y="256"/>
      <point x="526" y="256" type="qcurve" smooth="yes"/>
      <point x="580" y="256"/>
      <point x="685" y="315"/>
      <point x="717" y="362" type="qcurve"/>
      <point x="1016" y="264" type="line"/>
      <point x="926" y="135"/>
      <point x="642" y="-20"/>
      <point x="473" y="-20" type="qcurve" smooth="yes"/>
      <point x="328" y="-20"/>
      <point x="120" y="105"/>
      <point x="23" y="306"/>
    </contour>
  </outline>
</glyph>
<glyph name="Ccircumflex" format="2">
  <advance width="1353"/>
  <unicode hex="0108"/>
  <anchor x="0" y="0" name="Anchor-11"/>
  <anchor x="0" y="0" name="Anchor-10"/>
  <anchor x="946" y="1874" name="Anchor-9"/>
  <anchor x="0" y="0" name="Anchor-8"/>
  <anchor x="563" y="0" name="Anchor-7"/>
  <outline>
    <contour>
      <point x="584" y="1653" type="line"/>
      <point x="846" y="1874" type="line"/>
      <point x="1081" y="1874" type="line"/>
      <point x="1249" y="1653" type="line"/>
      <point x="1065" y="1579" type="line"/>
      <point x="928" y="1708" type="line"/>
      <point x="735" y="1579" type="line"/>
    </contour>
    <contour>
      <point x="68" y="604" type="qcurve" smooth="yes"/>
      <point x="68" y="725"/>
      <point x="149" y="972"/>
      <point x="304" y="1191"/>
      <point x="511" y="1362"/>
      <point x="782" y="1462"/>
      <point x="928" y="1462" type="qcurve" smooth="yes"/>
      <point x="1124" y="1462"/>
      <point x="1380" y="1290"/>
      <point x="1421" y="1145" type="qcurve"/>
      <point x="1128" y="967" type="line"/>
      <point x="1089" y="1163"/>
      <point x="862" y="1163" type="qcurve" smooth="yes"/>
      <point x="776" y="1163"/>
      <point x="626" y="1097"/>
      <point x="521" y="989"/>
      <point x="446" y="849"/>
      <point x="410" y="702"/>
      <point x="410" y="631" type="qcurve" smooth="yes"/>
      <point x="410" y="484"/>
      <point x="553" y="287"/>
      <point x="684" y="287" type="qcurve" smooth="yes"/>
      <point x="778" y="287"/>
      <point x="965" y="387"/>
      <point x="1022" y="487" type="qcurve"/>
      <point x="1264" y="326" type="line"/>
      <point x="1200" y="221"/>
      <point x="976" y="64"/>
      <point x="731" y="-12"/>
      <point x="614" y="-12" type="qcurve" smooth="yes"/>
      <point x="511" y="-12"/>
      <point x="334" y="56"/>
      <point x="205" y="174"/>
      <point x="113" y="330"/>
      <point x="68" y="509"/>
    </contour>
  </outline>
</glyph>
<glyph name="ccaron" format="2">
  <advance width="1122"/>
  <unicode hex="010D"/>
  <anchor x="0" y="0" name="Anchor-11"/>
  <anchor x="0" y="0" name="Anchor-10"/>
  <anchor x="793" y="1489" name="Anchor-9"/>
  <anchor x="0" y="0" name="Anchor-8"/>
  <anchor x="487" y="0" name="Anchor-7"/>
  <outline>
    <contour>
      <point x="438" y="1413" type="line"/>
      <point x="623" y="1489" type="line"/>
      <point x="760" y="1360" type="line"/>
      <point x="952" y="1489" type="line"/>
      <point x="1104" y="1413" type="line"/>
      <point x="842" y="1194" type="line"/>
      <point x="606" y="1194" type="line"/>
    </contour>
    <contour>
      <point x="23" y="558"/>
      <point x="123" y="797"/>
      <point x="298" y="983"/>
      <point x="558" y="1096"/>
      <point x="707" y="1096" type="qcurve" smooth="yes"/>
      <point x="881" y="1096"/>
      <point x="1095" y="943"/>
      <point x="1130" y="811" type="qcurve"/>
      <point x="793" y="715" type="line"/>
      <point x="754" y="817"/>
      <point x="647" y="817" type="qcurve" smooth="yes"/>
      <point x="535" y="817"/>
      <point x="362" y="616"/>
      <point x="362" y="469" type="qcurve" smooth="yes"/>
      <point x="362" y="374"/>
      <point x="453" y="256"/>
      <point x="526" y="256" type="qcurve" smooth="yes"/>
      <point x="580" y="256"/>
      <point x="685" y="315"/>
      <point x="717" y="362" type="qcurve"/>
      <point x="1016" y="264" type="line"/>
      <point x="926" y="135"/>
      <point x="642" y="-20"/>
      <point x="473" y="-20" type="qcurve" smooth="yes"/>
      <point x="328" y="-20"/>
      <point x="120" y="105"/>
      <point x="23" y="306"/>
    </contour>
  </outline>
</glyph>
<glyph name="Dcaron" format="2">
  <advance width="1419"/>
  <unicode hex="010E"/>
  <anchor x="0" y="0" name="Anchor-11"/>
  <anchor x="680" y="727" name="Anchor-10"/>
  <anchor x="918" y="1872" name="Anchor-9"/>
  <anchor x="0" y="0" name="Anchor-8"/>
  <anchor x="522" y="0" name="Anchor-7"/>
  <outline>
    <contour>
      <point x="563" y="1796" type="line"/>
      <point x="748" y="1872" type="line"/>
      <point x="885" y="1743" type="line"/>
      <point x="1077" y="1872" type="line"/>
      <point x="1229" y="1796" type="line"/>
      <point x="967" y="1577" type="line"/>
      <point x="731" y="1577" type="line"/>
    </contour>
    <contour>
      <point x="317" y="1454" type="line"/>
      <point x="838" y="1454" type="line" smooth="yes"/>
      <point x="976" y="1454"/>
      <point x="1192" y="1367"/>
      <point x="1326" y="1213"/>
      <point x="1395" y="1010"/>
      <point x="1395" y="889" type="qcurve" smooth="yes"/>
      <point x="1395" y="700"/>
      <point x="1262" y="369"/>
      <point x="1032" y="135"/>
      <point x="711" y="0"/>
      <point x="528" y="0" type="qcurve" smooth="yes"/>
      <point x="8" y="0" type="line"/>
    </contour>
    <contour>
      <point x="590" y="295" type="line" smooth="yes"/>
      <point x="690" y="295"/>
      <point x="863" y="384"/>
      <point x="980" y="534"/>
      <point x="1047" y="732"/>
      <point x="1047" y="840" type="qcurve" smooth="yes"/>
      <point x="1047" y="986"/>
      <point x="905" y="1159"/>
      <point x="774" y="1159" type="qcurve" smooth="yes"/>
      <point x="590" y="1159" type="line"/>
      <point x="406" y="295" type="line"/>
    </contour>
  </outline>
</glyph>
<glyph name="Dcroat" format="2">
  <advance width="1427"/>
  <unicode hex="0110"/>
  <outline>
    <contour>
      <point x="846" y="1454" type="line" smooth="yes"/>
      <point x="984" y="1454"/>
      <point x="1200" y="1367"/>
      <point x="1334" y="1213"/>
      <point x="1403" y="1010"/>
      <point x="1403" y="889" type="qcurve" smooth="yes"/>
      <point x="1403" y="700"/>
      <point x="1270" y="369"/>
      <point x="1041" y="135"/>
      <point x="720" y="0"/>
      <point x="537" y="0" type="qcurve" smooth="yes"/>
      <point x="16" y="0" type="line"/>
      <point x="145" y="610" type="line"/>
      <point x="66" y="610" type="line"/>
      <point x="117" y="852" type="line"/>
      <point x="197" y="852" type="line"/>
      <point x="326" y="1454" type="line"/>
    </contour>
    <contour>
      <point x="598" y="295" type="line" smooth="yes"/>
      <point x="698" y="295"/>
      <point x="872" y="384"/>
      <point x="990" y="534"/>
      <point x="1057" y="732"/>
      <point x="1057" y="840" type="qcurve" smooth="yes"/>
      <point x="1057" y="986"/>
      <point x="915" y="1159"/>
      <point x="784" y="1159" type="qcurve" smooth="yes"/>
      <point x="600" y="1159" type="line"/>
      <point x="535" y="852" type="line"/>
      <point x="776" y="852" type="line"/>
      <point x="723" y="610" type="line"/>
      <point x="481" y="610" type="line"/>
      <point x="414" y="295" type="line"/>
    </contour>
  </outline>
</glyph>
<glyph name="Emacron" format="2">
  <advance width="1179"/>
  <unicode hex="0112"/>
  <anchor x="0" y="0" name="Anchor-11"/>
  <anchor x="0" y="0" name="Anchor-10"/>
  <anchor x="870" y="1847" name="Anchor-9"/>
  <anchor x="983" y="0" name="Anchor-8"/>
  <anchor x="477" y="0" name="Anchor-7"/>
  <outline>
    <contour>
      <point x="530" y="1649" type="line"/>
      <point x="571" y="1847" type="line"/>
      <point x="1167" y="1847" type="line"/>
      <point x="1126" y="1649" type="line"/>
    </contour>
    <contour>
      <point x="317" y="1454" type="line"/>
      <point x="1274" y="1454" type="line"/>
      <point x="1210" y="1159" type="line"/>
      <point x="590" y="1159" type="line"/>
      <point x="530" y="877" type="line"/>
      <point x="1063" y="877" type="line"/>
      <point x="1006" y="604" type="line"/>
      <point x="473" y="604" type="line"/>
      <point x="406" y="295" type="line"/>
      <point x="1044" y="295" type="line"/>
      <point x="983" y="0" type="line"/>
      <point x="8" y="0" type="line"/>
    </contour>
  </outline>
</glyph>
<glyph name="Edot" format="2">
  <advance width="1179"/>
  <unicode hex="0116"/>
  <anchor x="0" y="0" name="Anchor-11"/>
  <anchor x="0" y="0" name="Anchor-10"/>
  <anchor x="877" y="1874" name="Anchor-9"/>
  <anchor x="983" y="0" name="Anchor-8"/>
  <anchor x="477" y="0" name="Anchor-7"/>
  <outline>
    <contour>
      <point x="670" y="1593" type="line"/>
      <point x="729" y="1874" type="line"/>
      <point x="1024" y="1874" type="line"/>
      <point x="963" y="1593" type="line"/>
    </contour>
    <contour>
      <point x="317" y="1454" type="line"/>
      <point x="1274" y="1454" type="line"/>
      <point x="1210" y="1159" type="line"/>
      <point x="590" y="1159" type="line"/>
      <point x="530" y="877" type="line"/>
      <point x="1063" y="877" type="line"/>
      <point x="1006" y="604" type="line"/>
      <point x="473" y="604" type="line"/>
      <point x="406" y="295" type="line"/>
      <point x="1044" y="295" type="line"/>
      <point x="983" y="0" type="line"/>
      <point x="8" y="0" type="line"/>
    </contour>
  </outline>
</glyph>
<glyph name="Eogonek" format="2">
  <advance width="1179"/>
  <unicode hex="0118"/>
  <anchor x="0" y="0" name="Anchor-11"/>
  <anchor x="0" y="0" name="Anchor-10"/>
  <anchor x="786" y="1454" name="Anchor-9"/>
  <anchor x="983" y="0" name="Anchor-8"/>
  <anchor x="477" y="0" name="Anchor-7"/>
  <outline>
    <contour>
      <point x="1210" y="1159" type="line"/>
      <point x="590" y="1159" type="line"/>
      <point x="530" y="877" type="line"/>
      <point x="1063" y="877" type="line"/>
      <point x="1006" y="604" type="line"/>
      <point x="473" y="604" type="line"/>
      <point x="406" y="295" type="line"/>
      <point x="1044" y="295" type="line"/>
      <point x="983" y="0" type="line"/>
      <point x="825" y="-116"/>
      <point x="825" y="-182" type="qcurve" smooth="yes"/>
      <point x="825" y="-245"/>
      <point x="918" y="-248" type="qcurve"/>
      <point x="817" y="-426" type="line"/>
      <point x="720" y="-411"/>
      <point x="614" y="-318"/>
      <point x="614" y="-194"/>
      <point x="706" y="-61"/>
      <point x="793" y="0" type="qcurve"/>
      <point x="8" y="0" type="line"/>
      <point x="317" y="1454" type="line"/>
      <point x="1274" y="1454" type="line"/>
    </contour>
  </outline>
</glyph>
<glyph name="eogonek" format="2">
  <advance width="1142"/>
  <unicode hex="0119"/>
  <anchor x="0" y="0" name="Anchor-11"/>
  <anchor x="0" y="0" name="Anchor-10"/>
  <anchor x="705" y="1069" name="Anchor-9"/>
  <anchor x="637" y="0" name="Anchor-8"/>
  <anchor x="473" y="0" name="Anchor-7"/>
  <outline>
    <contour>
      <point x="475" y="432" type="qcurve" smooth="yes"/>
      <point x="404" y="432"/>
      <point x="365" y="434" type="qcurve"/>
      <point x="365" y="420" type="line" smooth="yes"/>
      <point x="365" y="215"/>
      <point x="535" y="215" type="qcurve" smooth="yes"/>
      <point x="608" y="215"/>
      <point x="734" y="284"/>
      <point x="772" y="346" type="qcurve"/>
      <point x="1030" y="264" type="line"/>
      <point x="966" y="170"/>
      <point x="758" y="31"/>
      <point x="637" y="0" type="qcurve"/>
      <point x="479" y="-116"/>
      <point x="479" y="-182" type="qcurve" smooth="yes"/>
      <point x="479" y="-245"/>
      <point x="571" y="-248" type="qcurve"/>
      <point x="471" y="-426" type="line"/>
      <point x="374" y="-411"/>
      <point x="268" y="-318"/>
      <point x="268" y="-256" type="qcurve" smooth="yes"/>
      <point x="268" y="-199"/>
      <point x="348" y="-75"/>
      <point x="422" y="-18" type="qcurve"/>
      <point x="237" y="-1"/>
      <point x="25" y="244"/>
      <point x="25" y="434" type="qcurve" smooth="yes"/>
      <point x="25" y="568"/>
      <point x="133" y="812"/>
      <point x="316" y="990"/>
      <point x="574" y="1096"/>
      <point x="717" y="1096" type="qcurve" smooth="yes"/>
      <point x="901" y="1096"/>
      <point x="1114" y="933"/>
      <point x="1114" y="788" type="qcurve" smooth="yes"/>
      <point x="1114" y="613"/>
      <point x="792" y="432"/>
    </contour>
    <contour>
      <point x="664" y="860" type="qcurve" smooth="yes"/>
      <point x="577" y="860"/>
      <point x="440" y="737"/>
      <point x="403" y="637" type="qcurve"/>
      <point x="426" y="635"/>
      <point x="475" y="635" type="qcurve" smooth="yes"/>
      <point x="651" y="635"/>
      <point x="799" y="695"/>
      <point x="799" y="760" type="qcurve" smooth="yes"/>
      <point x="799" y="807"/>
      <point x="725" y="860"/>
    </contour>
  </outline>
</glyph>
<glyph name="Gbreve" format="2">
  <advance width="1441"/>
  <unicode hex="011E"/>
  <anchor x="0" y="0" name="Anchor-11"/>
  <anchor x="0" y="0" name="Anchor-10"/>
  <anchor x="1020" y="1870" name="Anchor-9"/>
  <anchor x="0" y="0" name="Anchor-8"/>
  <anchor x="616" y="0" name="Anchor-7"/>
  <outline>
    <contour>
      <point x="956" y="1569" type="qcurve" smooth="yes"/>
      <point x="847" y="1569"/>
      <point x="721" y="1692"/>
      <point x="721" y="1794" type="qcurve" smooth="yes"/>
      <point x="721" y="1816"/>
      <point x="729" y="1870" type="qcurve"/>
      <point x="901" y="1870" type="line"/>
      <point x="897" y="1842"/>
      <point x="897" y="1827" type="qcurve" smooth="yes"/>
      <point x="897" y="1777"/>
      <point x="946" y="1712"/>
      <point x="985" y="1712" type="qcurve" smooth="yes"/>
      <point x="1029" y="1712"/>
      <point x="1115" y="1801"/>
      <point x="1135" y="1870" type="qcurve"/>
      <point x="1307" y="1870" type="line"/>
      <point x="1279" y="1738"/>
      <point x="1082" y="1569"/>
    </contour>
    <contour>
      <point x="801" y="516" type="line"/>
      <point x="852" y="760" type="line"/>
      <point x="1395" y="760" type="line"/>
      <point x="1233" y="0" type="line"/>
      <point x="954" y="0" type="line"/>
      <point x="985" y="143" type="line"/>
      <point x="795" y="-10"/>
      <point x="596" y="-10" type="qcurve" smooth="yes"/>
      <point x="363" y="-10"/>
      <point x="68" y="320"/>
      <point x="68" y="584" type="qcurve" smooth="yes"/>
      <point x="68" y="760"/>
      <point x="214" y="1087"/>
      <point x="454" y="1323"/>
      <point x="772" y="1464"/>
      <point x="938" y="1464" type="qcurve" smooth="yes"/>
      <point x="1126" y="1464"/>
      <point x="1383" y="1294"/>
      <point x="1425" y="1147" type="qcurve"/>
      <point x="1137" y="958" type="line"/>
      <point x="1111" y="1054"/>
      <point x="961" y="1165"/>
      <point x="862" y="1165" type="qcurve" smooth="yes"/>
      <point x="744" y="1165"/>
      <point x="537" y="1016"/>
      <point x="414" y="765"/>
      <point x="414" y="623" type="qcurve" smooth="yes"/>
      <point x="414" y="475"/>
      <point x="561" y="289"/>
      <point x="688" y="289" type="qcurve" smooth="yes"/>
      <point x="876" y="289"/>
      <point x="1055" y="471" type="qcurve"/>
      <point x="1065" y="516" type="line"/>
    </contour>
  </outline>
</glyph>
<glyph name="Gdot" format="2">
  <advance width="1441"/>
  <unicode hex="0120"/>
  <anchor x="0" y="0" name="Anchor-11"/>
  <anchor x="0" y="0" name="Anchor-10"/>
  <anchor x="1022" y="1870" name="Anchor-9"/>
  <anchor x="0" y="0" name="Anchor-8"/>
  <anchor x="616" y="0" name="Anchor-7"/>
  <outline>
    <contour>
      <point x="1169" y="1870" type="line"/>
      <point x="1108" y="1589" type="line"/>
      <point x="815" y="1589" type="line"/>
      <point x="874" y="1870" type="line"/>
    </contour>
    <contour>
      <point x="801" y="516" type="line"/>
      <point x="852" y="760" type="line"/>
      <point x="1395" y="760" type="line"/>
      <point x="1233" y="0" type="line"/>
      <point x="954" y="0" type="line"/>
      <point x="985" y="143" type="line"/>
      <point x="795" y="-10"/>
      <point x="596" y="-10" type="qcurve" smooth="yes"/>
      <point x="363" y="-10"/>
      <point x="68" y="320"/>
      <point x="68" y="584" type="qcurve" smooth="yes"/>
      <point x="68" y="760"/>
      <point x="214" y="1087"/>
      <point x="454" y="1323"/>
      <point x="772" y="1464"/>
      <point x="938" y="1464" type="qcurve" smooth="yes"/>
      <point x="1126" y="1464"/>
      <point x="1383" y="1294"/>
      <point x="1425" y="1147" type="qcurve"/>
      <point x="1137" y="958" type="line"/>
      <point x="1111" y="1054"/>
      <point x="961" y="1165"/>
      <point x="862" y="1165" type="qcurve" smooth="yes"/>
      <point x="744" y="1165"/>
      <point x="537" y="1016"/>
      <point x="414" y="765"/>
      <point x="414" y="623" type="qcurve" smooth="yes"/>
      <point x="414" y="475"/>
      <point x="561" y="289"/>
      <point x="688" y="289" type="qcurve" smooth="yes"/>
      <point x="876" y="289"/>
      <point x="1055" y="471" type="qcurve"/>
      <point x="1065" y="516" type="line"/>
    </contour>
  </outline>
</glyph>
<glyph name="gdot" format="2">
  <advance width="1265"/>
  <unicode hex="0121"/>
  <anchor x="0" y="0" name="Anchor-11"/>
  <anchor x="0" y="0" name="Anchor-10"/>
  <anchor x="813" y="1489" name="Anchor-9"/>
  <anchor x="0" y="0" name="Anchor-8"/>
  <anchor x="0" y="0" name="Anchor-7"/>
  <outline>
    <contour>
      <point x="606" y="1208" type="line"/>
      <point x="666" y="1489" type="line"/>
      <point x="961" y="1489" type="line"/>
      <point x="899" y="1208" type="line"/>
    </contour>
    <contour>
      <point x="-117" y="-242" type="qcurve"/>
      <point x="96" y="-63" type="line"/>
      <point x="138" y="-131"/>
      <point x="288" y="-211"/>
      <point x="379" y="-211" type="qcurve" smooth="yes"/>
      <point x="499" y="-211"/>
      <point x="684" y="-69"/>
      <point x="713" y="74" type="qcurve" smooth="yes"/>
      <point x="733" y="178" type="line"/>
      <point x="672" y="91"/>
      <point x="478" y="-4"/>
      <point x="375" y="-4" type="qcurve" smooth="yes"/>
      <point x="214" y="-4"/>
      <point x="25" y="236"/>
      <point x="25" y="420" type="qcurve" smooth="yes"/>
      <point x="25" y="554"/>
      <point x="124" y="804"/>
      <point x="289" y="987"/>
      <point x="514" y="1096"/>
      <point x="635" y="1096" type="qcurve" smooth="yes"/>
      <point x="746" y="1096"/>
      <point x="897" y="993"/>
      <point x="930" y="899" type="qcurve"/>
      <point x="969" y="1075" type="line"/>
      <point x="1253" y="1075" type="line"/>
      <point x="1040" y="74" type="line" smooth="yes"/>
      <point x="988" y="-170"/>
      <point x="597" y="-457"/>
      <point x="328" y="-457" type="qcurve" smooth="yes"/>
      <point x="21" y="-457"/>
    </contour>
    <contour>
      <point x="782" y="406" type="qcurve"/>
      <point x="831" y="631" type="line"/>
      <point x="819" y="715"/>
      <point x="718" y="817"/>
      <point x="651" y="817" type="qcurve" smooth="yes"/>
      <point x="578" y="817"/>
      <point x="445" y="715"/>
      <point x="367" y="554"/>
      <point x="367" y="469" type="qcurve" smooth="yes"/>
      <point x="367" y="376"/>
      <point x="465" y="256"/>
      <point x="547" y="256" type="qcurve" smooth="yes"/>
      <point x="611" y="256"/>
      <point x="735" y="338"/>
    </contour>
  </outline>
</glyph>
<glyph name="Hcircumflex" format="2">
  <advance width="1476"/>
  <unicode hex="0124"/>
  <anchor x="0" y="0" name="Anchor-11"/>
  <anchor x="780" y="727" name="Anchor-10"/>
  <anchor x="1008" y="1874" name="Anchor-9"/>
  <anchor x="0" y="0" name="Anchor-8"/>
  <anchor x="625" y="0" name="Anchor-7"/>
  <outline>
    <contour>
      <point x="645" y="1653" type="line"/>
      <point x="907" y="1874" type="line"/>
      <point x="1143" y="1874" type="line"/>
      <point x="1311" y="1653" type="line"/>
      <point x="1126" y="1579" type="line"/>
      <point x="989" y="1708" type="line"/>
      <point x="797" y="1579" type="line"/>
    </contour>
    <contour>
      <point x="317" y="1454" type="line"/>
      <point x="653" y="1454" type="line"/>
      <point x="532" y="891" type="line"/>
      <point x="1059" y="891" type="line"/>
      <point x="1180" y="1454" type="line"/>
      <point x="1516" y="1454" type="line"/>
      <point x="1206" y="0" type="line"/>
      <point x="870" y="0" type="line"/>
      <point x="997" y="596" type="line"/>
      <point x="471" y="596" type="line"/>
      <point x="344" y="0" type="line"/>
      <point x="8" y="0" type="line"/>
    </contour>
  </outline>
</glyph>
<glyph name="Hbar" format="2">
  <advance width="1488"/>
  <unicode hex="0126"/>
  <outline>
    <contour>
      <point x="1579" y="1264" type="line"/>
      <point x="1546" y="1108" type="line"/>
      <point x="1450" y="1108" type="line"/>
      <point x="1214" y="0" type="line"/>
      <point x="879" y="0" type="line"/>
      <point x="1006" y="596" type="line"/>
      <point x="479" y="596" type="line"/>
      <point x="352" y="0" type="line"/>
      <point x="16" y="0" type="line"/>
      <point x="252" y="1108" type="line"/>
      <point x="154" y="1108" type="line"/>
      <point x="188" y="1264" type="line"/>
      <point x="285" y="1264" type="line"/>
      <point x="326" y="1454" type="line"/>
      <point x="662" y="1454" type="line"/>
      <point x="621" y="1264" type="line"/>
      <point x="1147" y="1264" type="line"/>
      <point x="1188" y="1454" type="line"/>
      <point x="1524" y="1454" type="line"/>
      <point x="1483" y="1264" type="line"/>
    </contour>
    <contour>
      <point x="1067" y="891" type="line"/>
      <point x="1114" y="1108" type="line"/>
      <point x="588" y="1108" type="line"/>
      <point x="541" y="891" type="line"/>
    </contour>
  </outline>
</glyph>
<glyph name="hbar" format="2">
  <advance width="1210"/>
  <unicode hex="0127"/>
  <anchor x="0" y="0" name="Anchor-11"/>
  <anchor x="606" y="537" name="Anchor-10"/>
  <anchor x="801" y="1454" name="Anchor-9"/>
  <anchor x="0" y="0" name="Anchor-8"/>
  <anchor x="492" y="0" name="Anchor-7"/>
  <outline>
    <contour>
      <point x="891" y="1096" type="qcurve" smooth="yes"/>
      <point x="1143" y="1096"/>
      <point x="1143" y="848" type="qcurve" smooth="yes"/>
      <point x="1143" y="789"/>
      <point x="1124" y="688" type="qcurve" smooth="yes"/>
      <point x="979" y="0" type="line"/>
      <point x="651" y="0" type="line"/>
      <point x="780" y="604" type="line"/>
      <point x="788" y="666"/>
      <point x="788" y="684" type="qcurve" smooth="yes"/>
      <point x="788" y="807"/>
      <point x="682" y="807" type="qcurve" smooth="yes"/>
      <point x="629" y="807"/>
      <point x="481" y="698"/>
      <point x="438" y="616" type="qcurve"/>
      <point x="307" y="0" type="line"/>
      <point x="-20" y="0" type="line"/>
      <point x="233" y="1198" type="line"/>
      <point x="127" y="1198" type="line"/>
      <point x="166" y="1391" type="line"/>
      <point x="274" y="1391" type="line"/>
      <point x="297" y="1495" type="line"/>
      <point x="625" y="1495" type="line"/>
      <point x="602" y="1391" type="line"/>
      <point x="791" y="1391" type="line"/>
      <point x="750" y="1198" type="line"/>
      <point x="561" y="1198" type="line"/>
      <point x="498" y="895" type="line"/>
      <point x="573" y="991"/>
      <point x="779" y="1096"/>
    </contour>
  </outline>
</glyph>
<glyph name="Itilde" format="2">
  <advance width="614"/>
  <unicode hex="0128"/>
  <anchor x="0" y="0" name="Anchor-11"/>
  <anchor x="0" y="0" name="Anchor-10"/>
  <anchor x="586" y="1874" name="Anchor-9"/>
  <anchor x="344" y="0" name="Anchor-8"/>
  <anchor x="188" y="0" name="Anchor-7"/>
  <outline>
    <contour>
      <point x="418" y="1677" type="qcurve" smooth="yes"/>
      <point x="393" y="1677"/>
      <point x="352" y="1658"/>
      <point x="329" y="1631"/>
      <point x="313" y="1601"/>
      <point x="307" y="1582"/>
      <point x="307" y="1579" type="qcurve"/>
      <point x="129" y="1579" type="line"/>
      <point x="133" y="1600"/>
      <point x="163" y="1666"/>
      <point x="220" y="1749"/>
      <point x="291" y="1821"/>
      <point x="391" y="1870"/>
      <point x="444" y="1870" type="qcurve" smooth="yes"/>
      <point x="486" y="1870"/>
      <point x="557" y="1839"/>
      <point x="598" y="1803"/>
      <point x="654" y="1772"/>
      <point x="684" y="1772" type="qcurve" smooth="yes"/>
      <point x="709" y="1772"/>
      <point x="752" y="1793"/>
      <point x="778" y="1819"/>
      <point x="799" y="1853"/>
      <point x="805" y="1868"/>
      <point x="807" y="1874" type="qcurve"/>
      <point x="981" y="1874" type="line"/>
      <point x="978" y="1859"/>
      <point x="948" y="1796"/>
      <point x="889" y="1711"/>
      <point x="816" y="1635"/>
      <point x="711" y="1583"/>
      <point x="657" y="1583" type="qcurve" smooth="yes"/>
      <point x="617" y="1583"/>
      <point x="546" y="1612"/>
      <point x="504" y="1648"/>
      <point x="446" y="1677"/>
    </contour>
    <contour>
      <point x="317" y="1454" type="line"/>
      <point x="653" y="1454" type="line"/>
      <point x="344" y="0" type="line"/>
      <point x="8" y="0" type="line"/>
    </contour>
  </outline>
</glyph>
<glyph name="itilde" format="2">
  <advance width="548"/>
  <unicode hex="0129"/>
  <anchor x="0" y="0" name="Anchor-11"/>
  <anchor x="0" y="0" name="Anchor-10"/>
  <anchor x="512" y="1487" name="Anchor-9"/>
  <anchor x="379" y="20" name="Anchor-8"/>
  <anchor x="143" y="0" name="Anchor-7"/>
  <outline>
    <contour>
      <point x="344" y="1290" type="qcurve" smooth="yes"/>
      <point x="319" y="1290"/>
      <point x="278" y="1271"/>
      <point x="255" y="1244"/>
      <point x="239" y="1214"/>
      <point x="233" y="1195"/>
      <point x="233" y="1192" type="qcurve"/>
      <point x="55" y="1192" type="line"/>
      <point x="59" y="1212"/>
      <point x="89" y="1279"/>
      <point x="147" y="1362"/>
      <point x="218" y="1434"/>
      <point x="318" y="1483"/>
      <point x="371" y="1483" type="qcurve" smooth="yes"/>
      <point x="413" y="1483"/>
      <point x="484" y="1452"/>
      <point x="524" y="1415"/>
      <point x="580" y="1384"/>
      <point x="610" y="1384" type="qcurve" smooth="yes"/>
      <point x="635" y="1384"/>
      <point x="678" y="1405"/>
      <point x="704" y="1431"/>
      <point x="725" y="1466"/>
      <point x="731" y="1481"/>
      <point x="733" y="1487" type="qcurve"/>
      <point x="907" y="1487" type="line"/>
      <point x="904" y="1472"/>
      <point x="874" y="1409"/>
      <point x="816" y="1324"/>
      <point x="743" y="1248"/>
      <point x="638" y="1196"/>
      <point x="584" y="1196" type="qcurve" smooth="yes"/>
      <point x="544" y="1196"/>
      <point x="473" y="1225"/>
      <point x="430" y="1261"/>
      <point x="372" y="1290"/>
    </contour>
    <contour>
      <point x="209" y="1075" type="line"/>
      <point x="537" y="1075" type="line"/>
      <point x="307" y="0" type="line"/>
      <point x="-20" y="0" type="line"/>
    </contour>
  </outline>
</glyph>
<glyph name="Imacron" format="2">
  <advance width="614"/>
  <unicode hex="012A"/>
  <anchor x="0" y="0" name="Anchor-11"/>
  <anchor x="0" y="0" name="Anchor-10"/>
  <anchor x="582" y="1847" name="Anchor-9"/>
  <anchor x="344" y="0" name="Anchor-8"/>
  <anchor x="188" y="0" name="Anchor-7"/>
  <outline>
    <contour>
      <point x="242" y="1649" type="line"/>
      <point x="283" y="1847" type="line"/>
      <point x="879" y="1847" type="line"/>
      <point x="838" y="1649" type="line"/>
    </contour>
    <contour>
      <point x="317" y="1454" type="line"/>
      <point x="653" y="1454" type="line"/>
      <point x="344" y="0" type="line"/>
      <point x="8" y="0" type="line"/>
    </contour>
  </outline>
</glyph>
<glyph name="imacron" format="2">
  <advance width="548"/>
  <unicode hex="012B"/>
  <anchor x="0" y="0" name="Anchor-11"/>
  <anchor x="0" y="0" name="Anchor-10"/>
  <anchor x="455" y="1468" name="Anchor-9"/>
  <anchor x="379" y="20" name="Anchor-8"/>
  <anchor x="143" y="0" name="Anchor-7"/>
  <outline>
    <contour>
      <point x="115" y="1270" type="line"/>
      <point x="156" y="1468" type="line"/>
      <point x="752" y="1468" type="line"/>
      <point x="711" y="1270" type="line"/>
    </contour>
    <contour>
      <point x="209" y="1075" type="line"/>
      <point x="537" y="1075" type="line"/>
      <point x="307" y="0" type="line"/>
      <point x="-20" y="0" type="line"/>
    </contour>
  </outline>
</glyph>
<glyph name="Ibreve" format="2">
  <advance width="614"/>
  <unicode hex="012C"/>
  <anchor x="0" y="0" name="Anchor-11"/>
  <anchor x="0" y="0" name="Anchor-10"/>
  <anchor x="586" y="1874" name="Anchor-9"/>
  <anchor x="344" y="0" name="Anchor-8"/>
  <anchor x="188" y="0" name="Anchor-7"/>
  <outline>
    <contour>
      <point x="700" y="1874" type="qcurve"/>
      <point x="872" y="1874" type="line"/>
      <point x="844" y="1742"/>
      <point x="648" y="1573"/>
      <point x="522" y="1573" type="qcurve" smooth="yes"/>
      <point x="413" y="1573"/>
      <point x="287" y="1696"/>
      <point x="287" y="1798" type="qcurve" smooth="yes"/>
      <point x="287" y="1820"/>
      <point x="295" y="1874" type="qcurve"/>
      <point x="467" y="1874" type="line"/>
      <point x="463" y="1846"/>
      <point x="463" y="1831" type="qcurve" smooth="yes"/>
      <point x="463" y="1781"/>
      <point x="512" y="1716"/>
      <point x="551" y="1716" type="qcurve" smooth="yes"/>
      <point x="595" y="1716"/>
      <point x="680" y="1805"/>
    </contour>
    <contour>
      <point x="317" y="1454" type="line"/>
      <point x="653" y="1454" type="line"/>
      <point x="344" y="0" type="line"/>
      <point x="8" y="0" type="line"/>
    </contour>
  </outline>
</glyph>
<glyph name="ibreve" format="2">
  <advance width="548"/>
  <unicode hex="012D"/>
  <anchor x="0" y="0" name="Anchor-11"/>
  <anchor x="0" y="0" name="Anchor-10"/>
  <anchor x="459" y="1495" name="Anchor-9"/>
  <anchor x="379" y="20" name="Anchor-8"/>
  <anchor x="143" y="0" name="Anchor-7"/>
  <outline>
    <contour>
      <point x="573" y="1495" type="qcurve"/>
      <point x="745" y="1495" type="line"/>
      <point x="717" y="1363"/>
      <point x="521" y="1194"/>
      <point x="395" y="1194" type="qcurve" smooth="yes"/>
      <point x="286" y="1194"/>
      <point x="160" y="1317"/>
      <point x="160" y="1419" type="qcurve" smooth="yes"/>
      <point x="160" y="1441"/>
      <point x="168" y="1495" type="qcurve"/>
      <point x="340" y="1495" type="line"/>
      <point x="336" y="1467"/>
      <point x="336" y="1452" type="qcurve" smooth="yes"/>
      <point x="336" y="1402"/>
      <point x="385" y="1337"/>
      <point x="424" y="1337" type="qcurve" smooth="yes"/>
      <point x="468" y="1337"/>
      <point x="553" y="1426"/>
    </contour>
    <contour>
      <point x="209" y="1075" type="line"/>
      <point x="537" y="1075" type="line"/>
      <point x="307" y="0" type="line"/>
      <point x="-20" y="0" type="line"/>
    </contour>
  </outline>
</glyph>
<glyph name="Iogonek" format="2">
  <advance width="614"/>
  <unicode hex="012E"/>
  <anchor x="0" y="0" name="Anchor-11"/>
  <anchor x="0" y="0" name="Anchor-10"/>
  <anchor x="498" y="1454" name="Anchor-9"/>
  <anchor x="344" y="0" name="Anchor-8"/>
  <anchor x="188" y="0" name="Anchor-7"/>
  <outline>
    <contour>
      <point x="344" y="0" type="line"/>
      <point x="186" y="-116"/>
      <point x="186" y="-182" type="qcurve" smooth="yes"/>
      <point x="186" y="-245"/>
      <point x="279" y="-248" type="qcurve"/>
      <point x="178" y="-426" type="line"/>
      <point x="81" y="-411"/>
      <point x="-25" y="-318"/>
      <point x="-25" y="-194"/>
      <point x="67" y="-61"/>
      <point x="154" y="0" type="qcurve"/>
      <point x="8" y="0" type="line"/>
      <point x="317" y="1454" type="line"/>
      <point x="653" y="1454" type="line"/>
    </contour>
  </outline>
</glyph>
<glyph name="iogonek" format="2">
  <advance width="548"/>
  <unicode hex="012F"/>
  <anchor x="0" y="0" name="Anchor-11"/>
  <anchor x="0" y="0" name="Anchor-10"/>
  <anchor x="0" y="0" name="Anchor-9"/>
  <anchor x="307" y="0" name="Anchor-8"/>
  <anchor x="156" y="0" name="Anchor-7"/>
  <outline>
    <contour>
      <point x="297" y="1495" type="line"/>
      <point x="625" y="1495" type="line"/>
      <point x="561" y="1198" type="line"/>
      <point x="233" y="1198" type="line"/>
    </contour>
    <contour>
      <point x="-20" y="0" type="line"/>
      <point x="209" y="1075" type="line"/>
      <point x="537" y="1075" type="line"/>
      <point x="307" y="0" type="line"/>
      <point x="150" y="-115"/>
      <point x="150" y="-182" type="qcurve" smooth="yes"/>
      <point x="150" y="-245"/>
      <point x="242" y="-248" type="qcurve"/>
      <point x="141" y="-426" type="line"/>
      <point x="44" y="-411"/>
      <point x="-61" y="-318"/>
      <point x="-61" y="-194"/>
      <point x="30" y="-61"/>
      <point x="117" y="0" type="qcurve"/>
    </contour>
  </outline>
</glyph>
<glyph name="Idotaccent" format="2">
  <advance width="614"/>
  <unicode hex="0130"/>
  <anchor x="0" y="0" name="Anchor-11"/>
  <anchor x="0" y="0" name="Anchor-10"/>
  <anchor x="588" y="1874" name="Anchor-9"/>
  <anchor x="344" y="0" name="Anchor-8"/>
  <anchor x="188" y="0" name="Anchor-7"/>
  <outline>
    <contour>
      <point x="381" y="1593" type="line"/>
      <point x="440" y="1874" type="line"/>
      <point x="735" y="1874" type="line"/>
      <point x="674" y="1593" type="line"/>
    </contour>
    <contour>
      <point x="317" y="1454" type="line"/>
      <point x="653" y="1454" type="line"/>
      <point x="344" y="0" type="line"/>
      <point x="8" y="0" type="line"/>
    </contour>
  </outline>
</glyph>
<glyph name="dotlessi" format="2">
  <advance width="548"/>
  <unicode hex="0131"/>
  <anchor x="0" y="0" name="Anchor-11"/>
  <anchor x="0" y="0" name="Anchor-10"/>
  <anchor x="371" y="1075" name="Anchor-9"/>
  <anchor x="379" y="20" name="Anchor-8"/>
  <anchor x="143" y="0" name="Anchor-7"/>
  <outline>
    <contour>
      <point x="209" y="1075" type="line"/>
      <point x="537" y="1075" type="line"/>
      <point x="307" y="0" type="line"/>
      <point x="-20" y="0" type="line"/>
    </contour>
  </outline>
</glyph>
<glyph name="jcircumflex" format="2">
  <advance width="548"/>
  <unicode hex="0135"/>
  <anchor x="0" y="0" name="Anchor-11"/>
  <anchor x="0" y="0" name="Anchor-10"/>
  <anchor x="463" y="1495" name="Anchor-9"/>
  <anchor x="0" y="0" name="Anchor-8"/>
  <anchor x="160" y="0" name="Anchor-7"/>
  <outline>
    <contour>
      <point x="100" y="1274" type="line"/>
      <point x="362" y="1495" type="line"/>
      <point x="598" y="1495" type="line"/>
      <point x="766" y="1274" type="line"/>
      <point x="582" y="1200" type="line"/>
      <point x="444" y="1329" type="line"/>
      <point x="252" y="1200" type="line"/>
    </contour>
    <contour>
      <point x="-420" y="-311" type="qcurve"/>
      <point x="-236" y="-88" type="line"/>
      <point x="-209" y="-131"/>
      <point x="-145" y="-131" type="qcurve" smooth="yes"/>
      <point x="-102" y="-131"/>
      <point x="-35" y="-69"/>
      <point x="-25" y="-18" type="qcurve" smooth="yes"/>
      <point x="207" y="1075" type="line"/>
      <point x="537" y="1075" type="line"/>
      <point x="309" y="6" type="line" smooth="yes"/>
      <point x="269" y="-179"/>
      <point x="3" y="-414"/>
      <point x="-164" y="-414" type="qcurve" smooth="yes"/>
      <point x="-328" y="-414"/>
    </contour>
  </outline>
</glyph>
<glyph name="Kcedilla" format="2">
  <advance width="1337"/>
  <unicode hex="0136"/>
  <anchor x="0" y="0" name="Anchor-11"/>
  <anchor x="0" y="0" name="Anchor-10"/>
  <anchor x="0" y="0" name="Anchor-9"/>
  <anchor x="0" y="0" name="Anchor-8"/>
  <anchor x="571" y="0" name="Anchor-7"/>
  <outline>
    <contour>
      <point x="317" y="1454" type="line"/>
      <point x="653" y="1454" type="line"/>
      <point x="520" y="827" type="line"/>
      <point x="1135" y="1454" type="line"/>
      <point x="1513" y="1454" type="line"/>
      <point x="860" y="805" type="line"/>
      <point x="1237" y="0" type="line"/>
      <point x="852" y="0" type="line"/>
      <point x="600" y="586" type="line"/>
      <point x="434" y="428" type="line"/>
      <point x="344" y="0" type="line"/>
      <point x="8" y="0" type="line"/>
    </contour>
    <contour>
      <point x="373" y="-436" type="line"/>
      <point x="467" y="-299" type="line"/>
      <point x="369" y="-299" type="line"/>
      <point x="414" y="-96" type="line"/>
      <point x="684" y="-96" type="line"/>
      <point x="643" y="-299" type="line"/>
      <point x="518" y="-436" type="line"/>
    </contour>
  </outline>
</glyph>
<glyph name="kcedilla" format="2">
  <advance width="1167"/>
  <unicode hex="0137"/>
  <anchor x="0" y="0" name="Anchor-11"/>
  <anchor x="0" y="0" name="Anchor-10"/>
  <anchor x="0" y="0" name="Anchor-9"/>
  <anchor x="0" y="0" name="Anchor-8"/>
  <anchor x="473" y="0" name="Anchor-7"/>
  <outline>
    <contour>
      <point x="1122" y="846" type="qcurve" smooth="yes"/>
      <point x="1122" y="711"/>
      <point x="970" y="481"/>
      <point x="831" y="406" type="qcurve"/>
      <point x="1014" y="0" type="line"/>
      <point x="666" y="0" type="line"/>
      <point x="485" y="465" type="line"/>
      <point x="644" y="495"/>
      <point x="827" y="633"/>
      <point x="827" y="717" type="qcurve" smooth="yes"/>
      <point x="827" y="760"/>
      <point x="778" y="809"/>
      <point x="737" y="809" type="qcurve" smooth="yes"/>
      <point x="650" y="809"/>
      <point x="461" y="622"/>
      <point x="410" y="487" type="qcurve"/>
      <point x="305" y="0" type="line"/>
      <point x="-20" y="0" type="line"/>
      <point x="297" y="1495" type="line"/>
      <point x="623" y="1495" type="line"/>
      <point x="477" y="807" type="line"/>
      <point x="561" y="941"/>
      <point x="773" y="1087"/>
      <point x="893" y="1087" type="qcurve" smooth="yes"/>
      <point x="1004" y="1087"/>
      <point x="1122" y="961"/>
    </contour>
    <contour>
      <point x="270" y="-299" type="line"/>
      <point x="315" y="-96" type="line"/>
      <point x="586" y="-96" type="line"/>
      <point x="545" y="-299" type="line"/>
      <point x="420" y="-436" type="line"/>
      <point x="274" y="-436" type="line"/>
      <point x="369" y="-299" type="line"/>
    </contour>
  </outline>
</glyph>
<glyph name="kgreenlandic" format="2">
  <advance width="1126"/>
  <unicode hex="0138"/>
  <outline>
    <contour>
      <point x="209" y="1075" type="line"/>
      <point x="537" y="1075" type="line"/>
      <point x="440" y="629" type="line"/>
      <point x="862" y="1075" type="line"/>
      <point x="1206" y="1075" type="line"/>
      <point x="745" y="612" type="line"/>
      <point x="1012" y="0" type="line"/>
      <point x="664" y="0" type="line"/>
      <point x="500" y="432" type="line"/>
      <point x="375" y="313" type="line"/>
      <point x="307" y="0" type="line"/>
      <point x="-20" y="0" type="line"/>
    </contour>
  </outline>
</glyph>
<glyph name="Lacute" format="2">
  <advance width="1153"/>
  <unicode hex="0139"/>
  <anchor x="922" y="1075" name="Anchor-11"/>
  <anchor x="616" y="727" name="Anchor-10"/>
  <anchor x="625" y="1880" name="Anchor-9"/>
  <anchor x="0" y="0" name="Anchor-8"/>
  <anchor x="504" y="0" name="Anchor-7"/>
  <outline>
    <contour>
      <point x="600" y="1585" type="line"/>
      <point x="383" y="1614" type="line"/>
      <point x="539" y="1880" type="line"/>
      <point x="836" y="1880" type="line"/>
    </contour>
    <contour>
      <point x="317" y="1454" type="line"/>
      <point x="653" y="1454" type="line"/>
      <point x="406" y="295" type="line"/>
      <point x="1063" y="295" type="line"/>
      <point x="1001" y="0" type="line"/>
      <point x="8" y="0" type="line"/>
    </contour>
  </outline>
</glyph>
